<svg
      xmlns="http://www.w3.org/2000/svg"
      width="2666.667"
      height="2666.667"
      version="1.1"
      viewBox="0 0 2666.667 2666.667"
      xmlSpace="preserve"
    >
      <g transform="matrix(1.33333 0 0 -1.33333 0 2666.667)">
        <g transform="scale(.1)">
          <g transform="scale(1.22699)">
            <path
              fill="#82bc0000"
              fillOpacity="1"
              fillRule="nonzero"
              stroke="none"
              d="M16300 0H0v16300h16300V0"
            ></path>
          </g>
          <path
            fill="#2e2d2d"
            fillOpacity="1"
            fillRule="nonzero"
            stroke="none"
            d="M6149.48 9993.3s-959.55 152.7-1046.82 1695.1c-80.24 1418.2-684.38 2342.1 55.83 3121.7 740.21 779.5 2168.64 574.5 3777.25-2591.5"
          ></path>
          <path
            fill="#100f0d"
            fillOpacity="1"
            fillRule="nonzero"
            stroke="none"
            d="M6149.62 9873.3c-6.27 0-12.61.5-19 1.5-11.25 1.8-278.82 46.8-553.12 299.4-157.79 145.3-287.06 330.4-384.2 550.1-118.92 269-189.72 591-210.44 957.3-25.27 446.6-104.91 850.7-175.18 1207.2-78.53 398.5-146.36 742.6-131.24 1068.9 17.25 372.2 142.77 669.3 395.02 935 311.24 327.8 702.49 468 1131.38 405.5 641.85-93.5 1655.55-694.3 2839.88-3025.2 30.02-59.1 6.46-131.3-52.63-161.4-59.08-30-131.32-6.4-161.34 52.7-481.39 947.4-972.89 1679.1-1460.83 2174.8-416.91 423.6-820.54 666.3-1199.69 721.6-440.22 64.1-744.75-145.8-922.72-333.3-460.09-484.5-351.99-1033-202.36-1792.2 71.77-364.1 153.12-776.9 179.33-1240 80.86-1429.3 937.22-1582 945.85-1583.4 65.45-10.4 110.07-71.9 99.66-137.3-9.4-59.1-60.4-101.2-118.37-101.2"
          ></path>
          <path
            fill="#fff"
            fillOpacity="1"
            fillRule="nonzero"
            stroke="none"
            d="M6635.08 10776.2s1038.51 873.2 1574.95 1130.4c536.44 257.1-817.53 2780.2-2128.62 2921.9-1230.96 133-1080.96-1537-699.12-2723.5 246.49-765.9-150.92-1289.4 925-1760.1 1075.93-470.6 327.79 431.3 327.79 431.3"
          ></path>
          <path
            fill="#2e2d2d"
            fillOpacity="1"
            fillRule="nonzero"
            stroke="none"
            d="M13886.5 9993.3s959.6 152.7 1046.9 1695.1c80.2 1418.2 684.3 2342.1-55.9 3121.7-740.2 779.5-2168.6 574.5-3777.2-2591.5"
          ></path>
          <path
            fill="#100f0d"
            fillOpacity="1"
            fillRule="nonzero"
            stroke="none"
            d="M13886.4 9873.3c-58 0-109 42.1-118.4 101.2-10.3 65.2 33.9 126.5 99 137.2 5.4 1 220 41.3 440.3 249.7 297.8 281.5 472.8 742.7 506.2 1333.8 26.3 463.1 107.6 875.9 179.4 1240 149.6 759.2 257.7 1307.7-202.4 1792.2-178 187.5-482.6 397.5-922.7 333.3-379.2-55.3-782.8-298-1199.7-721.6-487.9-495.7-979.4-1227.4-1460.8-2174.8-30.1-59.1-102.3-82.7-161.4-52.7-59.1 30.1-82.6 102.3-52.6 161.4 1184.3 2330.9 2198 2931.7 2839.9 3025.2 428.9 62.5 820.1-77.7 1131.4-405.5 252.2-265.7 377.7-562.8 395-935 15.1-326.3-52.7-670.4-131.3-1068.9-70.2-356.5-149.9-760.6-175.1-1207.2-20.8-366.3-91.6-688.3-210.5-957.3-97.1-219.7-226.4-404.8-384.2-550.1-274.3-252.6-541.8-297.6-553.1-299.4-6.4-1-12.7-1.5-19-1.5"
          ></path>
          <path
            fill="#fff"
            fillOpacity="1"
            fillRule="nonzero"
            stroke="none"
            d="M13400.9 10776.2s-1038.5 873.2-1574.9 1130.4c-536.5 257.1 817.5 2780.2 2128.6 2921.9 1231 133 1081-1537 699.1-2723.5-246.5-765.9 150.9-1289.4-925-1760.1-1075.9-470.6-327.8 431.3-327.8 431.3"
          ></path>
          <path
            fill="#2e2d2d"
            fillOpacity="1"
            fillRule="nonzero"
            stroke="none"
            d="M13527.5 5643c544.9 858.9 683.6 2375 426 3216.3-257.6 841.4 346.8 1262-505.3 2567.8-852.1 1305.8-3428.1 1064.8-3428.1 1064.8s-2576.05 241-3428.13-1064.8c-852.07-1305.8-247.69-1726.4-505.3-2567.8-257.6-841.3-118.89-2357.4 426.04-3216.3"
          ></path>
          <path
            fill="#fff"
            fillOpacity="1"
            fillRule="nonzero"
            stroke="none"
            d="M8500.45 7588.2l1525.05 654.1 1525-654.1s1046.7-846.7-173.3 1720-146.7 3151.7-146.7 3151.7l-3.5 12c-667.1 70.5-1206.9 20-1206.9 20s-533.79 50-1195.74-18.8l-3.92-13.2s1073.35-585-146.65-3151.7-173.34-1720-173.34-1720"
          ></path>
          <path
            fill="#fff"
            fillOpacity="1"
            fillRule="nonzero"
            stroke="none"
            d="M14019 7091.7c23.2 307.3 31.9 1293.7-862.6 958.4h-5.4s-723.3-270.2-881.8 81.1c-158.5 351.3-69.4 2103.6-2249.1 2211.7-2179.74-108.1-2090.57-1860.4-2249.09-2211.7-158.53-351.3-881.8-81.1-881.8-81.1-1042.99 390.9-858.1-1015.1-853.91-1046 .08-.5.16-1 .25-1.5l35.92-190.8c90.7-435.1 237.59-847.8 441.24-1168.8h7014.79c246.9 389.2 410.5 913.5 491.5 1448.7"
          ></path>
          <path
            fill="#100f0d"
            fillOpacity="1"
            fillRule="nonzero"
            stroke="none"
            d="M13527.4 5523c-22 0-44.3 6-64.2 18.7-56 35.5-72.6 109.6-37.1 165.6 543.4 856.4 653.6 2330 412.7 3116.9-102.1 333.2-77.8 607-54.3 871.8 38.3 431.1 77.8 876.9-436.8 1665.6-803.2 1230.9-3291.4 1013.2-3316.4 1010.9-7.5-.7-15-.7-22.4 0-6.3.6-642.8 57.8-1371.6-42.8-658.32-90.9-1530.11-332.6-1944.83-968.1-514.58-788.7-475.04-1234.5-436.8-1665.6 23.49-264.8 47.77-538.6-54.26-871.8-240.94-786.9-130.74-2260.5 412.62-3116.9 35.51-56 18.93-130.1-37.03-165.6-55.95-35.5-130.11-18.9-165.61 37-264.59 417-453.46 1008.3-531.81 1664.8-73.63 617.1-39.97 1218.8 92.35 1651 88.31 288.4 67.11 527.3 44.68 780.3-39.91 449.8-85.13 959.7 474.86 1817.9 207.19 317.5 525.73 573.7 946.77 761.3 330.03 147.1 724.02 252.8 1171.01 314.1 710.62 97.5 1318.7 52.1 1410.85 44.3 92.1 7.8 700.2 53.2 1410.8-44.3 447-61.3 841-167 1171-314.1 421.1-187.6 739.6-443.8 946.8-761.3 560-858.2 514.8-1368.1 474.9-1817.9-22.5-253-43.7-491.9 44.7-780.3 132.3-432.2 165.9-1033.9 92.3-1651-78.3-656.5-267.2-1247.8-531.8-1664.8-22.9-36-61.7-55.7-101.4-55.7"
          ></path>
          <path
            fill="#100f0d"
            fillOpacity="1"
            fillRule="nonzero"
            stroke="none"
            d="M10020.1 7772.8l-2596.7-584.3S7844.21 5897 10020.1 5897c2175.9 0 2596.7 1291.5 2596.7 1291.5l-2596.7 584.3"
          ></path>
          <path
            fill="#fff"
            fillOpacity="1"
            fillRule="nonzero"
            stroke="none"
            d="M13408.6 7944.8s-822.4-1126.1-1714.1-1063c-891.7 63.1-1634.8 630.6-1674.4 991-39.64-360.4-782.73-927.9-1674.44-991-891.7-63.1-1714.06 1063-1714.06 1063"
          ></path>
          <path
            fill="#100f0d"
            fillOpacity="1"
            fillRule="nonzero"
            stroke="none"
            d="M13408.6 7944.8c-46.3-73.2-98.1-142.9-150.9-211.8-53.5-68.5-109.4-135.2-168-199.7-58.4-64.8-119.7-127.1-183.2-187.4-63.4-60.5-130.6-117.3-199.8-172.1-69.2-54.7-142.2-105.3-218.2-152-37.6-24-77.2-44.9-116.6-66.5-40.4-19.8-80.4-40.5-122.4-57.5-20.9-9-41.6-18.1-63.2-25.5-21.4-7.7-42.7-16-64.4-22.9l-66.1-19.4c-10.9-3.5-22.2-5.8-33.4-8.4l-33.8-7.5c-11.3-2.5-22.6-5.2-33.9-7.4l-34.4-5.3-34.5-5.2-17.3-2.6-17.5-1.4-70-5.2c-23.5-.3-47 .1-70.6.3l-17.6.1-4.5.1-5.7.4-8.1.5-32.3 2-32.3 2.1c-10.6.6-22.5 2.1-33.8 3.1-22.7 2.4-45.7 4.4-68.2 7.1l-66.8 9.1c-88.8 13.4-176.8 31.9-263.9 54.4-87 22.7-172.8 50-257 81.9-84.1 32-167 67.8-247.6 108.6-80.7 40.5-159.2 86.1-235.1 136.3-75.9 50.3-149.3 105.4-218.8 166.8-69.5 61.4-134.6 129.9-192.1 209.1l-10.8 14.8c-3.5 5-6.9 10.4-10.3 15.6l-20.25 31.4c-12.53 22.3-25.52 43.9-36.3 68.2-22.15 47.7-40.98 100.2-48.1 160.7h238.45c-6.9-60.6-25.9-113-48-160.7-10.8-24.4-23.8-45.9-36.3-68.2l-20.3-31.5c-3.4-5.2-6.7-10.5-10.2-15.5l-10.9-14.9c-57.47-79.2-122.66-147.6-192.01-209.2-69.53-61.4-142.89-116.5-218.8-166.7-75.98-50.2-154.33-95.9-235.11-136.4-80.61-40.9-163.47-76.6-247.63-108.6-84.16-31.9-169.97-59.4-256.98-82-87.07-22.5-175.15-40.9-263.97-54.5l-66.8-9c-22.29-2.8-44.7-4.7-67.03-7-22.31-2.5-44.75-3.9-67.17-5.3l-33.61-2.1-8.4-.6-8.01-.4h-4.04l-16.19-.1c-21.69-.1-42.9-.4-65-.2-24.37 1.4-48.72 3.2-72.99 5.1l-18.19 1.4-17.28 2.6-34.5 5.2-34.45 5.3c-11.35 2.2-22.59 4.9-33.88 7.4l-33.8 7.6c-11.26 2.5-22.56 4.9-33.49 8.4l-66.03 19.4c-21.77 7-43.05 15.1-64.49 22.8-21.6 7.4-42.33 16.6-63.15 25.6-42.07 17-82.09 37.7-122.48 57.5-39.32 21.6-79.01 42.5-116.6 66.5-75.98 46.8-148.96 97.4-218.23 152.1-69.2 54.8-136.3 111.6-199.76 172.1-63.48 60.4-124.83 122.6-183.2 187.4-58.61 64.6-114.47 131.3-167.9 199.8-52.8 69-104.63 138.6-150.83 211.9 57.3-64.8 116.58-127.4 178.01-187.8 60.97-60.8 123.69-119.5 187.79-176.3 64.34-56.6 129.82-111.6 197.25-163.6 67.2-52.4 136.48-101.6 207.3-147.6 17.89-11.2 35.29-23.2 53.34-34.1l54.04-32.6c18.08-10.7 36.62-20.5 54.87-30.8 9.19-5 18.21-10.3 27.53-15.1l27.96-14.1c36.99-19.5 74.96-36.3 112.6-53.7 38.37-15.5 76.3-32 115.35-44.6 19.37-6.7 38.65-13.8 58.38-18.9 19.66-5.4 39.08-11.7 58.72-16.7l59.16-13.6c9.8-2.5 19.76-3.9 29.68-5.5l29.73-4.8c9.9-1.6 19.77-3.4 29.67-4.8l29.79-2.6 29.73-2.7 14.84-1.4 14.13-.2c18.83-.2 37.58-.5 56.3-1.2 21.02.9 42.95 2.3 64.38 3.4l16.16.9 4.04.2c1.18.1-6.58-.3-2.84-.1l.97.1 1.93.2 7.71.9 30.86 3.6c20.57 2.3 41.14 4.5 61.59 7.9 20.46 3.1 40.96 5.9 61.35 9.4l61.04 11.3c81.18 16.2 161.61 35.9 240.83 59.7 79.19 23.9 156.89 52.4 233.36 83.5 76.33 31.4 151.26 66.2 223.59 105.4 72.26 39.2 142.86 81.2 210.05 127.4 67.21 46.1 131.31 96.1 190.26 149.9 59.23 53.5 113.24 111.3 156.68 172.1l8.25 11.4c2.65 3.8 4.94 7.7 7.44 11.5l14.74 23c8.32 15.5 17.74 30.8 24.14 46.1 14.14 30.4 23.68 60.6 26.55 86l.07.7c7.44 65.8 66.83 113.1 132.68 105.7 56.8-6.5 99.9-51.8 105.7-106.4 2.8-25.4 12.4-55.6 26.5-86 6.4-15.3 15.8-30.7 24.2-46.1l14.7-23c2.5-3.9 4.8-7.8 7.4-11.6l8.3-11.3 16.5-22.7 18-22.3 9-11.2 9.6-10.9 19.3-21.7c13.4-14.3 27-28.4 41-42.4 14.5-13.5 28.2-27.8 43.2-41 59-53.8 123.1-103.8 190.3-149.9 67.2-46.2 137.7-88.3 210-127.6 72.4-39.2 147.3-74 223.6-105.4 76.5-31 154.2-59.7 233.4-83.5 79.2-23.9 159.7-43.4 240.9-59.7l61-11.3c20.3-3.6 40.1-6.2 60.2-9.4 10.2-1.4 19.6-3.2 30.5-4.3l32.2-3.7 32.1-3.6 8.1-.9 2-.3 1-.1c1.8-.1-1.4.1-.7.1l3.7-.2 14.6-.8 58.9-3.3 59.2 1.1 14.9.2 14.8 1.4 29.8 2.7 29.8 2.7c9.9 1.4 19.7 3.2 29.6 4.7l29.8 4.8c9.9 1.6 19.9 3 29.7 5.6l59.1 13.6c19.7 5 39.1 11.2 58.8 16.7 19.7 5.1 39 12.1 58.4 18.9 39 12.6 77 29.1 115.3 44.6 37.7 17.4 75.7 34.2 112.7 53.7l27.9 14.1c9.3 4.8 18.4 10.1 27.6 15.1 18.2 10.3 36.7 20.2 54.8 30.9l54.1 32.6c18 10.9 35.4 22.8 53.3 34 70.8 46.1 140.1 95.4 207.3 147.7 67.4 52.1 132.9 107 197.2 163.6 64.1 56.9 126.8 115.7 187.8 176.4 61.4 60.4 120.6 123.1 177.9 187.9"
          ></path>
          <path
            fill="#100f0d"
            fillOpacity="1"
            fillRule="nonzero"
            stroke="none"
            d="M6889.21 8050.1c89.8-24.5 180.72-43.7 272.13-55.7 91.16-12.1 183.22-17.5 272.15-9.4 44.34 4.3 87.79 12.4 128 25.9 40.14 13.5 76.69 33.2 105.09 59.4l10.47 9.9c3.73 3 6.17 7.3 9.33 10.8l9.06 10.9c2.95 3.7 5.1 8 7.71 11.9l7.59 11.8c2.25 4.2 4 8.7 6.06 12.9l6.04 12.8 5.42 14.7c3.38 10.4 5.57 17.7 8.45 28.9 2.84 10.1 5.17 20.9 7.68 31.5 4.62 21.7 8.99 43.6 12.86 66.1 15.78 89.6 29.29 182.2 45.48 274.7 15.94 92.6 35.29 185.4 58.17 277.9 11.67 46.1 24.13 92.3 38.05 138.1 14.23 45.7 29.24 91.3 45.85 136.5 16.79 45.1 34.31 90.1 53.96 134.4 9.44 22.3 19.93 44.2 30.17 66.1 10.82 21.8 21.38 43.6 32.87 65.1 45.41 86 96.56 169.7 154.86 248.7 58.22 79 122.74 153.9 193.5 222.6 70.65 68.7 146.65 132.3 227.56 188.6 80.77 56.6 165.78 106.7 253.59 150.6 87.73 44.1 178.56 81.1 270.77 112.7 92.24 31.6 185.95 57.7 280.35 79.3 94.5 21.1 189.79 36.7 285.16 49.3 95.42 12.4 191.02 19.9 286.51 25.6 3.8.2 7.5.2 11.2 0h.7c95.6-5.6 191.2-13.2 286.6-25.5 95.4-12.6 190.6-28.3 285.2-49.2 94.4-21.6 188.1-47.7 280.4-79.3 92.1-31.8 183.1-68.5 270.8-112.6 87.8-43.9 172.8-94.1 253.6-150.7 80.9-56.3 157-119.8 227.6-188.6 70.8-68.7 135.3-143.7 193.6-222.6 58.3-79 109.5-162.7 154.9-248.8 45.6-86 83.7-175.2 117-265.6 16.6-45.2 31.6-90.8 45.8-136.5 14-45.8 26.5-91.9 38.1-138.1 22.9-92.5 42.2-185.3 58.2-277.9 16.2-92.6 29.6-185.2 45.4-274.8 7.9-44.5 16.7-89.1 29.3-127.3l2.5-6.9 1.2-3.5.6-1.7c.4-1-2.5 5-1 2l.5-1 7.5-15.7c2.4-5.1 5-11 7.4-15.3 2.4-3.4 4.6-6.8 6.8-10.3 2.4-3.5 4.1-7.1 6.9-10.8l9.1-10.8c3.2-3.5 5.6-7.8 9.3-10.8l10.5-9.9c28.3-26.2 64.8-45.9 105-59.4 40.1-13.5 83.6-21.6 127.9-25.9 88.9-8.2 181-2.8 272.1 9.3 91.4 11.9 182.4 31.1 272.2 55.6-42.6-19-86.3-35.5-130.6-50.6-44.2-15.1-89.1-28.7-134.6-40.6-91.2-23-185-39.6-281.9-40.5-48.5-.4-97.8 3.2-147.2 14.9-49.1 11.6-98.8 31.5-142.4 64.4l-16.1 12.7c-5.6 4-10 9.4-15 14.1l-14.5 14.7c-4.8 5.2-9.2 11.6-13.7 17.4l-13.3 18.1c-3.6 5.6-6 10.2-9.1 15.4l-8.8 15-.6 1c1.1-2.4-2.1 4.2-2 4l-1 2.2-2.2 4.6-4.2 9.2c-20.7 48.6-33.3 94.8-45.7 140.9-23.9 91.9-43.7 182.2-66.4 271.4-22.4 89.2-46.2 177.3-73.8 263.7-13.9 43.2-28.9 85.9-44.2 128.3-15.7 42.2-32.1 84-49.9 125.2-35.6 82.2-75.5 162-120.2 238.5-44.9 76.3-94.4 149.5-149.7 217.6-55 68.3-114.2 132.9-179 191.3-64.7 58.6-133.9 111.9-206.5 160.2-72.7 48.2-149.3 90.9-228.7 128-79.5 37-161.5 69.5-245.5 96.8-84 27.3-169.9 49.8-257 68.4-87.1 18.4-175.4 32.8-264.3 44-88.9 11.1-178.8 17.5-268.7 22.6h11.8c-89.95-4.9-179.77-11.4-268.74-22.6-88.94-11.1-177.19-25.6-264.36-43.8-87.05-18.6-172.95-41.1-256.97-68.5-84.01-27.3-166.02-59.6-245.53-96.6-79.43-37.2-156.01-79.8-228.74-128-72.61-48.4-141.98-101.5-206.56-160.2-64.89-58.4-124.01-123.2-179.11-191.4-55.29-68.1-104.77-141.3-149.65-217.7-44.69-76.5-84.79-156.2-120.3-238.5-35.44-82.4-66.18-167.2-94.05-253.5-27.68-86.4-51.41-174.5-73.83-263.7-22.73-89.2-42.38-179.5-66.35-271.5-5.98-22.9-12.65-46.1-19.74-69.4-3.85-11.8-7.41-23.5-11.83-35.4-3.81-11.1-9.58-25.6-14.5-36.9l-3.68-7.9-1.83-3.9-.92-2s-1.5-3.3-1.17-2.5l-.64-1.1-10.25-18c-3.51-5.9-6.75-12-10.55-17.7l-12.52-16.6c-4.3-5.4-8.17-11.2-12.87-16.2l-14.52-14.8c-5.02-4.6-9.42-10-14.97-14.1l-16.1-12.6c-43.55-32.9-93.23-52.8-142.33-64.4-49.29-11.7-98.67-15.3-147.08-15-96.94.9-190.74 17.5-281.87 40.5-45.53 11.9-90.4 25.5-134.67 40.6-44.28 15-87.99 31.5-130.56 50.5"
          ></path>
          <path
            fill="#100f0d"
            fillOpacity="1"
            fillRule="nonzero"
            stroke="none"
            d="M12423.4 10082.9c0-248.6-201.4-450-450-450-248.5 0-450 201.4-450 450 0 248.5 201.5 450 450 450 248.6 0 450-201.5 450-450"
          ></path>
          <path
            fill="#fff"
            fillOpacity="1"
            fillRule="nonzero"
            stroke="none"
            d="M12222.9 10282.3c0-66-53.5-119.4-119.5-119.4s-119.4 53.4-119.4 119.4 53.4 119.5 119.4 119.5 119.5-53.5 119.5-119.5"
          ></path>
          <path
            fill="#100f0d"
            fillOpacity="1"
            fillRule="nonzero"
            stroke="none"
            d="M8517.48 10082.9c0-248.6-201.47-450-450-450s-450 201.4-450 450c0 248.5 201.47 450 450 450s450-201.5 450-450"
          ></path>
          <path
            fill="#fff"
            fillOpacity="1"
            fillRule="nonzero"
            stroke="none"
            d="M8316.95 10282.3c0-66-53.49-119.4-119.47-119.4-65.98 0-119.47 53.4-119.47 119.4s53.49 119.5 119.47 119.5c65.98 0 119.47-53.5 119.47-119.5"
          ></path>
          <path
            fill="#100f0d"
            fillOpacity="1"
            fillRule="nonzero"
            stroke="none"
            d="M11142 9512.7c0-339.1-502.3-928.5-1121.9-928.5-619.63 0-1121.93 589.4-1121.93 928.5s502.3 613.9 1121.93 613.9c619.6 0 1121.9-274.8 1121.9-613.9"
          ></path>
          <path
            fill="#fff"
            fillOpacity="1"
            fillRule="nonzero"
            stroke="none"
            d="M5868.09 5408.5s99.71-419.6 595.85-166.3c496.15 253.3 325.78 2206.6-1464.04 1915-1789.81-291.7-1263.01-1951.3-1067.48-2188.3 142.19-172.3 799.38-214.8 799.38 314.9 0 0-53.13-476.5 617.58-476.5s518.71 601.2 518.71 601.2"
          ></path>
          <path
            fill="#100f0d"
            fillOpacity="1"
            fillRule="nonzero"
            stroke="none"
            d="M4851 5249.4c4.35-122.3 76.15-322.1 498.38-322.1 167.34 0 284.73 41.4 348.9 123 100.66 128 53.81 327.3 53.33 329.3-.04.2-.22.9-.27 1.1-15.26 64.2 24.11 128.6 88.15 144.3 64.08 15.7 128.78-23.2 144.93-87.1.04-.2.11-.4.17-.7 6.93-26.5 48.41-156.3 194.49-156.3 64.23 0 141.71 23 230.3 68.2 139.02 70.9 229.86 416.4 137.93 798.7-51.84 215.5-291.52 919-1198.96 919-104.21 0-214.95-9.5-329.15-28.1-586.38-95.5-961.51-350.9-1114.97-759-193.46-514.4 27.17-1121 120.75-1234.4 24.15-29.3 119.06-72.6 246.1-72.6 120.53 0 324.25 36.6 339.77 280.4-.31 23.8 1.19 39.5 1.69 44 7.06 63.2 62.35 110 125.92 106.5 63.59-3.6 113.34-56.1 113.34-119.8 0-11.6-.27-23.1-.8-34.4zm498.38-562.1c-277.3 0-482.57 74.9-610.1 222.7-3.41 4-6.73 8-9.96 11.9-101.74-120-261.42-189.2-458.24-189.2-181.86 0-351.12 62.8-431.23 159.9-71.64 86.8-167.06 297.7-218.7 573.1-42.43 226.2-66.73 565.7 58.44 898.5 85.81 228.2 229.53 419.6 427.17 569.1 223.66 169.1 517.66 284.2 873.84 342.3 126.92 20.7 250.65 31.2 367.75 31.2 398.13 0 731.78-117.1 991.67-347.9 272.27-241.7 389.9-544 440.64-755 114.14-474.6 1.43-934-262.16-1068.6-122.7-62.6-236.89-94.4-339.42-94.4-78.38 0-144.58 17.9-199.84 46.3-17.37-62.6-46.16-126.5-92.18-185.1-111.98-142.5-292.88-214.8-537.68-214.8"
          ></path>
          <g transform="scale(1.03258)">
            <path
              fill="#fff"
              fillOpacity="1"
              fillRule="nonzero"
              stroke="none"
              d="M13725.9 5237.87s-96.6-406.36-577.1-161.06c-480.5 245.31-315.6 2136.99 1417.8 1854.59 1733.4-282.5 1223.2-1889.74 1033.8-2119.26-137.7-166.87-774.2-208.03-774.2 304.96 0 0 51.5-461.46-598-461.46s-502.3 582.23-502.3 582.23"
            ></path>
          </g>
          <g transform="scale(1.01145)">
            <path
              fill="#100f0d"
              fillOpacity="1"
              fillRule="nonzero"
              stroke="none"
              d="M14012.5 5465.73c9.4 0 19-1.09 28.5-3.46 63.1-15.62 102-79.1 87-142.47-.1-.5-.3-1.38-.5-1.88-.2-1.18-46.6-198.23 53-324.78 63.3-80.68 179.4-121.61 344.9-121.61 417.4 0 488.4 197.54 492.7 318.36-.5 11.17-.8 22.64-.8 34.11 0 62.98 49.2 114.88 112.1 118.44 63 3.36 117.6-42.81 124.5-105.29.5-4.45 2-19.98 1.7-43.5 15.3-241.05 216.7-277.23 335.9-277.23 125.6.1 219.4 42.81 243.3 71.78 92.6 112.11 310.7 711.85 119.4 1220.42-151.7 403.49-522.7 655.99-1102.4 750.41-112.8 18.39-222.4 27.79-325.4 27.79-897.1 0-1134.1-695.54-1185.4-908.6-90.9-377.98-1.1-719.57 136.4-789.66 87.6-44.79 164.1-67.43 227.7-67.43 144.5 0 185.5 128.63 192.3 154.63l.1.59c13.7 53.59 62 89.38 115 89.38zm512.9-831.48c-242 0-420.9 71.48-531.6 212.37-45.5 57.93-74 121.11-91.2 183-54.6-28.08-120-45.78-197.5-45.78-101.3 0-214.2 31.44-335.7 93.34-260.5 133.08-372 587.27-259.1 1056.5 50.1 208.62 166.5 507.49 435.6 746.46 257 228.18 586.9 343.96 980.5 343.96 115.8 0 238.1-10.38 363.5-30.85 352.2-57.44 642.9-171.24 864.1-338.42 195.3-147.81 337.5-337.04 422.3-562.66 123.7-329.03 99.7-664.69 57.8-888.33-51.1-272.28-145.5-480.8-216.3-566.61-79.2-96.01-246.5-158-426.3-158.1h-.1c-194.6 0-352.4 68.42-453 187.06-3.2-3.95-6.4-7.81-9.8-11.76-126.1-146.13-329-220.18-603.2-220.18"
            ></path>
          </g>
          <path
            fill="#100f0d"
            fillOpacity="1"
            fillRule="nonzero"
            stroke="none"
            d="M9900.09 7872.8l120.01 1760.1 120-1760.1c4.5-66.3-45.6-123.7-111.8-128.2-66.3-4.5-123.69 45.5-128.21 111.8-.36 5.3-.31 11.2 0 16.4"
          ></path>
          <path
            fill="#f57385"
            fillOpacity="1"
            fillRule="nonzero"
            stroke="none"
            d="M11050.6 6721.4c-500 350.8-1030.1 65.3-1030.1 65.3s-530.06 285.5-1030.05-65.3c-499.95-350.6-589.37-1897.7 1029.85-1898h.5c1619.2.3 1529.7 1547.4 1029.8 1898"
          ></path>
          <path
            fill="#100f0d"
            fillOpacity="1"
            fillRule="nonzero"
            stroke="none"
            d="M9543.5 6776.3c-176.46 0-339.35-51.5-484.14-153.1-206.7-145-348.69-586.3-221.95-987.9 140.82-446.1 560.92-691.8 1182.89-691.9h1.5c621.4.3 1041.1 246.1 1181.8 691.9 126.8 401.6-15.2 842.9-221.9 987.9-144.8 101.6-307.7 153.1-484.1 153.1-236.8 0-418.4-94.3-420.2-95.2-35.5-19.1-78.25-19.1-113.76 0-1.43.7-182.6 95.2-420.14 95.2zm477.3-2072.9h-.3c-389.35 0-712.58 85.3-960.94 253.5-216.05 146.3-372.01 355.9-451.02 606.2-72.21 228.8-78.28 486.1-17.08 724.7 59.72 232.8 180.03 426.6 330.08 531.9 185.95 130.4 395.21 196.6 621.96 196.6 215 0 390.93-60.9 477-97.3 86.1 36.4 262 97.3 477.1 97.3 226.7 0 436-66.2 621.9-196.6 150.1-105.3 270.4-299.1 330.1-531.9 61.2-238.6 55.1-495.9-17.1-724.7-79-250.3-235-459.9-451-606.2-248.4-168.2-571.6-253.5-960.7-253.5"
          ></path>
          <path
            fill="#100f0d"
            fillOpacity="1"
            fillRule="nonzero"
            stroke="none"
            d="M10140.5 6786.7l-120-1538.5-119.98 1538.5c-5.16 66.3 44.37 124.2 110.68 129.4 66.2 5.2 124.2-44.4 129.3-110.6.5-6.1.4-12.8 0-18.8"
          ></path>
        </g>
      </g>
    </svg>