<svg
      xmlns="http://www.w3.org/2000/svg"
      width="2666.667"
      height="2666.667"
      version="1.1"
      viewBox="0 0 2666.667 2666.667"
      xmlSpace="preserve"
    >
      <g transform="matrix(1.33333 0 0 -1.33333 0 2666.667)">
        <g transform="scale(.1)">
          <g transform="scale(1.22699)">
            <path
              fill="#82bc0000"
              fillOpacity="1"
              fillRule="nonzero"
              stroke="none"
              d="M16300 0H0v16300h16300V0"
            ></path>
          </g>
          <path
            fill="#e3bb77"
            fillOpacity="1"
            fillRule="nonzero"
            stroke="none"
            d="M12701.3 6878.5c1563.3 1052.8 1850.6 3773.7 1291.4 5364.7-794.3 2259.8-3971.3 1572-3971.3 1572s-3177.05 687.8-3971.31-1572c-559.21-1591-271.93-4311.9 1291.47-5364.7"
          ></path>
          <path
            fill="#100f0d"
            fillOpacity="1"
            fillRule="nonzero"
            stroke="none"
            d="M7341.45 6758.5c-23.06 0-46.35 6.6-66.92 20.5-388.39 261.5-717.38 631.5-977.83 1099.8-235.28 423-408.43 913.3-514.63 1457.2-197.01 1009-139.14 2110.7 154.8 2947 190.5 541.9 528.86 966.3 1005.69 1261.2 377.15 233.3 840.2 385.2 1376.29 451.5 824.9 102.1 1556.38-29 1702.55-58 146.1 29 877.6 160.1 1702.5 58 536.1-66.3 999.2-218.2 1376.3-451.5 476.8-294.9 815.2-719.3 1005.7-1261.2 293.9-836.3 351.8-1938 154.8-2947-106.2-543.9-279.3-1034.1-514.6-1457.1-260.4-468.3-589.4-838.4-977.8-1099.9-55-37-129.6-22.5-166.6 32.5s-22.4 129.5 32.5 166.5c684.3 460.8 1178.2 1314.6 1391 2404 189.1 968.9 134.7 2023.6-145.7 2821.4-312.5 889-1045.6 1411.6-2179.1 1553.4-863.8 108-1645.9-57.2-1653.7-58.9-16.7-3.6-34-3.6-50.71 0-7.75 1.7-789.85 166.9-1653.59 58.9-1133.49-141.8-1866.65-664.4-2179.11-1553.4-280.39-797.8-334.85-1852.5-145.67-2821.4 212.72-1089.4 706.71-1943.2 1390.97-2404 54.97-37 69.52-111.6 32.51-166.5-23.17-34.4-61.07-53-99.65-53"
          ></path>
          <path
            fill="#353b35"
            fillOpacity="1"
            fillRule="nonzero"
            stroke="none"
            d="M9339.02 10729.6c3.52 17.5 262.65 2087.5-493.62 2003.5-1137.37-126.4-3068.27-2341.8-888.12-2961.8l1381.74 958.3"
          ></path>
          <path
            fill="#353b35"
            fillOpacity="1"
            fillRule="nonzero"
            stroke="none"
            d="M10703.7 10729.6c-3.5 17.5-262.6 2087.5 493.7 2003.5 1137.3-126.4 3068.2-2341.8 888.1-2961.8l-1381.8 958.3"
          ></path>
          <path
            fill="#353b35"
            fillOpacity="1"
            fillRule="nonzero"
            stroke="none"
            d="M12994.6 6878.5c300.4 736.5 346 1779.2 172.8 2524.3-363.6 1564.1-3146 1501-3146 1501s-2782.42 63.1-3146.03-1501c-173.21-745.1-127.58-1787.9 172.76-2524.3"
          ></path>
          <path
            fill="#100f0d"
            fillOpacity="1"
            fillRule="nonzero"
            stroke="none"
            d="M7048.18 6758.5c-47.34 0-92.19 28.2-111.16 74.7-293.35 719.2-366.76 1787.1-178.53 2596.8 89.94 386.8 323.42 711.9 693.96 966.1 288.08 197.7 659.52 352.6 1104 460.4 731.96 177.5 1409.47 168.4 1464.95 167.4 55.5 1 733 10.1 1464.9-167.4 444.5-107.8 815.9-262.7 1104-460.4 370.6-254.2 604-579.3 694-966.1 188.2-809.7 114.8-1877.5-178.5-2596.8-25.1-61.3-95.1-90.8-156.5-65.8-61.3 25.1-90.8 95.1-65.8 156.5 276.4 677.6 345.1 1685.8 167 2451.7-139.4 599.9-683.3 1019.3-1616.3 1246.6-717.6 174.7-1403.3 161.8-1410.1 161.7-1.8-.1-3.6-.1-5.4 0-6.9.1-692.49 13-1410.11-161.7-933.07-227.3-1476.88-646.7-1616.33-1246.6-178.06-765.9-109.39-1774.1 166.99-2451.8 25.02-61.3-4.43-131.4-65.8-156.4-14.83-6-30.19-8.9-45.27-8.9"
          ></path>
          <path
            fill="#353b35"
            fillOpacity="1"
            fillRule="nonzero"
            stroke="none"
            d="M7248.38 13230.6c-1625.3-666.8-595.25-2831-1184.76-4092.7-589.51-1261.7-891.36 434.1-1544.69 1290.7s-174.22 1379.2 1175.99 2453.6c1350.2 1074.3 2299.8 802.4 2299.8 802.4s-710-130-696.67-416.7l-49.67-37.3"
          ></path>
          <path
            fill="#100f0d"
            fillOpacity="1"
            fillRule="nonzero"
            stroke="none"
            d="M5657.91 8566.6c-287.71 0-482.44 396.8-728.82 898.8-146.91 299.3-313.42 638.5-505.58 890.4-352.97 462.8-406.26 856.4-172.78 1276.2 212.19 381.6 662.81 781.8 1369.47 1344.1 1377.17 1095.8 2319.48 936.9 2358.93 929.6 65.16-12.1 108.21-74.7 96.15-139.9-12.04-65-74.31-107.9-139.27-96.2-4.86.8-223.05 36-594.1-52.8-346.57-83-900.67-294.1-1572.28-828.5-683.09-543.5-1116.29-926.1-1309.16-1272.9-185.56-333.7-140.98-627.5 153.87-1014 206.41-270.7 378.43-621.1 530.19-930.3 107.33-218.7 208.71-425.2 305.85-570.8 112.89-169.2 179.38-194 208.24-193.7 27.75.3 131.15 28.6 296.28 382.1 211.66 453 202.6 1056.2 193.83 1639.6-7.47 497.3-15.2 1011.5 110.23 1452.5 145.93 513.1 454.67 860.1 943.87 1060.8 61.32 25.2 131.42-4.1 156.57-65.4 25.16-61.3-4.16-131.4-65.47-156.6-933.84-383.1-919.94-1308.2-905.22-2287.7 9.17-610.5 18.66-1241.8-216.38-1744.8-103.86-222.3-269.87-518.1-511.41-520.4-.99 0-2.02-.1-3.01-.1"
          ></path>
          <path
            fill="#353b35"
            fillOpacity="1"
            fillRule="nonzero"
            stroke="none"
            d="M12794.4 13230.6c1625.3-666.8 595.2-2831 1184.8-4092.7 589.5-1261.7 891.3 434.1 1544.6 1290.7 653.4 856.6 174.3 1379.2-1175.9 2453.6-1350.3 1074.3-2262.4 808.3-2262.4 808.3s705.9-209.2 672.6-435.9l36.3-24"
          ></path>
          <path
            fill="#100f0d"
            fillOpacity="1"
            fillRule="nonzero"
            stroke="none"
            d="M14384.9 8566.6c-1.1 0-2.1.1-3.1.1-241.5 2.3-407.5 298.1-511.4 520.4-235 503-225.5 1134.3-216.3 1744.8 14.7 979.5 28.6 1904.6-905.3 2287.7-61.3 25.2-90.6 95.3-65.4 156.6 25.1 61.3 95.2 90.6 156.5 65.4 489.2-200.7 798-547.7 943.9-1060.8 125.4-441 117.7-955.2 110.2-1452.5-8.7-583.4-17.8-1186.6 193.9-1639.6 165.1-353.5 268.5-381.8 296.2-382.1h.5c29.6 0 95.5 25.5 207.8 193.7 97.1 145.6 198.5 352.2 305.8 570.8 151.8 309.2 323.8 659.6 530.2 930.3 294.9 386.5 339.4 680.3 153.9 1014-192.9 346.8-626.1 729.4-1309.2 1272.9-671.6 534.4-1225.7 745.5-1572.2 828.5-373.4 89.4-592 53.1-594.2 52.8-65.1-12.1-127.5 31-139.5 96.2-12.1 65.1 31.3 127.8 96.4 139.9 39.5 7.2 981.8 166.2 2359-929.6 706.6-562.3 1157.3-962.5 1369.4-1344.1 233.5-419.8 180.2-813.4-172.8-1276.2-192.1-251.9-358.6-591.1-505.5-890.4-246.4-502-441.2-898.7-728.8-898.8"
          ></path>
          <path
            fill="#100f0d"
            fillOpacity="1"
            fillRule="nonzero"
            stroke="none"
            d="M9901.38 8011.3l120.02 1390 120-1390c5.7-66.3-43.4-124.7-109.7-130.4-66.23-5.7-124.59 43.4-130.32 109.6-.58 6.8-.52 14.2 0 20.8"
          ></path>
          <g transform="scale(1.01289)">
            <path
              fill="#e3bb77"
              fillOpacity="1"
              fillRule="nonzero"
              stroke="none"
              d="M13143.4 6810.71s-749.2 1791.32 330.6 1726.35c0 0-138.5 588.81 291.9 679.05 430.3 90.24 604.9-108.31 613.1-228.16 0 0 127.1 437.26 499.7 398.46 372.6-38.9 432-320.86 399.1-528.78 0 0 1022.2 833.26 869.8-2046.92"
            ></path>
          </g>
          <g transform="scale(1.01306)">
            <path
              fill="#100f0d"
              fillOpacity="1"
              fillRule="nonzero"
              stroke="none"
              d="M13141.3 6691.15c-46.4 0-90.4 27.34-109.3 72.75-4.9 11.64-119.4 287.25-195.8 623.06-107.2 471.84-84.6 819.4 67.1 1033.11 98 137.9 243.1 215.79 432.6 232.37-10 128.52-3.4 318.74 91.6 467.99 70.5 110.85 175.4 181.53 311.8 210.16 318.8 66.73 505.9-10.17 606.8-86.47 5.7-4.34 11.5-8.89 16.9-13.43 102.3 153.5 274.8 298.11 525.5 271.95 179.2-18.65 315.4-87.36 405.1-204.13 60.2-78.18 89-164.85 100.8-245.1 108.6 38.3 250.7 56.36 394.8-16.78 177.9-90.42 308.8-299.3 388.9-620.9 93.3-374.81 121.9-917.22 85.2-1612.35-3.5-65.35-59.2-115.49-124.6-112.04-65.3 3.46-115.5 59.23-112 124.58 35.4 670.25 9.2 1188.58-77.9 1540.49-61.7 248.65-153.6 410.63-265.8 468.48-154.5 79.46-331.6-59.42-333.4-60.91-38.1-30.99-91.1-35.14-133.6-10.65-42.6 24.48-65.4 72.84-57.8 121.41 8.4 52.61 19.9 185.28-52.4 279.45-48.6 63.17-129.9 101.18-241.9 112.83-270.8 28.33-372.5-310.15-373.5-313.61-16.1-55.08-69.4-90.72-126.4-84.69-57.1 6.12-101.6 52.41-105.5 109.67-.7 10.26-12.1 44.02-55.4 76.79-50.5 38.21-171.4 94.57-415.2 43.53-72.4-15.2-124.8-49.55-160.2-105.02-84.3-131.88-57.9-355.96-40.5-431.17 8.4-36.43-.9-74.73-25-103.26-24.1-28.52-60.3-44.12-97.5-41.85-176 10.66-296.4-33.37-368.2-134.44-228.7-322.2 33.7-1139.73 154-1427.67 25.3-60.31-3.1-129.71-63.6-154.97-14.9-6.22-30.4-9.18-45.6-9.18"
            ></path>
          </g>
          <path
            fill="#f57385"
            fillOpacity="1"
            fillRule="nonzero"
            stroke="none"
            d="M13835.5 8144.6c0-130.3-105.6-235.9-235.8-235.9-130.3 0-235.9 105.6-235.9 235.9 0 130.2 105.6 235.8 235.9 235.8 130.2 0 235.8-105.6 235.8-235.8"
          ></path>
          <path
            fill="#f57385"
            fillOpacity="1"
            fillRule="nonzero"
            stroke="none"
            d="M14366.9 8870.7c0-130.3-105.6-235.9-235.9-235.9-130.2 0-235.8 105.6-235.8 235.9 0 130.2 105.6 235.8 235.8 235.8 130.3 0 235.9-105.6 235.9-235.8"
          ></path>
          <path
            fill="#f57385"
            fillOpacity="1"
            fillRule="nonzero"
            stroke="none"
            d="M15259.8 9011.1c0-130.2-105.6-235.8-235.8-235.8-130.3 0-235.9 105.6-235.9 235.8 0 130.3 105.6 235.9 235.9 235.9 130.2 0 235.8-105.6 235.8-235.9"
          ></path>
          <path
            fill="#f57385"
            fillOpacity="1"
            fillRule="nonzero"
            stroke="none"
            d="M15906.6 8530.9c0-130.2-105.6-235.8-235.8-235.8-130.3 0-235.9 105.6-235.9 235.8 0 130.3 105.6 235.9 235.9 235.9 130.2 0 235.8-105.6 235.8-235.9"
          ></path>
          <path
            fill="#f57385"
            fillOpacity="1"
            fillRule="nonzero"
            stroke="none"
            d="M15495.2 7883.2c39.4-291.9-267-436.1-661.6-489.4-394.7-53.2-728.3 4.8-767.6 296.7-39.4 291.9 227.6 727.5 622.3 780.7 394.7 53.2 767.5-296.1 806.9-588"
          ></path>
          <path
            fill="#353b35"
            fillOpacity="1"
            fillRule="nonzero"
            stroke="none"
            d="M8611.64 6878.6c213.87 510.5 982.16 1219.7 1409.76 1219.7s1195.9-709.3 1409.7-1219.8"
          ></path>
          <path
            fill="#100f0d"
            fillOpacity="1"
            fillRule="nonzero"
            stroke="none"
            d="M11431.2 6758.5c-46.9 0-91.5 27.7-110.7 73.7-206.4 492.7-947 1146.1-1299.1 1146.1-352.07 0-1092.65-653.4-1299.08-1146.1-25.61-61.1-95.9-89.9-157.05-64.3-61.13 25.6-89.92 95.9-64.31 157 110.08 262.8 355.25 578.6 655.85 844.8 152.29 134.9 541.41 448.6 864.59 448.6 323.2 0 712.3-313.7 864.6-448.6 300.6-266.2 545.8-582 655.8-844.8 25.6-61.1-3.2-131.4-64.3-157-15.1-6.4-30.9-9.4-46.3-9.4"
          ></path>
          <path
            fill="#100f0d"
            fillOpacity="1"
            fillRule="nonzero"
            stroke="none"
            d="M11415.1 10265c0-432.9-624-1422.6-1393.7-1422.6-769.77 0-1393.78 989.7-1393.78 1422.6 0 432.8 624.01 667.5 1393.78 667.5 769.7 0 1393.7-234.7 1393.7-667.5"
          ></path>
          <path
            fill="#100f0d"
            fillOpacity="1"
            fillRule="nonzero"
            stroke="none"
            d="M8982.45 11253.4c0-248.5-201.47-450-450-450s-450 201.5-450 450c0 248.6 201.47 450 450 450s450-201.4 450-450"
          ></path>
          <path
            fill="#fff"
            fillOpacity="1"
            fillRule="nonzero"
            stroke="none"
            d="M8781.92 11452.9c0-66-53.48-119.5-119.47-119.5-65.98 0-119.47 53.5-119.47 119.5s53.49 119.5 119.47 119.5c65.99 0 119.47-53.5 119.47-119.5"
          ></path>
          <path
            fill="#100f0d"
            fillOpacity="1"
            fillRule="nonzero"
            stroke="none"
            d="M11960.3 11253.4c0-248.5-201.5-450-450-450s-450 201.5-450 450c0 248.6 201.5 450 450 450s450-201.4 450-450"
          ></path>
          <path
            fill="#fff"
            fillOpacity="1"
            fillRule="nonzero"
            stroke="none"
            d="M11759.8 11452.9c0-66-53.5-119.5-119.5-119.5s-119.5 53.5-119.5 119.5 53.5 119.5 119.5 119.5 119.5-53.5 119.5-119.5"
          ></path>
          <path
            fill="#e3bb77"
            fillOpacity="1"
            fillRule="nonzero"
            stroke="none"
            d="M5978.64 6710s237.06-448.7 669.9-93.8 162.68 2214.9-1572.24 1855C3341.38 8111.3 3780.35 6517 4010.87 6294.1c230.51-222.8 692.45-344.8 831.48 291.2 0 0-67.32-638.7 605.86-471.4 673.17 167.4 567.68 427.5 530.43 596.1"
          ></path>
          <path
            fill="#100f0d"
            fillOpacity="1"
            fillRule="nonzero"
            stroke="none"
            d="M4842.23 6705.3c6.35 0 12.79-.5 19.25-1.6 62.89-10.1 106.89-67.7 100.21-131-4.96-51.5-.71-205.4 78.21-292.3 45.45-50 111.85-74.4 202.96-74.4h.04c51.89 0 111.22 8.2 176.37 24.4 304.49 75.7 411.33 163.6 447.35 223.9 32.78 55 22.72 111.4 2.25 197.8-2.6 11-5.12 21.6-7.41 32-12.96 58.6 19.44 117.8 75.82 138.5 56.37 20.7 119.38-3.4 147.45-56.5.57-1.1 92.47-166.5 243.92-166.5 73.23 0 155.26 36.8 243.81 109.4 139.07 114 196.62 513.5 56.86 904.3-84.26 235.7-363.13 783.8-1130.8 783.8-124.91 0-258.77-14.6-397.84-43.4-623.36-129.4-1008.03-431.7-1143.32-898.7-146.77-506.6 55.36-995.8 136.91-1074.6 93.14-90.1 214.46-146 316.64-146 191.68 0 276.67 204.7 314.21 376.5 12.21 55.8 61.65 94.4 117.11 94.4zm400.66-739.3h-.04c-161.15 0-289.66 52-381.95 154.5-21.46 23.9-39.71 49.1-55.22 75.1-127.43-168.4-288.69-201.2-394.77-201.2-164.49 0-345.22 79.8-483.45 213.4-158.47 153.2-367.03 739.5-200.62 1314 111.36 384.4 431.65 881.5 1325.09 1066.9 155.08 32.1 305.34 48.4 446.59 48.4 349.87 0 651.48-97.3 896.44-289.1 205.9-161.3 365.08-387.4 460.35-653.9 78.29-218.9 109.77-457.3 88.65-671.2-22.13-224.3-100.03-401.7-219.33-499.5-132.58-108.7-265.8-163.8-395.98-163.8-84.5 0-157.29 22.8-218.37 55.7-8.56-27.6-20.74-55.7-37.53-83.9-88.8-148.9-278.05-255-595.59-333.9-84.07-20.9-162.89-31.5-234.27-31.5"
          ></path>
        </g>
      </g>
    </svg>