<svg
      xmlns="http://www.w3.org/2000/svg"
      width="2666.667"
      height="2666.667"
      version="1.1"
      viewBox="0 0 2666.667 2666.667"
      xmlSpace="preserve"
    >
      <g transform="matrix(1.33333 0 0 -1.33333 0 2666.667)">
        <g transform="scale(.1)">
          <g transform="scale(1.22699)">
            <path
              fill="#82bc0000"
              fillOpacity="1"
              fillRule="nonzero"
              stroke="none"
              d="M16300 0H0v16300h16300V0"
            ></path>
          </g>
          <path
            fill="#d6791a"
            fillOpacity="1"
            fillRule="nonzero"
            stroke="none"
            d="M14542.6 7219.5s689.7 6311.7-4542.6 6311.7c-5232.29 0-4542.59-6311.7-4542.59-6311.7"
          ></path>
          <path
            fill="#fff"
            fillOpacity="1"
            fillRule="nonzero"
            stroke="none"
            d="M12314.2 10117.4c-1028.9 143.8-1471.7 1767.5-1471.7 1767.5s-599.5 1056.3-440.4 1637.8c-130.2 7.8-264.2 11.8-402.1 11.8-137.92 0-271.87-4-402.07-11.8 159.04-581.5-440.45-1637.8-440.45-1637.8s-442.78-1623.7-1471.64-1767.5c-1028.85-143.7-1122.31-2897.9-1122.31-2897.9h6872.97s-93.5 2754.2-1122.3 2897.9"
          ></path>
          <path
            fill="#62312d"
            fillOpacity="1"
            fillRule="nonzero"
            stroke="none"
            d="M14542.7 7099.5c-4.3 0-8.7.2-13.1.7-65.9 7.2-113.5 66.4-106.3 132.3 1 9.7 83.6 795.6-34.7 1792.6-108.5 914-412.8 2198.6-1246.7 3128.1-748.9 834.7-1806 1258-3141.9 1258-1336.3 0-2393.62-423.5-3142.58-1258.8-834.76-930.9-1138.72-2217.7-1246.72-3133.2-117.64-997.3-34.85-1778.9-34-1786.7 7.2-65.9-40.37-125.1-106.26-132.3-65.84-7.3-125.12 40.4-132.32 106.3-3.59 32.8-86.57 816.7 34.23 1840.8 71.09 602.6 198.66 1162.2 379.17 1663.2 227.03 630.2 538.99 1169.2 927.22 1602.2 796.42 888.1 1913.86 1338.5 3321.26 1338.5 1407.4 0 2524.8-450.4 3321.3-1338.5 388.2-433 700.1-972 927.2-1602.2 180.5-501 308.1-1060.6 379.1-1663.2 120.8-1024.1 37.9-1808 34.3-1840.8-6.7-61.5-58.7-107-119.2-107"
          ></path>
          <path
            fill="#62312d"
            fillOpacity="1"
            fillRule="nonzero"
            stroke="none"
            d="M12189.5 9313.6c-929.7 532-2095 515.9-2179.8 514-84.84 1.9-1250.1 18-2179.81-514 0 0-137.37-1512.8 2175.41-1516.6v-.1h8.8v.1c2312.8 3.8 2175.4 1516.6 2175.4 1516.6"
          ></path>
          <path
            fill="#fff"
            fillOpacity="1"
            fillRule="nonzero"
            stroke="none"
            d="M12361.5 10109.5c-805.4 203.7-584 1963.3-2351.8 1963.3-1767.82 0-1546.35-1759.6-2351.81-1963.3"
          ></path>
          <path
            fill="#62312d"
            fillOpacity="1"
            fillRule="nonzero"
            stroke="none"
            d="M12361.5 10109.5s-6.3 1.2-18.5 3.5c-6.1 1.2-13.7 2.3-22.6 4.4-9 2.4-19.3 5.1-31.1 8.2-11.6 3.6-24.3 8.2-38.6 13-6.9 2.9-14.2 5.9-21.7 9-7.6 3.1-15.6 6.4-23.4 10.5-32.5 14.7-67.8 36.2-105 63.6-74.7 54.5-152.9 137.3-227.2 240.8-37.5 51.6-73.9 108.4-110.9 168.7-36.9 60.3-73.4 124.5-111.5 190.9-38.1 66.4-76.7 135.5-118.5 205.2-41.6 69.9-85.2 140.8-133.3 210.7-48.1 69.8-99.8 138.8-157.1 204.6-58 64.8-119.6 128.1-188.8 183.7-34 28.5-70.7 53.9-107.4 79.4-9.4 6.1-18.8 12.2-28.3 18.2l-14.2 9.1-14.5 8.6-29.1 17.1-29.9 16c-19.7 11.1-40.6 20.2-61 30.3-10.3 4.9-20.9 9.2-31.3 13.8-10.5 4.5-20.8 9.4-31.6 13.3-21.5 8.1-42.6 17.3-64.6 24.4l-32.7 11.4-33.4 10.1c-89.1 27-181.9 45.3-276.7 57.6-23.8 2.6-47.5 5.6-71.4 7.9-24.1 1.7-48 3.9-72.1 5.4l-72.5 3-71 .9-76.44-1-71.03-3c-23.74-1.4-47.94-3.6-71.87-5.4-23.92-2.2-47.64-5.3-71.45-7.8-94.75-12.4-187.59-30.9-276.67-57.7l-33.34-10.1-32.73-11.5c-22-7.1-43.12-16.2-64.53-24.4-10.81-3.9-21.09-8.9-31.63-13.3-10.43-4.7-21.04-8.9-31.33-13.8-20.34-10.2-41.23-19.2-60.94-30.3l-29.89-16-29.12-17.2-14.54-8.5-14.17-9.1c-9.44-6.1-18.86-12.1-28.27-18.2-36.68-25.6-73.34-50.9-107.34-79.5-69.26-55.4-130.71-118.8-188.73-183.7-57.24-65.7-109.1-134.6-157.04-204.5-48.12-69.9-91.85-140.8-133.35-210.6-41.74-69.8-80.46-138.8-118.47-205.3-38.18-66.3-74.68-130.5-111.55-190.8-36.98-60.3-73.47-117.2-110.99-168.7-74.36-103.5-152.54-186.3-227.29-240.8-37.24-27.4-72.49-48.9-105.01-63.6-7.88-4.1-15.82-7.3-23.42-10.4-7.57-3.2-14.82-6.2-21.75-9-14.27-4.8-27-9.5-38.61-13-11.7-3.1-22.04-5.8-30.97-8.2-8.96-2.1-16.67-3.2-22.75-4.4-12.19-2.3-18.49-3.5-18.49-3.5s5.95 2.4 17.48 7c5.72 2.3 12.93 4.9 21.22 8.6 8.2 3.9 17.7 8.3 28.46 13.3 42.52 20.7 101.42 58.4 162.38 119.7 61.19 61.3 122.46 147.2 180.41 253.9 58.5 106.5 114.53 233.1 176.84 372.9 62.75 139.6 131.8 293 223.15 449.5 45.3 78.4 97.75 156.5 156.5 233.6 30.01 38.1 60.98 76.4 95.3 112.8 16.57 18.6 34.7 36.1 52.23 54.3 18.45 17.4 36.27 35.6 55.69 52.3 37.77 34.7 78.5 67 120.59 98 10.74 7.5 21.51 14.9 32.3 22.4l16.23 11.2 16.66 10.7c11.13 7 22.28 14.1 33.45 21.2 11.44 6.7 22.89 13.4 34.36 20 22.76 13.8 46.7 25.4 70.23 38.1 11.87 6.1 24.04 11.6 36.09 17.4 12.12 5.7 24.07 11.9 36.47 16.9 24.72 10.3 49.33 21.2 74.64 30.2l37.83 14 38.33 12.6c102.48 32.9 208.1 57.3 314.69 71.3 26.64 3.1 53.32 6.7 80.02 9.4 26.76 2.2 53.24 4.8 80.31 6.6 27.14 1.3 55 2.9 81.61 3.9l76.44 1.4 81.9-1.5c26.7-1 53.4-2.6 80.1-3.9 26.7-1.8 53.5-4.4 80.2-6.6 26.7-2.7 53.3-6.2 80-9.4 26.6-3.8 53.2-8.1 79.7-12.4 26.4-5.4 52.9-10.3 79.1-16.2 52.5-12.4 104.7-25.9 155.8-42.8l38.3-12.5 37.9-14.1c25.3-9 49.9-19.8 74.6-30.2 12.4-5.1 24.3-11.3 36.4-16.9 12.1-5.8 24.2-11.3 36.1-17.4 23.5-12.7 47.5-24.3 70.2-38.1 11.5-6.7 23-13.3 34.4-20 11.2-7.1 22.3-14.2 33.4-21.3l16.7-10.6 16.2-11.2c10.8-7.5 21.6-14.9 32.3-22.4 20.9-15.8 42.1-31 61.8-47.7 10-8.3 20-16.5 29.9-24.7 9.6-8.6 19.3-17.1 28.8-25.6 19.5-16.7 37.3-34.9 55.7-52.3 17.6-18.2 35.7-35.7 52.3-54.3 34.3-36.4 65.1-74.8 95.2-112.8 29.2-38.7 57.5-77.1 83.3-116.3 13.3-19.4 25.4-39.2 37.9-58.5 12-19.7 24-39.2 35.3-58.8 91.3-156.5 160.4-309.9 223.1-449.5 62.4-139.7 118.4-266.4 177-372.8 29-53.4 58.9-101.4 89-144 30.1-42.6 61.1-79.1 91.5-109.9 61-61.3 119.9-98.9 162.4-119.6 10.7-5 20.2-9.4 28.4-13.3 8.3-3.7 15.6-6.3 21.3-8.6 11.6-4.6 17.5-7 17.5-7"
          ></path>
          <path
            fill="#d6791a"
            fillOpacity="1"
            fillRule="nonzero"
            stroke="none"
            d="M11994.2 13050.4s252.9 355.2 557.9 229.3c304.9-125.9 2030.5-994 2368.7-2224.4 338.2-1230.4 314.6-2232.1 34.7-2519.6-279.9-287.4-190.7-2067.5-1652.4-1345.4-1046.5 516.9-985.6 1422.7-793 1875.2 192.6 452.4 883 2495.5-520.5 3641.7"
          ></path>
          <path
            fill="#62312d"
            fillOpacity="1"
            fillRule="nonzero"
            stroke="none"
            d="M13912 6898.5c-193.9 0-413.1 61.2-662 184.2-1118.2 552.3-1060.6 1535.8-850.3 2029.8 50.9 119.6 306 754.7 328.7 1517.3 25.6 854.4-248.5 1522.1-814.7 1984.5-51.3 41.9-58.9 117.5-17 168.8 41.9 51.3 117.5 59 168.8 17.1 340.7-278.3 588.8-628.6 737.5-1041.3 122.1-338.9 177.7-721.2 165.3-1136.3-24-805.6-293.9-1477.6-347.8-1604.1-109.3-256.8-132.7-569.3-62.5-835.9 98.5-374.1 367.1-671.7 798.3-884.8 327-161.5 590.6-199.5 783.4-112.9 306.6 137.6 427.1 577.1 524 930.2 62.6 228 111.9 408 205.8 504.4 54.8 56.3 182.2 249.2 180.4 822-1.4 457.5-86.1 1004.5-244.8 1582-308 1120.4-1891.6 1977.2-2298.8 2145.3-212.2 87.6-412.6-185.5-414.6-188.3-38.7-53.6-113.6-65.9-167.3-27.4-53.8 38.5-66.3 113.1-28 166.9 12.6 17.7 312.7 431 701.5 270.6 155.9-64.3 675.2-317.9 1198.4-713.2 672.5-507.9 1089.8-1043 1240.2-1590.3 164.3-597.7 251.9-1166.5 253.4-1644.8 1.1-334.3-41.2-777.4-248.5-990.3-50.7-52-99.2-229.1-146.2-400.4-104.4-380.5-247.4-901.7-657.1-1085.7-100.1-44.9-208.4-67.4-326.1-67.4"
          ></path>
          <path
            fill="#d6791a"
            fillOpacity="1"
            fillRule="nonzero"
            stroke="none"
            d="M8005.82 13050.4s-252.94 355.2-557.9 229.3c-304.96-125.9-2030.54-994-2368.73-2224.4-338.19-1230.4-314.56-2232.1-34.65-2519.6 279.91-287.4 190.64-2067.5 1652.34-1345.4 1046.48 516.9 985.63 1422.7 793.02 1875.2-192.61 452.4-883 2495.5 520.48 3641.7"
          ></path>
          <path
            fill="#62312d"
            fillOpacity="1"
            fillRule="nonzero"
            stroke="none"
            d="M6087.97 6898.5c-117.65 0-225.99 22.5-326.04 67.4-409.71 184-552.69 705.2-657.09 1085.7-46.99 171.3-95.58 348.4-146.28 400.4-207.27 212.9-249.53 656-248.48 990.3 1.49 478.3 89.12 1047.1 253.4 1644.8 150.44 547.3 567.7 1082.4 1240.21 1590.3 523.23 395.2 1042.5 648.9 1198.44 713.2 388.65 160.4 688.84-252.9 701.43-270.6 38.45-53.9 25.86-128.9-28.13-167.3-53.87-38.4-128.61-25.9-167.13 27.8-2.07 2.9-202.46 275.9-414.6 188.3-407.22-168.1-1990.84-1024.9-2298.8-2145.3-158.73-577.5-243.39-1124.5-244.82-1582-1.8-572.8 125.58-765.7 180.44-822 93.83-96.4 143.22-276.4 205.76-504.4 96.89-353.1 217.46-792.6 523.97-930.2 192.85-86.6 456.44-48.6 783.48 112.9 431.21 213.1 699.79 510.7 798.27 884.8 70.19 266.6 46.82 579.1-62.51 835.9-53.86 126.5-323.75 798.4-347.83 1604.1-12.4 415.1 43.22 797.4 165.32 1136.3 148.68 412.7 396.81 763 737.49 1041.3 51.32 41.9 126.92 34.3 168.85-17.1 41.92-51.3 34.29-126.9-17.03-168.8-566.16-462.4-840.28-1130.1-814.73-1984.5 22.79-762.6 277.86-1397.7 328.75-1517.3 210.31-494 267.88-1477.5-850.28-2029.8-248.91-123-468.12-184.2-662.06-184.2"
          ></path>
          <path
            fill="#62312d"
            fillOpacity="1"
            fillRule="nonzero"
            stroke="none"
            d="M11041.1 11367.5c0-353.2-466.1-1080.6-1041.1-1080.6-574.96 0-1041.06 727.4-1041.06 1080.6 0 353.1 466.1 470.5 1041.06 470.5 575 0 1041.1-117.4 1041.1-470.5"
          ></path>
          <path
            fill="#fff"
            fillOpacity="1"
            fillRule="nonzero"
            stroke="none"
            d="M12440 9787.4s-28.2-743-901.7-676.4c-698.4 53.3-568.7 769.6-1538.3 726.4h9.7c-969.63 43.2-839.93-673.1-1538.33-726.4-873.48-66.6-901.68 676.4-901.68 676.4"
          ></path>
          <path
            fill="#62312d"
            fillOpacity="1"
            fillRule="nonzero"
            stroke="none"
            d="M12440 9787.4c1.4-31.8-.4-63.9-4.3-95.8-3.6-31.9-9.3-63.7-16.8-95.3-15-63.1-38.6-124.9-70.1-183.3-31.1-58.8-72.4-112.9-120.5-160.8-48.3-47.9-104.5-88.2-164.9-120.7-60.4-32.7-125.5-55.6-191.4-72.3-33-9.4-66.4-14-99.9-20.1-16.8-2.2-33.5-3.9-50.3-5.9l-25.3-2.8-25.1-1.4-50.4-2.6c-16.8-.5-33.4 0-50.2.1l-25.1.3-12.6.1-14.7 1-47.4 3.3c-2 .1-3.8.2-6 .4l-6.8 1-13.5 1.8-27.1 3.8c-18.5 2.2-35.4 6.3-52.7 10l-26 5.7c-8.6 2.2-17.1 4.9-25.7 7.4-17 5.3-34.4 9.8-51 16.8-67.4 24.6-131.7 59.3-189.5 100-58 40.7-109.1 87.1-156.5 132.8-47.3 46-91.5 91.2-134.7 133.4-43.3 42.2-86.6 80.7-131.9 113.7-45.5 32.8-92.1 61.5-142.1 83.7-49.9 22.2-102.5 38.8-156.9 51.4-27.8 4.9-55 11.5-83.5 14.5-14.2 1.7-28.1 4.3-42.5 5.4l-43.2 3.4c-7.2.4-14.4 1.3-21.7 1.5l-21.9.5-43.8 1.1c-29.5-.1-59.1-1.3-88.7-1.9l-5.3 239.8h9.7l-5.3-239.8c-29.57.4-59.25 1.8-88.67 1.8l-43.85-1.1-21.93-.5c-7.29-.2-14.42-1-21.64-1.5l-43.19-3.4c-14.41-1-28.31-3.6-42.5-5.4-28.56-2.9-55.72-9.6-83.45-14.6-54.41-12.6-107.04-29.2-156.92-51.4-50.02-22-96.53-50.9-141.96-83.7-45.29-33-88.58-71.5-131.93-113.7-43.25-42.2-87.23-87.5-134.64-133.4-47.4-45.7-98.58-92.1-156.49-132.9-57.83-40.7-122.17-75.4-189.65-100-67.41-25-137.45-39.2-206.46-46.7l-51.66-3.7-15.11-.9-11.87-.1-23.75-.2c-16.03-.1-31.23-.6-47.94-.1l-51.85 2.6-25.8 1.4-25.23 2.8c-16.81 2-33.57 3.7-50.32 5.9-33.49 6.1-66.96 10.7-99.93 20.1-65.95 16.7-131.05 39.6-191.5 72.3-60.38 32.6-116.63 72.9-164.91 120.8-48.14 48-89.39 102.1-120.5 160.9-31.49 58.5-55.04 120.2-70.02 183.4-7.51 31.6-13.18 63.4-16.82 95.3-3.81 31.9-5.64 64-4.22 95.8 11.4-62.5 30.14-122.8 55.42-179.7 24.33-57.1 55.81-110.4 91.92-158.8 72.72-97 170.21-169.2 278.72-210.8 54.02-21.5 111.18-35.1 169.2-42.9 28.78-4.9 58.45-6.1 87.61-8.7 14.77-.5 29.61-.5 44.36-.8l22.12-.4 21.65.9 43.06 1.9c14.91 1 31.3 2.8 46.88 4.1l23.65 2.2 11.83 1 .74.1c2.32.1-2.33-.1-1.61-.1l1.34.3 2.67.4 5.35.8 42.69 6.6c56.17 10.8 109.78 27 159.85 49.2 50.1 22.2 96.29 51.3 139.72 86.4 43.6 34.9 84.9 75.6 126.21 120 41.38 44.3 82.86 92.4 128.67 140.1 45.6 47.8 95.17 95.7 150.53 139.5 55.19 43.8 116.44 82.8 181.52 113.6 65.05 30.9 133.08 54 201.63 71.4 34.33 7.2 68.84 15.1 103.23 19.3 17.18 2.3 34.47 5.4 51.59 6.9l51.41 4.4c8.55.7 17.17 1.6 25.68 2l25.51.8 51.03 1.7c33.84.1 67.43-.9 101.13-1.5 66.3-1.1 119.1-55.7 118-121.9-1.1-65.7-54.8-118.2-120.3-118l-3 .1h-13.75c-66.21.3-119.68 54.1-119.44 120.3.25 65.5 53.01 118.5 118.16 119.5 33.73.5 67.33 1.6 101.13 1.4l51.1-1.6 25.5-.9c8.5-.3 17.1-1.3 25.6-2l51.4-4.4c17.2-1.4 34.5-4.6 51.6-6.9 34.4-4.1 68.9-12.1 103.2-19.4 68.6-17.3 136.6-40.5 201.6-71.4 65.2-30.6 126.3-69.9 181.5-113.6 55.3-43.8 104.9-91.7 150.5-139.5 45.8-47.7 87.1-95.9 128.6-140.1 41.3-44.5 82.7-85 126.2-120.1 43.5-35.1 89.7-64.2 139.8-86.4 12.2-6.3 25.4-10.5 38.3-15.5 6.5-2.4 12.8-5.2 19.4-7.4l20-6c13.3-4.1 26.9-8.6 39.8-11.1l19.6-4.5 9.8-2.3 4.9-1.2c1.7-.4 3.9-.6 5.8-.9l46.9-7.1 5.9-.9 2.9-.4 1.5-.2c.9-.1-4.8.4-2.1.1h.7l11.1-1.1 22.3-2c14.9-1.2 29.8-3.1 44.7-4.1l44.5-1.9 22.3-.9 22.1.3c14.8.4 29.6.4 44.4.9 29.1 2.6 58.8 3.8 87.6 8.6 58.1 7.9 115.2 21.6 169.3 43 108.5 41.7 206 114 278.7 211 36.1 48.4 67.6 101.7 91.9 158.9 25.2 56.9 43.9 117.2 55.3 179.7"
          ></path>
          <path
            fill="#62312d"
            fillOpacity="1"
            fillRule="nonzero"
            stroke="none"
            d="M9889.7 9566.2l120 1080 120-1080c7.4-66.3-40.4-126-106.7-133.4-66.24-7.3-125.94 40.4-133.3 106.7-.98 8.8-.89 18.2 0 26.7"
          ></path>
          <path
            fill="#62312d"
            fillOpacity="1"
            fillRule="nonzero"
            stroke="none"
            d="M12173.9 11652.5c0-248.6-201.5-450-450-450-248.6 0-450 201.4-450 450 0 248.5 201.4 450 450 450 248.5 0 450-201.5 450-450"
          ></path>
          <path
            fill="#fff"
            fillOpacity="1"
            fillRule="nonzero"
            stroke="none"
            d="M11973.3 11851.9c0-65.9-53.4-119.4-119.4-119.4s-119.5 53.5-119.5 119.4c0 66 53.5 119.5 119.5 119.5s119.4-53.5 119.4-119.5"
          ></path>
          <path
            fill="#62312d"
            fillOpacity="1"
            fillRule="nonzero"
            stroke="none"
            d="M8745.51 11652.5c0-248.6-201.47-450-450-450-248.52 0-450 201.4-450 450 0 248.5 201.48 450 450 450 248.53 0 450-201.5 450-450"
          ></path>
          <path
            fill="#fff"
            fillOpacity="1"
            fillRule="nonzero"
            stroke="none"
            d="M8544.98 11851.9c0-65.9-53.48-119.4-119.47-119.4-65.98 0-119.47 53.5-119.47 119.4 0 66 53.49 119.5 119.47 119.5 65.99 0 119.47-53.5 119.47-119.5"
          ></path>
          <path
            fill="#f57385"
            fillOpacity="1"
            fillRule="nonzero"
            stroke="none"
            d="M10969.9 8693.4c-509.8 262.2-960.1-76-960.1-76h-.1s-450.35 338.2-960.18 76c-509.77-262.2-729.17-2220 959.98-2220.4h.5c1689.1.4 1469.7 1958.2 959.9 2220.4"
          ></path>
          <path
            fill="#62312d"
            fillOpacity="1"
            fillRule="nonzero"
            stroke="none"
            d="M10009.7 6593h1.4c841.6.7 1093 520.2 1167.9 829.9 128.3 530.3-68.6 1063.3-263.9 1163.8-111.5 57.3-229.2 86.3-350 86.3-274.9 0-481.6-150.3-483.6-151.8-20.7-15.3-46.1-23.8-71.7-23.8-26.02 0-51.37 8.4-72.16 24-1.68 1.3-208.4 151.6-483.28 151.6-120.79 0-238.53-29-349.95-86.3-195.37-100.5-392.29-633.4-263.98-1163.8 74.97-309.8 326.55-829.7 1169.07-829.9h.2zm.3-240h-.5c-398.07.1-725.42 102.8-973.04 305.4-210.42 172.2-358.87 417-429.3 708.1-139 574.5 45.69 1257.8 387.48 1433.6 145.7 74.9 300.38 112.9 459.72 112.9 250.76 0 453.17-94.3 555.34-153.4 102.2 59.1 304.6 153.4 555.4 153.4 159.4 0 314-38 459.7-112.9 341.8-175.8 526.5-859.1 387.5-1433.6-70.4-291.1-218.9-535.9-429.3-708.1-247.4-202.4-574.5-305.1-972-305.4h-1"
          ></path>
          <path
            fill="#62312d"
            fillOpacity="1"
            fillRule="nonzero"
            stroke="none"
            d="M10129.8 8617.4l-120-1776.2-120.03 1776.2c-4.48 66.3 45.62 123.6 111.93 128.1 66.2 4.5 123.6-45.6 128.1-111.9.3-5.2.3-11.1 0-16.2"
          ></path>
          <path
            fill="#fff"
            fillOpacity="1"
            fillRule="nonzero"
            stroke="none"
            d="M5888.39 7074.2s169.71-477.9 595.86-166.3c426.14 311.6 316.14 2169.7-1463.86 1926.5-1780-243.2-1258.31-1920.5-1095.17-2183 163.13-262.4 695.17-270.2 815.17 259.8 0 0 118.06-551.3 607.58-423.1 622.42 163.1 540.42 586.1 540.42 586.1"
          ></path>
          <path
            fill="#62312d"
            fillOpacity="1"
            fillRule="nonzero"
            stroke="none"
            d="M4740.38 7031.2h.71c56.33-.4 104.85-39.8 116.64-94.9 3.06-13.8 80.3-347.5 349.05-347.5h.01c34.43 0 71.69 5.2 110.77 15.4 212.05 55.6 357.13 151.3 419.59 276.8 43.46 87.4 34.62 161.7 33.26 171.1-13.41 61.7 23.63 121.6 84.34 139.1 60.96 17.7 125.47-17.1 146.72-76.8.49-1.4 72.18-192 213.67-192 56.83 0 123.54 27.7 198.29 82.4 133.26 97.4 232.34 499.1 90.97 932-97.52 298.6-379.98 799.4-1176.11 799.4-92.64 0-190.76-6.9-291.65-20.7-545.22-74.5-907.82-295.6-1077.75-657-247.68-526.8-16.13-1207.9 68.25-1343.7 44.67-71.9 138.53-118.3 239.12-118.3 175.23 0 308.72 127.5 357.1 341.2 12.38 54.7 61 93.5 117.02 93.5zm466.4-682.4c-220.09 0-370.56 123.9-464.83 263.4-33.26-48.5-71.93-91-115.55-126.8-101.3-83.1-229.2-128.9-360.14-128.9-184.43 0-354.17 88.7-442.96 231.6-119.79 192.7-372.39 954-81.6 1572.5 206.74 439.8 631.49 706.4 1262.45 792.7 111.61 15.2 220.67 22.9 324.14 22.9 692.13 0 1203.96-351.7 1404.25-964.9 155.63-476.5 76.02-1014.9-177.46-1200.3-116.73-85.3-231.1-128.6-339.94-128.6-105.63 0-192.53 39.9-261.1 95.8-66.95-137-221.09-313.3-575.67-406.1-58.91-15.5-116.65-23.3-171.59-23.3"
          ></path>
          <g transform="scale(1.02939)">
            <path
              fill="#fff"
              fillOpacity="1"
              fillRule="nonzero"
              stroke="none"
              d="M13727.6 6872.25s-164.9-464.26-578.8-161.55c-414 302.7-307.2 2107.76 1422 1871.5 1729.2-236.26 1222.4-1865.67 1063.9-2120.68-158.4-254.91-675.3-262.49-791.9 252.38 0 0-114.6-535.56-590.2-411.02-604.7 158.44-525 569.37-525 569.37"
            ></path>
          </g>
          <g transform="scale(1.01647)">
            <path
              fill="#62312d"
              fillOpacity="1"
              fillRule="nonzero"
              stroke="none"
              d="M14018.1 6937.82c-1.4-9.25-10-82.35 32.7-168.33 61.4-123.47 204.2-217.61 412.8-272.31 38.4-10.04 75.1-15.15 109-15.15 267.1 0 342.6 338.42 343.4 341.87 11.6 54.2 59.3 92.96 114.7 93.36h.7c55.1 0 103-38.17 115.1-91.99 47.6-210.24 179-335.67 351.3-335.67 99 0 191.4 45.65 235.3 116.38 83 133.6 310.8 803.67 67.1 1321.93-167.1 355.54-523.8 573.06-1060.2 646.35-99.3 13.58-195.8 20.37-287 20.37-783.2 0-1061.1-492.69-1157-786.45-139.1-425.88-41.6-821.07 89.5-916.89 73.5-53.82 139.1-81.07 195-81.07 139.3 0 209.5 186.92 210.2 188.89 21 58.83 84.4 92.87 144.4 75.55 59.8-17.21 96.2-76.14 83-136.84zm554.5-691.9c-54.1 0-110.8 7.67-168.9 22.92-348.8 91.3-500.4 264.74-566.2 399.52-67.5-55-153-94.25-256.9-94.25h-.1c-107 0-219.5 42.6-334.4 126.52-249.4 182.39-327.7 712.07-174.5 1180.84 196.9 603.27 700.5 949.27 1381.4 949.27 101.8 0 209.1-7.58 319-22.53 620.6-84.9 1038.6-347.18 1241.9-779.85 286.1-608.48 37.6-1357.44-80.3-1547.02-87.3-140.59-254.3-227.85-435.7-227.85-128.9 0-254.7 44.96-354.3 126.81-42.9 35.22-81 77.03-113.7 124.75-92.8-137.24-240.8-259.13-457.3-259.13"
            ></path>
          </g>
        </g>
      </g>
    </svg>