<svg
      xmlns="http://www.w3.org/2000/svg"
      width="2666.667"
      height="2666.667"
      version="1.1"
      viewBox="0 0 2666.667 2666.667"
      xmlSpace="preserve"
    >
      <g transform="matrix(1.33333 0 0 -1.33333 0 2666.667)">
        <g transform="scale(.1)">
          <g transform="scale(1.22699)">
            <path
              fill="#82bc0000"
              fillOpacity="1"
              fillRule="nonzero"
              stroke="none"
              d="M16300 0H0v16300h16300V0"
            ></path>
          </g>
          <path
            fill="#100f0d"
            fillOpacity="1"
            fillRule="nonzero"
            stroke="none"
            d="M11177.1 12313.5s1121.9 2287 1682.9 2373.3c0 0 1111.1-787.5 1132.7-4218"
          ></path>
          <path
            fill="#100f0d"
            fillOpacity="1"
            fillRule="nonzero"
            stroke="none"
            d="M13992.7 10348.8c-65.9 0-119.6 53.2-120 119.2-11 1751.2-312.7 2786.8-563.9 3347.2-198.8 443.4-395.3 660.2-477.7 738.3-122.2-53.7-396.2-277.4-919.3-1146.3-344.1-571.6-624.2-1140.9-627-1146.6-29.1-59.4-101-84-160.5-54.8-59.5 29.2-84.1 101.1-54.9 160.6 2.8 5.7 286.8 583 636 1163.3 206.4 343 395.5 620.7 561.9 825.5 229.2 282.1 411.7 425.2 574.5 450.2 30.7 4.8 62.2-2.7 87.6-20.7 47.4-33.6 1161.6-862.8 1183.3-4315.1.4-66.3-53-120.4-119.2-120.8h-.8"
          ></path>
          <path
            fill="#fff"
            fillOpacity="1"
            fillRule="nonzero"
            stroke="none"
            d="M13643.5 10979.9s53.4 2784-946.7 3212.7c0 0-196.2-2.9-1234.4-1831.6l2181.1-1381.1"
          ></path>
          <path
            fill="#100f0d"
            fillOpacity="1"
            fillRule="nonzero"
            stroke="none"
            d="M8795.17 12313.5s-1121.92 2287-1682.89 2373.3c0 0-1111.13-787.5-1132.71-4218"
          ></path>
          <path
            fill="#100f0d"
            fillOpacity="1"
            fillRule="nonzero"
            stroke="none"
            d="M5979.59 10348.8h-.77c-66.27.4-119.66 54.5-119.25 120.8 21.72 3452.3 1135.91 4281.5 1183.32 4315.1 25.42 18 56.84 25.5 87.64 20.7 162.75-25 345.3-168.1 574.49-450.2 166.39-204.8 355.43-482.5 561.88-825.5 349.22-580.3 633.18-1157.6 636-1163.3 29.19-59.5 4.62-131.4-54.88-160.6-59.49-29.2-131.39-4.6-160.59 54.8-2.78 5.7-282.84 575-626.91 1146.6-523.07 868.8-797.03 1092.5-919.29 1146.3-84.15-79.8-287.14-304.1-490.13-766.3-245.6-559.3-540.65-1589.2-551.53-3319.2-.41-66-54.06-119.2-119.98-119.2"
          ></path>
          <path
            fill="#fff"
            fillOpacity="1"
            fillRule="nonzero"
            stroke="none"
            d="M6328.78 10979.9s-53.35 2784 946.73 3212.7c0 0 196.22-2.9 1234.4-1831.6l-2181.13-1381.1"
          ></path>
          <path
            fill="#100f0d"
            fillOpacity="1"
            fillRule="nonzero"
            stroke="none"
            d="M14760.9 6179.9s704.4 6694.6-4774.76 6454.6h10.76c-5479.13 240-4774.76-6454.6-4774.76-6454.6"
          ></path>
          <path
            fill="#100f0d"
            fillOpacity="1"
            fillRule="nonzero"
            stroke="none"
            d="M14761 6059.9c-4.2 0-8.4.2-12.7.6-65.9 7-113.7 66-106.8 131.9.9 8.4 86.1 848.5-42.6 1902.6-117.8 964.9-444.2 2312.6-1330.1 3253.9-781.4 830.1-1876.9 1222.6-3256.3 1166.6-5.1-.7-10.3-1-15.6-1h-10.76c-5.28 0-10.49.3-15.6 1-1379.78 56-2475.51-336.7-3256.9-1167.3-886.72-942.6-1212.81-2292.5-1330.22-3259-127.94-1053.1-42.81-1888.4-41.94-1896.8 6.94-65.9-40.87-124.9-106.78-131.9-65.97-6.8-124.97 40.9-131.9 106.8-3.69 35.1-88.82 871 42.37 1950.9 77.22 635.6 214.06 1222.4 406.72 1744.2 242.41 656.6 574.46 1211.8 986.94 1650.2 833.35 885.9 1994.9 1303.8 3452.69 1242.2 1457.58 61.6 2619.38-356.3 3452.68-1242.2 412.5-438.4 744.5-993.6 986.9-1650.2 192.7-521.8 329.5-1108.6 406.8-1744.2 131.2-1079.9 46-1915.8 42.3-1950.9-6.5-61.6-58.5-107.4-119.2-107.4"
          ></path>
          <path
            fill="#fff"
            fillOpacity="1"
            fillRule="nonzero"
            stroke="none"
            d="M14387.4 6213.9s563.2 3751.4-1590 4313c0 0-39.6 862.7-1204.7 832.7-1165.1-30-1040.2-707.2-1040.2-707.2l-544 13.2h-1.9l-544.04-13.2s124.96 677.2-1040.15 707.2c-1165.11 30-1204.77-832.7-1204.77-832.7-2153.13-561.6-1589.92-4313-1589.92-4313h8759.68"
          ></path>
          <path
            fill="#fff"
            fillOpacity="1"
            fillRule="nonzero"
            stroke="none"
            d="M10019.5 12175.6s3.7-28.5 9.3-78.3c3-24.8 6.4-55.1 10-89.7 3.6-34.7 8.1-73.8 12.2-116.4 4.1-42.7 8.6-88.9 13.3-137.8 4.9-48.8 9.2-100.4 14.1-153.7 4.5-53.3 9.3-108.4 13.3-164.4 4.3-56 7.9-112.9 11.8-169.7 3.8-56.9 10.2-113.8 16.6-169.8 3-28 6.3-55.8 8.5-83.2 2.2-27.4 3.5-54.5 4-81.2.5-53.3-3-104.9-8.4-153.7-5.3-48.9-12.3-95.1-20.3-137.8-15.7-85.3-35.9-156.4-53.2-206.1-8.5-24.9-16.1-44.5-22-57.8-5.6-13.3-9.2-20.4-9.2-20.4-3.3-6.7-11.3-9.4-17.9-6.1-2.75 1.4-4.81 3.5-6.06 6.1 0 0-3.54 7.1-9.13 20.4-5.91 13.3-13.5 32.9-22.07 57.8-17.24 49.7-37.46 120.8-53.16 206.1-7.98 42.7-15.05 88.9-20.3 137.8-5.45 48.8-8.95 100.4-8.37 153.7.45 26.7 1.76 53.8 3.95 81.2 2.25 27.4 5.5 55.2 8.49 83.2 6.46 56 12.78 112.9 16.59 169.8 3.96 56.8 7.5 113.7 11.87 169.7 3.99 56 8.8 111.1 13.23 164.4 4.91 53.3 9.23 104.9 14.09 153.7 4.75 48.9 9.23 95.1 13.37 137.8 4.07 42.6 8.6 81.7 12.19 116.4 3.63 34.6 6.96 64.9 9.94 89.7 5.66 49.8 9.31 78.3 9.31 78.3.85 6.6 6.86 11.3 13.56 10.4 5.6-.7 9.8-5.1 10.4-10.4"
          ></path>
          <path
            fill="#fff"
            fillOpacity="1"
            fillRule="nonzero"
            stroke="none"
            d="M9242.26 11311.8c179.64-179.6 247.18-403.3 150.85-499.7-96.33-96.3-320.05-28.8-499.69 150.9-179.64 179.6-247.18 403.3-150.85 499.7 96.33 96.3 320.05 28.8 499.69-150.9"
          ></path>
          <path
            fill="#fff"
            fillOpacity="1"
            fillRule="nonzero"
            stroke="none"
            d="M10772.8 11311.8c-179.6-179.6-247.2-403.3-150.8-499.7 96.3-96.3 320-28.8 499.7 150.9 179.6 179.6 247.1 403.3 150.8 499.7-96.3 96.3-320 28.8-499.7-150.9"
          ></path>
          <path
            fill="#fff"
            fillOpacity="1"
            fillRule="nonzero"
            stroke="none"
            d="M12241.1 8991.9s-691.2 418.1-897.6 1123.6c-196 669.9-1065.7 779.1-1357.36 779.1-291.68 0-1161.4-109.2-1357.37-779.1-206.36-705.5-897.63-1123.6-897.63-1123.6"
          ></path>
          <path
            fill="#100f0d"
            fillOpacity="1"
            fillRule="nonzero"
            stroke="none"
            d="M12241.1 8991.9s-5.5 2.7-16.2 8.1c-10.6 5.5-26.5 13.5-46.5 25.1-20.1 11.5-44.8 25.9-73.4 43.8-28.6 17.7-61.1 38.9-96.6 64-71.2 49.8-154.9 114.9-244.6 197.7-89 83.4-184.7 184.4-273.7 308.6-88.6 123.9-172.5 270.4-229.6 440.4-7.1 18.9-14.2 38-21.4 57.2-3.6 10.8-7.6 18.1-11.4 26.4-3.8 8.2-7.6 16.4-11.4 24.7-3.3 8.1-8.7 16.7-13.2 25.2-4.6 8.4-9.3 17-13.9 25.5-10 16.7-21 32.8-31.4 49.4-45.3 64.1-100.3 123.3-164.6 175.2-64.1 51.9-136.8 97-215.2 135-78.2 38.3-162.2 69.4-249.1 95-86.9 26-177.4 44.2-268.7 58.7-45.6 7.2-91.7 12.6-137.7 16.5-45.9 3.9-92.1 6.2-136.36 6.2-9.18-.3-24.71-.1-34.53-.5-10.87-.3-21.35-.5-33.04-1.2-22.8-1-45.79-2.6-68.78-4.5-45.98-4-92.05-9.4-137.72-16.5-91.27-14.6-181.75-32.9-268.6-58.8-86.91-25.7-170.82-56.9-249.1-95.1-39.48-18.6-76.62-40.2-112.97-62.3-8.94-5.7-17.59-11.7-26.39-17.5-8.66-5.9-17.89-11.2-26.09-17.6-16.65-12.6-34.13-24.2-49.64-37.7a863.592 863.592 0 01-164.48-175.1c-10.37-16.6-21.46-32.7-31.38-49.4-4.66-8.5-9.31-17-13.94-25.5-4.51-8.5-9.74-16.7-13.39-25.6-4.01-8.8-8-17.6-11.98-26.3-3.97-8.7-8.29-17.3-11.3-26.4-3.37-9-6.73-17.9-10.08-26.8l-5.13-13.4-1.28-3.3c.32 1.2-1.16-3.5-1.26-3.7l-.67-1.9-2.69-7.4c-7.32-20-13.96-39.2-21.7-59.4-8.53-21-17-41.7-25.41-62.3-9.02-19.6-17.98-39.1-26.86-58.4-9.08-19.1-19.14-37.6-28.66-56.1-39.44-73.2-82.05-141-126.64-202.9-89.03-124.2-184.71-225.2-273.81-308.5-89.74-82.9-173.45-147.9-244.69-197.7-35.48-25.1-67.96-46.3-96.63-64-28.55-17.8-53.28-32.2-73.4-43.7-20.05-11.6-35.95-19.6-46.54-25.1-10.7-5.4-16.22-8.1-16.22-8.1s19.62 15 54.91 44.5c35.41 29.4 85.8 74.3 147.17 133.5 61.2 59.5 132.87 134 208.11 224.4 37.29 45.4 75.92 94.4 113.67 147.9 37.96 53.2 75.53 110.6 110.66 172.4 35.27 61.6 69.03 127.2 98.4 196.9 6.98 17.6 14.55 35 21.44 52.9 6.6 17.9 13.25 36 19.95 54.2 5.72 17.9 11.48 35.9 17.28 54 5.67 19.1 11.11 40 16.73 60.2l3.81 13.8 4.88 16.8c3.34 11.2 6.69 22.5 10.05 33.8 3.09 11.4 7.59 22.4 11.77 33.5 4.25 11.2 8.51 22.3 12.79 33.6 3.96 11.3 9.58 22 14.53 33.1 5.13 10.9 10.27 21.9 15.42 33 11.02 21.7 23.43 42.9 35.36 64.5 50.91 84.8 117.49 162 192.86 229.8 18.49 17.5 38.65 32.8 58.34 49.1 19.91 15.9 40.84 30.3 61.64 45.2 42.43 28.1 85.92 55.3 131.24 78.8 44.98 24.5 91.59 45.5 138.69 65.8 47.52 18.9 95.59 37.1 144.56 52.1 24.36 8.2 49.09 14.7 73.73 22 24.81 6.4 49.56 13.5 74.6 19.1 49.89 12.3 100.44 21.8 151.26 30.1 50.82 8.3 102.03 14.7 153.68 19.5 25.83 2.4 51.76 4.4 77.95 5.8 12.79.8 26.83 1.2 40.48 1.7 14.69.5 23.7.5 39.04.6 53.86-.3 105.76-3.4 157.46-8.1 51.7-4.8 102.9-11.2 153.7-19.6 50.8-8.2 101.3-17.9 151.2-30.2 25.1-5.6 49.8-12.7 74.6-19 24.6-7.4 49.4-13.9 73.7-22.1 49-15.1 97.1-33.1 144.5-52.1 47.1-20.3 93.7-41.3 138.7-65.8 45.3-23.5 88.8-50.7 131.2-78.8 20.9-14.8 41.7-29.5 61.6-45.3 19.7-16.2 39.9-31.5 58.3-49.1 75.5-67.7 141.9-145 192.8-229.7 11.9-21.6 24.4-42.8 35.4-64.5 5.1-11 10.3-22 15.4-33 5-11.1 10.4-21.4 14.7-33.6 4.5-11.7 9-23.4 13.4-35.1 4.4-11.6 9.2-23.8 11.7-33.5 6.2-21.4 12.3-42.6 18.4-63.7 5.3-19.1 10.2-38.2 15.7-57 6-18.7 12-37.3 17.9-55.8 6.7-18.2 13.4-36.3 20-54.2 6.9-17.9 14.4-35.4 21.4-53 29.4-69.7 63.2-135.2 98.4-196.9 35.2-61.8 72.8-119.1 110.7-172.4 37.8-53.5 76.5-102.4 113.8-147.9 75.3-90.3 146.9-164.9 208.2-224.3 61.4-59.2 111.8-104.1 147.2-133.4 35.3-29.6 54.9-44.5 54.9-44.5"
          ></path>
          <path
            fill="#100f0d"
            fillOpacity="1"
            fillRule="nonzero"
            stroke="none"
            d="M11000.1 10158.5c0-352.6-444.8-1098.2-993.5-1098.2-548.72 0-993.54 745.6-993.54 1098.2s444.82 507.1 993.54 507.1c548.7 0 993.5-154.5 993.5-507.1"
          ></path>
          <path
            fill="#100f0d"
            fillOpacity="1"
            fillRule="nonzero"
            stroke="none"
            d="M10006.7 6618.9c2223.4 0 2215.2 1554.9 2215.2 1554.9-1528 581.5-2215.2 488-2215.2 488h-.1s-687.22 93.5-2215.28-488c0 0-8.16-1554.9 2215.18-1554.9"
          ></path>
          <path
            fill="#fff"
            fillOpacity="1"
            fillRule="nonzero"
            stroke="none"
            d="M12446.6 8644.5s-71.6-733-855.8-671c-784.1 62-684.3 688.3-1584.1 688.3h-.1c-899.85 0-800.01-626.3-1584.19-688.3-784.19-62-855.8 671-855.8 671"
          ></path>
          <path
            fill="#100f0d"
            fillOpacity="1"
            fillRule="nonzero"
            stroke="none"
            d="M12446.6 8644.5s.1-5.9-.4-17.3c-.7-11.4-1.6-28.3-4.4-50.3-6.1-43.7-16.2-108.8-45-188-14.2-39.6-33.2-82.7-58.7-127.6-25.4-44.9-58.2-91.2-99.8-135.9-41.4-44.6-92.6-86.6-152.3-122.3-59.6-35.7-128.2-63.5-201.8-82.5-73.8-19.1-152.5-28.3-233.4-30.2-20.2.1-40.6.2-61.1.4h-3.9c-1.6.1.8-.2-4 .3l-1.8.1-7.2.4-14.5 1-29.1 1.8c-18.6.6-41.4 4-62.8 6.4-10.8 1.4-21.9 2.5-32.7 4.2-10.6 1.9-21.2 3.8-31.9 5.6-85.5 15-173.2 42.2-257.8 81.6-84.7 39.3-163.9 93.3-236.3 150.4-36.3 28.7-71 57.8-104.9 86.9-33.7 28.9-66.9 57.2-100.1 83.9-66.6 52.8-133.8 98.9-206.6 133.5-36 18-74.2 31.6-112.8 44.7-19.8 5.2-39.2 11.5-59.4 16.1l-30.4 6.9-15.1 3.5-15.5 2.6c-82.4 15.2-168.7 21.1-256.3 21.2l-67.29-1.4c-12.27.1-21.82-1-32.33-1.6l-31.01-2-15.51-1-15.86-1.9-31.72-3.6-15.85-1.8c-5.24-.8-10.38-1.8-15.57-2.6l-31.07-5.3-15.5-2.7-15.17-3.5-30.33-6.9c-20.12-4.8-39.57-10.9-59.41-16.2-38.55-13-76.72-26.6-112.76-44.7-36.54-17-71.3-37.7-105.52-60-34.37-22-67.67-47.4-100.98-73.5-33.2-26.7-66.4-55-100.06-83.9-33.9-29.2-68.59-58.2-104.9-86.9-36.5-28.5-73.79-56.6-113.59-81.9-19.36-13.1-40.06-24.7-60.21-36.6-10.05-6-20.82-10.9-31.15-16.4-10.51-5.2-20.67-10.9-31.37-15.6-84.69-39.5-172.41-66.5-257.91-81.6-10.69-1.9-21.34-3.8-31.96-5.7-10.61-1.6-21.21-2.6-31.75-4-21.07-2.3-41.98-5.5-62.66-6.4-10.33-.7-20.63-1.4-30.89-2l-15.33-1-7.64-.5-1.91-.2c-5.65-.3-2.6-.1-4.33-.1l-3.6-.1c-19.22-.1-38.28-.1-57.17-.2-8.99-.2-20.05.6-30.32 1.1-10.38.5-20.72 1.1-31.01 1.7-20.77.7-40.35 3.4-59.88 5.8-9.75 1.3-19.45 2.5-29.1 3.7-9.64 1.5-19.22 3.6-28.74 5.4-19.03 3.7-37.86 6.8-56.21 12.4-73.66 19.1-142.26 47-201.95 82.7-59.69 35.6-110.85 77.7-152.33 122.4-41.53 44.6-74.34 90.9-99.72 135.9-25.5 44.9-44.49 88-58.66 127.6-28.85 79.3-38.92 144.3-44.95 188.1-2.83 22-3.73 38.9-4.34 50.3-.5 11.4-.47 17.3-.47 17.3s1.2-5.8 4.07-16.7c2.87-11 7.63-27.1 14.21-47.9 13.47-41.4 36.38-101.4 75.39-171.1 39.15-69.1 95.3-148.8 178.05-216 82.17-67.5 191.5-118.9 318.81-136.3 15.66-3 32.08-3.8 48.37-5.5 8.17-.7 16.32-1.6 24.59-2.2l25.14-.6c16.8-.4 33.85-1.2 50.24 0 8.26.4 16.56.7 24.9 1 8.44.4 16.19.3 26.05 1.6 18.82 1.7 37.79 3.6 56.92 5.4 17.13 2.5 34.39 5.1 51.78 7.7 18.23 2.2 35.94 6.6 53.99 10.1 8.97 1.9 18.09 3.5 27.01 5.7 8.86 2.4 17.75 4.7 26.67 7.1 71.27 18.9 140.97 45.1 206.79 81.7 65.72 36.9 128.16 82.8 190.22 137.7 31.11 27.2 62.3 56.9 94.87 86.8 32.71 30.3 66.51 61.5 102.4 92.6 36.4 31 74.1 62.1 115.42 90.9 41.34 28.5 84.91 55.7 131.2 78.7 184.54 97 397.56 125.4 592.9 126.6 99.2-.8 200-8.2 300.5-27.4l18.8-3.5 18.8-4.4 37.5-8.9c25-6.3 49.6-14.7 74.3-22 48.8-17.5 97.2-36.4 143-60.5 46.2-23 89.9-50.1 131.1-78.8 41.3-28.8 79-59.9 115.4-90.9 35.9-31.1 69.7-62.3 102.4-92.6 32.5-29.9 63.7-59.7 94.8-86.9 62.2-54.8 124.5-100.8 190.3-137.7 65.9-36.6 135.6-62.7 206.9-81.8 8.9-2.3 17.8-4.7 26.7-7 8.8-2.2 17.4-3.7 26.1-5.6 17.7-3.4 33.5-7.7 53.8-10.1 9.7-1.5 19.3-2.9 28.9-4.3l14.3-2.1 7.2-1 1.7-.3c-3.6.3 0 0-.4 0l3.3-.3c17.8-1.7 35.5-3.5 53-5.2 70.1-5.3 137.6-3.4 201.2 5.6 127.3 17.6 236.7 69 318.9 136.5 82.7 67.3 138.9 147 178 216.2 39 69.7 61.9 129.7 75.3 171.1 6.6 20.8 11.3 36.9 14.2 47.9 2.8 10.9 4 16.7 4 16.7"
          ></path>
          <path
            fill="#100f0d"
            fillOpacity="1"
            fillRule="nonzero"
            stroke="none"
            d="M10006.7 8541.8c-66.31 0-120.03 53.8-120.03 120v868.7c0 66.3 53.72 120 120.03 120 66.2 0 120-53.7 120-120v-868.7c0-66.2-53.8-120-120-120"
          ></path>
          <path
            fill="#f57385"
            fillOpacity="1"
            fillRule="nonzero"
            stroke="none"
            d="M10006.9 5347.4h-.6.6"
          ></path>
          <path
            fill="#100f0d"
            fillOpacity="1"
            fillRule="nonzero"
            stroke="none"
            d="M10006.9 5227.4h-.6c-66.26 0-119.99 53.7-119.99 120 0 65.1 51.93 118.2 116.69 119.9 2.4.1 4.8.1 7.3 0 64.7-1.8 116.6-54.8 116.6-119.9 0-66.3-53.7-120-119.9-120h-.1"
          ></path>
          <path
            fill="#f57385"
            fillOpacity="1"
            fillRule="nonzero"
            stroke="none"
            d="M11000.1 7525.5c-333.5 400.9-993.4 0-993.4 0h-.2s-659.9 400.9-993.44 0c-333.52-400.8-712.48-2177.9 993.54-2178.1 1706 .2 1327.1 1777.3 993.5 2178.1"
          ></path>
          <path
            fill="#100f0d"
            fillOpacity="1"
            fillRule="nonzero"
            stroke="none"
            d="M9418.87 7583.7c-135.45 0-238.02-44.1-313.56-134.9-187.17-225-387.23-944.6-152.48-1445.3 166.72-355.7 521.26-536.1 1053.77-536.1 532.5 0 887.1 180.4 1053.8 536.1 234.7 500.7 34.7 1220.3-152.5 1445.3-75.5 90.8-178.1 134.9-313.6 134.9-257.8 0-522.7-159.1-525.3-160.7-37.6-22.8-87.2-22.8-124.75 0-2.52 1.5-269.37 160.7-525.38 160.7zm587.73-2356.3c-789.39.1-1126.92 366.7-1271.08 674.2-159.92 341.1-142.59 717.1-99.9 972.4 49.75 297.6 159.04 576.7 285.2 728.3 120.52 144.8 292.74 221.4 498.05 221.4 242.62 0 478.74-105.1 587.73-161.3 109 56.2 345.1 161.3 587.7 161.3 205.4 0 377.6-76.6 498.1-221.4 126.2-151.6 235.4-430.7 285.2-728.3 42.7-255.3 60-631.3-99.9-972.4-144.2-307.5-481.7-674.1-1271.1-674.2"
          ></path>
          <path
            fill="#fff"
            fillOpacity="1"
            fillRule="nonzero"
            stroke="none"
            d="M5874.59 5948.6s159.29-451 555.65-212c396.35 238.9 314.53 667.9 240.46 917.1-74.07 249.2-418.85 1228.3-1616.48 1055.1-1197.63-173.3-1404.48-1156.2-1291.05-1839.7 113.42-683.6 643.78-482.2 643.78-482.2s331.36 75.2 331.36 436.9c0 0 71.71-665.6 675-476.9 603.28 188.6 440.99 483.5 461.28 601.7"
          ></path>
          <path
            fill="#100f0d"
            fillOpacity="1"
            fillRule="nonzero"
            stroke="none"
            d="M4738.4 5943.8c60.89 0 112.62-45.9 119.22-107.1 1.85-16.1 49.78-403.5 354.72-403.5h.01c49.73 0 105.29 9.5 165.14 28.2 401.98 125.7 389.7 269.8 378.86 396.9-3.25 38.1-6.31 74-.03 110.6 9.24 53.8 53.68 94.6 108.11 99.2 54.46 4.7 105.12-28.1 123.31-79.6.54-1.4 75.36-201.8 223.93-201.8 46.02 0 98.71 17.7 156.61 52.6 242.59 146.3 302.14 394.2 187.4 780.2-88.46 297.6-385.26 989.7-1228.68 989.7-81.63 0-167.62-6.5-255.6-19.2-428.09-61.9-749.98-236.7-956.73-519.5-315.76-431.8-268.22-970.3-233.12-1181.8 45.09-271.7 164.53-409.5 355.01-409.5 72.34 0 128 19.9 128.55 20.1 5.75 2.2 8.96 3.3 14.86 4.5 27.16 6.8 238.34 67.9 238.34 320 0 63.8 49.88 116.5 113.56 119.9 2.19.1 4.36.1 6.53.1zm473.95-750.6h-.02c-198.75 0-365.19 96.3-473.81 272.6-90.59-113-213.35-173.3-297.57-194.2-26.24-8.9-104.65-32.4-204.39-32.4-132.54 0-253.12 42-348.68 121.3-124.65 103.6-206.44 268.1-243.1 488.9-40.06 241.4-93.34 857.5 276.15 1362.8 246.27 336.8 621.78 543.8 1116.11 615.3 99.32 14.4 196.87 21.7 289.96 21.7 453.06 0 824.66-166.2 1104.47-493.9 197.62-231.5 301.73-490.7 354.26-667.4 58.06-195.3 77.8-362.4 60.33-510.6-27.79-235.8-146.84-418.7-353.86-543.5-95.83-57.8-190.21-87.1-280.53-87.1-96.98 0-176.13 32.1-239.48 77.3-50.19-136.3-184.09-285.6-523.07-391.7-83.05-25.9-162.72-39.1-236.77-39.1"
          ></path>
          <g transform="scale(1.00344)">
            <path
              fill="#fff"
              fillOpacity="1"
              fillRule="nonzero"
              stroke="none"
              d="M14082.7 5928.2s-158.7-449.46-553.7-211.28c-395 238.08-313.5 665.61-239.6 913.96 73.8 248.35 417.3 1224.08 1610.9 1051.48 1193.5-172.71 1399.7-1152.23 1286.6-1833.39-113-681.26-641.5-480.55-641.5-480.55s-330.3 74.95-330.3 435.41c0 0-71.4-663.32-672.7-475.27-601.2 187.95-439.4 481.84-459.7 599.64"
            ></path>
          </g>
          <g transform="scale(1.00947)">
            <path
              fill="#100f0d"
              fillOpacity="1"
              fillRule="nonzero"
              stroke="none"
              d="M13998.5 6011.66c3.4 0 6.7-.2 10.2-.5 53.9-4.56 97.9-44.97 107.1-98.27 6.2-36.25 3.2-71.82 0-109.56-10.8-125.91-23-268.65 375.2-393.17 59.4-18.53 114.4-27.94 163.7-27.94 125.9 0 219 61.71 284.9 188.71 53.7 103.82 66.4 210.01 66.5 211 6.7 62.81 61.4 109.27 124.5 106 63.1-3.37 112.5-55.57 112.5-118.78 0-249.73 209.2-310.26 236.1-316.99 5.9-1.29 9.8-2.58 15.4-4.66.1 0 55.1-19.71 126.6-19.71 188.7 0 307.1 136.5 351.8 405.65 34.7 209.52 81.8 742.97-231 1170.71-204.8 280.15-523.7 453.31-947.7 514.63-87.2 12.58-172.4 19.02-253.2 19.02-835.5 0-1129.5-685.6-1217.2-980.41-113.6-382.38-54.7-627.95 185.6-772.88 57.4-34.58 109.6-52.11 155.2-52.11 147.1 0 221.1 197.93 221.9 199.91 16.8 47.85 62 79.35 111.9 79.35zm656.2-867.19c-73.4 0-152.4 13.08-234.6 38.73-335.8 105.11-468.5 253.01-518.2 388.03-62.7-44.78-141.1-76.58-237.2-76.58-89.5 0-183 29.03-277.9 86.29-205.1 123.63-323 304.81-350.6 538.4-17.2 146.81 2.3 312.34 59.9 505.81 52 175.04 155.1 431.81 350.8 661.13 277.2 324.63 645.3 489.27 1094.2 489.27 92.2 0 188.8-7.23 287.2-21.5 489.7-70.83 861.7-275.89 1105.7-609.53 366-500.55 313.2-1110.87 273.5-1350.01-36.3-218.72-117.3-381.68-240.8-484.31-94.6-78.56-214.1-120.16-345.5-120.16-98.7 0-176.4 23.28-202.4 32.1-83.5 20.7-205 80.43-294.8 192.37-107.5-174.64-272.5-270.04-469.3-270.04"
            ></path>
          </g>
          <path
            fill="#100f0d"
            fillOpacity="1"
            fillRule="nonzero"
            stroke="none"
            d="M12360.3 10607.3s-16.7 2.7-46 5.4c-29.3 2.6-71.2 5.3-121 4.9-24.9-.3-51.7-1-79.9-3.2-14-.7-28.4-2.5-43-3.8-14.7-1.8-29.5-3.4-44.5-5.8-15-2.3-30.1-4.6-45.3-7.8-15.1-2.7-30.3-6.3-45.4-9.9-15.2-3.4-30.2-8.2-45.2-12.2-14.7-4.9-29.6-9.2-44-14.7-14.4-5.5-28.7-10.5-42.4-16.9-6.9-3-13.7-6-20.6-9-6.6-3.3-13.2-6.6-19.7-9.9-26.2-13-50.2-28-72.3-43-11.1-7.4-21.2-15.9-31.3-23.3-10-7.8-18.9-16.3-27.9-23.9-17.2-16.3-32.6-31.9-45.4-47.6-3.3-3.7-6.4-7.4-9.6-11-2.8-3.9-5.6-7.7-8.3-11.4-5.4-7.4-10.6-14-15.2-20.6-8.5-13.9-16.3-25.2-21.9-35.3-10.8-20.1-17-31.7-17-31.7-44.9-83.9-149.4-115.5-233.3-70.6-84 44.9-115.6 149.4-70.7 233.4 9.2 17 20.7 31.9 34.1 44.5l1.2 1s15.2 14.2 41.9 38.9c13.6 12 31.2 25.6 50.7 41.2 10.2 7.5 21.4 15 32.9 23 5.8 3.9 11.8 8 17.8 12.1 6.4 3.8 12.9 7.7 19.5 11.6 26.1 16.1 55.7 31 87.1 45.3 16 6.5 32.1 13.7 49 19.8 17 5.6 34 12 51.7 16.9 35.4 10 71.9 18.5 108.9 23.8 9.3 1.4 18.5 2.7 27.8 4.1l27.9 2.7c18.6 2.1 37.2 2.5 55.6 3.4 18.5.8 36.9.2 55 .2 18.2-1 36.1-1.2 53.8-2.9 17.7-1.4 35.1-2.9 52.2-5.3 17.1-1.9 33.8-4.7 50.2-7.3 16.4-2.6 32.3-6 47.8-9 15.5-3.6 30.6-6.6 45.1-10.4 29.1-7.1 56.1-15.1 80.8-22.9 98.7-31.4 158.9-62.8 158.9-62.8"
          ></path>
          <path
            fill="#100f0d"
            fillOpacity="1"
            fillRule="nonzero"
            stroke="none"
            d="M11412 10552s4.1-1.1 11.7-3c7.4-1.9 18.2-4.8 32-8.4 27.4-7.3 66.2-17.9 112.5-31.2 92.6-26.5 215.3-63.5 336.4-105.7 30.3-10.6 60.5-21.3 90.1-32.4 29.6-11 58.6-22.2 86.5-33.6 55.8-22.6 107.2-45.6 150.2-67.5 21.5-10.9 40.9-21.5 57.7-31.5 8.5-4.8 16.2-9.9 23.4-14.4 7.1-4.5 13.6-8.7 19.2-12.9 5.7-4.1 10.7-7.7 15.1-10.9 4.2-3.4 7.7-6.4 10.6-8.7 5.7-4.7 8.7-7.2 8.7-7.2s-3.7 1.3-10.6 3.9c-3.4 1.2-7.7 2.8-12.6 4.6-5.1 1.5-11 3.2-17.5 5.1-6.5 2-13.8 3.8-21.8 5.6-7.9 1.9-16.4 4-25.7 5.6-18.5 3.7-39.5 7.1-62.4 10.1-45.9 6.1-99.8 10.5-157.7 13.2-28.9 1.4-58.8 2.3-89.3 2.8-30.4.6-61.4.7-92.3.6-123.8-.5-247.7-6.2-340.2-11.7-46.3-2.8-84.7-5.6-111.5-7.7-13.2-1.1-23.6-1.9-30.7-2.5-6.9-.7-10.6-1-10.6-1-94.9-9-179.2 60.7-188.2 155.7-9 95 60.8 179.3 155.7 188.2 19.9 1.9 39.3.3 57.7-4.2l3.6-.9"
          ></path>
          <path
            fill="#100f0d"
            fillOpacity="1"
            fillRule="nonzero"
            stroke="none"
            d="M7611.98 10607.3s60.17 31.4 158.88 62.8c24.69 7.8 51.73 15.8 80.83 22.9 14.51 3.8 29.61 6.8 45.08 10.4 15.52 3 31.44 6.4 47.81 9 16.36 2.6 33.08 5.4 50.18 7.3 17.08 2.4 34.51 3.9 52.2 5.3 17.69 1.7 35.66 1.9 53.82 2.9 18.15 0 36.53.6 54.98-.2 18.45-.9 37.07-1.3 55.62-3.4 9.32-.9 18.62-1.8 27.9-2.7 9.29-1.4 18.55-2.7 27.77-4.1 37.06-5.3 73.55-13.8 108.89-23.8 17.71-4.9 34.72-11.3 51.75-16.9 16.87-6.1 32.97-13.3 48.98-19.8 31.39-14.3 60.99-29.2 87.11-45.3 6.63-3.9 13.12-7.8 19.46-11.6 6.08-4.1 12.02-8.2 17.81-12.1 11.55-8 22.73-15.5 32.9-23 19.53-15.6 37.18-29.2 50.74-41.2 26.66-24.7 41.9-38.9 41.9-38.9l.6-.6c69.77-64.8 73.8-173.9 9-243.6-64.81-69.8-173.9-73.8-243.67-9-14.18 13.1-25.95 28.8-34.68 44.9 0 0-6.17 11.6-16.97 31.7-5.62 10.1-13.42 21.4-21.91 35.3-4.59 6.6-9.82 13.2-15.18 20.6-2.71 3.7-5.48 7.5-8.33 11.4-3.12 3.6-6.32 7.3-9.58 11-12.75 15.7-28.2 31.3-45.39 47.6-9 7.6-17.93 16.1-27.86 23.9-10.16 7.4-20.19 15.9-31.32 23.3-22.11 15-46.13 30-72.29 43-6.56 3.3-13.15 6.6-19.75 9.9-6.83 3-13.68 6-20.54 9-13.69 6.4-28.07 11.4-42.44 16.9-14.39 5.5-29.27 9.8-44.04 14.7-15 4-29.94 8.8-45.12 12.2-15.15 3.6-30.3 7.2-45.48 9.9-15.14 3.2-30.28 5.5-45.26 7.8-14.98 2.4-29.84 4-44.46 5.8-14.61 1.3-29.02 3.1-43.07 3.8-28.15 2.2-54.98 2.9-79.88 3.2-49.79.4-91.66-2.3-120.97-4.9-29.3-2.7-46.02-5.4-46.02-5.4"
          ></path>
          <path
            fill="#100f0d"
            fillOpacity="1"
            fillRule="nonzero"
            stroke="none"
            d="M8589.05 10213.2s-3.66.3-10.52 1c-7.1.6-17.53 1.4-30.79 2.5-26.72 2.1-65.17 4.9-111.44 7.7-92.53 5.5-216.43 11.2-340.21 11.7-30.93.1-61.91 0-92.32-.6-30.45-.5-60.4-1.4-89.32-2.8-57.87-2.7-111.76-7.1-157.66-13.2-22.92-3-43.91-6.4-62.36-10.1-9.35-1.6-17.81-3.7-25.78-5.6-8-1.8-15.31-3.6-21.75-5.6-6.54-1.9-12.39-3.6-17.47-5.1-4.98-1.8-9.21-3.4-12.64-4.6-6.94-2.6-10.64-3.9-10.64-3.9s3.04 2.5 8.72 7.2c2.89 2.3 6.44 5.3 10.63 8.7 4.39 3.2 9.43 6.8 15.08 10.9 5.65 4.2 12.11 8.4 19.25 12.9 7.12 4.5 14.83 9.6 23.31 14.4 16.83 10 36.24 20.6 57.73 31.5 42.99 21.9 94.39 44.9 150.2 67.5 27.9 11.4 56.9 22.6 86.49 33.6 29.6 11.1 59.79 21.8 90.08 32.4 121.17 42.2 243.84 79.2 336.44 105.7 46.31 13.3 85.11 23.9 112.49 31.2 13.79 3.6 24.63 6.5 32.01 8.4 7.65 1.9 11.72 3 11.72 3l2.91.7c92.52 23.2 186.38-32.9 209.62-125.4 23.25-92.6-32.92-186.4-125.45-209.7-19.37-4.8-39.5-6.1-58.33-4.4"
          ></path>
          <path
            fill="#100f0d"
            fillOpacity="1"
            fillRule="nonzero"
            stroke="none"
            d="M10126.5 7525.5l-120-1863.6-119.96 1863.6c-4.27 66.3 46 123.5 112.28 127.8 66.28 4.2 123.48-46 127.68-112.3.4-5 .3-10.6 0-15.5"
          ></path>
        </g>
      </g>
    </svg>