<svg
      xmlns="http://www.w3.org/2000/svg"
      width="2666.667"
      height="2666.667"
      version="1.1"
      viewBox="0 0 2666.667 2666.667"
      xmlSpace="preserve"
    >
      <g transform="matrix(1.33333 0 0 -1.33333 0 2666.667)">
        <g transform="scale(.1)">
          <g transform="scale(1.22699)">
            <path
              fill="#82bc0000"
              fillOpacity="1"
              fillRule="nonzero"
              stroke="none"
              d="M16300 0H0v16300h16300V0"
            ></path>
          </g>
          <path
            fill="#c2955c"
            fillOpacity="1"
            fillRule="nonzero"
            stroke="none"
            d="M11512.5 12812.5s372.3 1220.5 1456.1 660.3c1083.9-560.3-586.1-1140.3-586.1-1140.3l-870 480"
          ></path>
          <path
            fill="#100f0d"
            fillOpacity="1"
            fillRule="nonzero"
            stroke="none"
            d="M11661.7 12867.3l730.7-403.2c78.5 30.1 239.5 95.7 399.7 184.5 260 144.1 413.8 292.8 422 407.8 8.7 123.1-158.6 236.4-300.6 309.8-171.6 88.7-333 133.7-479.7 133.7-451.7 0-689.3-439-772.1-632.6zm720.8-654.8c-20.1 0-40 5.1-58 15l-870 480c-49.6 27.4-73.3 85.8-56.8 140 2.8 9.1 69.2 223.5 225.1 439 214.5 296.6 494.9 453.4 811 453.4 185.4 0 383.9-54 589.9-160.5 299.7-155 444.3-336.7 429.8-540.2-14.8-206.8-199.1-409.3-547.9-602.1-240.5-132.9-473.9-214.5-483.7-217.9-12.8-4.5-26.1-6.7-39.4-6.7"
          ></path>
          <path
            fill="#c2955c"
            fillOpacity="1"
            fillRule="nonzero"
            stroke="none"
            d="M8492.53 12812.5s-372.27 1220.5-1456.14 660.3c-1083.86-560.3 586.14-1140.3 586.14-1140.3l870 480"
          ></path>
          <path
            fill="#100f0d"
            fillOpacity="1"
            fillRule="nonzero"
            stroke="none"
            d="M7571.19 13499.9c-146.65 0-308.04-45-479.69-133.7-141.95-73.4-309.31-186.7-300.55-309.8 8.18-115 161.98-263.7 421.94-407.8 160.29-88.8 321.27-154.4 399.77-184.5l730.69 403.2c-82.77 193.5-320.37 632.6-772.16 632.6zm51.33-1287.4c-13.26 0-26.57 2.2-39.36 6.7-9.82 3.4-243.22 85-483.73 217.9-348.75 192.8-533.08 395.3-547.87 602.1-14.55 203.5 130.03 385.2 429.73 540.2 206.06 106.5 404.53 160.5 589.9 160.5 316.11 0 596.57-156.8 811.04-453.4 155.87-215.5 222.32-429.9 225.07-439 16.55-54.2-7.14-112.6-56.8-140l-870-480c-17.95-9.9-37.91-15-57.98-15"
          ></path>
          <path
            fill="#c2955c"
            fillOpacity="1"
            fillRule="nonzero"
            stroke="none"
            d="M13075.8 7207.7s1444.7 3654.8 60.6 5089.4c-1384 1434.6-3125.9 1085.1-3125.9 1085.1h-9.9s-1741.85 349.5-3125.94-1085.1c-1384.1-1434.6 60.69-5089.4 60.69-5089.4"
          ></path>
          <path
            fill="#fff"
            fillOpacity="1"
            fillRule="nonzero"
            stroke="none"
            d="M11829.7 10293l-1418.1 1451.2s-190 1134.6 61.2 1675.4c-284-1.5-461.6-36.3-467.2-37.4-5.73 1.1-183.34 35.9-467.33 37.4 251.21-540.8 61.25-1675.4 61.25-1675.4L8181.42 10293c-893.74-1294.1-1419.36-1116.7-1843.75-1172.9 148.04-749.5 402.94-1912.4 402.94-1912.4H10003l2.6 5584.5 2.5-5584.5h3262.4s254.9 1162.9 402.9 1912.4c-424.4 56.2-950-121.2-1843.7 1172.9"
          ></path>
          <path
            fill="#100f0d"
            fillOpacity="1"
            fillRule="nonzero"
            stroke="none"
            d="M6935.39 7087.6c-47.81 0-92.99 28.8-111.63 75.9-3.66 9.3-367.94 937.9-556.05 2030.6-111.16 645.6-140.36 1222.8-86.78 1715.5 68.4 629.2 272.75 1124 607.37 1470.8 325.83 337.7 698.44 606.9 1107.47 800 327.23 154.4 678.13 260.7 1042.95 315.8 558.95 84.5 974.61 23.1 1066.88 7.1 92.2 16 507.8 77.4 1066.8-7.1 364.8-55.1 715.7-161.4 1042.9-315.8 409.1-193.1 781.7-462.3 1107.5-800 334.6-346.8 539-841.6 607.4-1470.8 53.6-492.7 24.4-1069.9-86.8-1715.5-188.1-1092.7-552.4-2021.3-556-2030.6-24.4-61.6-94.1-91.8-155.8-67.4-61.6 24.3-91.8 94-67.5 155.7 3.6 9 359.9 917.9 543.4 1986.8 166.4 968.6 222 2271-457.4 2975.2-691.7 716.8-1476.8 964-2013.6 1045.1-580.9 87.8-998.2 6.4-1002.4 5.6-7.7-1.6-15.6-2.3-23.6-2.3h-9.9c-7.96 0-15.87.7-23.64 2.3-4.08.8-429.19 82.6-1011.9-7-776.9-119.5-1451.16-470.7-2004.05-1043.7-680.08-704.9-623.78-2009.1-456.78-2979 183.95-1068.5 539.16-1974 542.72-1983 24.37-61.7-5.85-131.4-67.48-155.7-14.48-5.8-29.41-8.5-44.08-8.5"
          ></path>
          <path
            fill="#100f0d"
            fillOpacity="1"
            fillRule="nonzero"
            stroke="none"
            d="M11834.8 9169.4s132-1445-1854.46-1445h24.96c-1986.42 0-1854.4 1445-1854.4 1445s1342.62 585 1849.03 585c506.37 0 1834.87-585 1834.87-585"
          ></path>
          <path
            fill="#fff"
            fillOpacity="1"
            fillRule="nonzero"
            stroke="none"
            d="M12061.2 9985.7s-632.2 715.8-888.8 1265.2c-266.7 570.8-985.4 579.8-1166.8 579.8-181.48 0-900.24-9-1166.9-579.8-256.61-549.4-888.77-1265.2-888.77-1265.2"
          ></path>
          <path
            fill="#100f0d"
            fillOpacity="1"
            fillRule="nonzero"
            stroke="none"
            d="M12061.2 9985.7s-4.2 3.9-12.4 11.5-20.5 18.7-35.8 33.8c-31 30.1-76.6 74-132.6 131.9-56.2 57.8-123 129.3-197.7 213.3-74.3 84.3-156.4 181.1-241.9 290.7-84.9 110.1-173.8 232.3-258.5 370.2-10.5 17.3-21.1 34.7-31.8 52.2l-7.9 13.3-7.5 13.7c-4.9 9.1-9.9 18.3-14.9 27.6-10 18.4-20.1 37-30.2 55.7-9.4 17.1-18.9 34.3-28.5 51.7l-3.7 6.7-3.6 5.4-7.1 10.8c-4.7 7.3-9.4 14.5-14.1 21.8-10.9 14.6-21.4 30-32.8 44.6-23.5 28.8-48 57.1-75.9 82.6-26.9 26.4-57.5 49.5-88.2 72.5l-24 16.3-12.1 8.2-12.5 7.6-25 15.3-26 14.1-13 7.1-13.5 6.5-26.8 13.1c-18.6 7.8-36.6 16.5-55.7 23.4-37.5 15.3-76.5 28.2-116.1 39.8-79.6 23.2-162.8 38.6-247.5 49.3-84.8 10.6-170.8 14.9-258 14.3l-33.41-.1-32.47-.4c-21.63-.6-43.21-1.3-64.7-2.5-43.01-2.3-85.78-6.1-128.13-11.4-84.66-10.7-167.87-26.3-247.38-49.3-39.66-11.7-78.71-24.5-116.09-39.9-19.09-7-37.14-15.7-55.66-23.5l-26.87-13-13.43-6.5-13-7.1-25.99-14.1-25.04-15.3-12.52-7.6-12.02-8.2-24.01-16.3c-30.68-23.1-61.22-46.2-88.15-72.6-55.04-51.6-101.11-110.5-138.21-173.9-4.47-8-8.92-16.1-13.37-24.1l-6.71-11.9-1.68-3c-2.36-4.8-1.18-2.3-1.94-3.8l-.92-1.7-3.66-6.8c-9.75-17.9-19.45-35.8-29.08-53.5-4.82-8.9-9.63-17.7-14.42-26.5l-7.18-13.3-8.06-13.5a19020.7 19020.7 0 01-32.25-53.3c-10.81-17.4-21.18-35.4-32.13-51.9-10.92-16.6-21.77-33-32.53-49.3-10.76-16.3-21.44-32.5-32.03-48.5-10.87-15.8-21.97-31.2-32.91-46.5-43.31-61.7-87.08-119.5-129.35-174.7-85.52-109.5-167.69-206.3-241.97-290.7-74.72-84-141.58-155.4-197.78-213.2-56.04-57.9-101.72-101.8-132.67-131.8-15.4-15.1-27.7-26.2-35.83-33.8-8.19-7.6-12.42-11.5-12.42-11.5s13.14 18.9 37.77 54.3c24.94 35 60.23 87.5 105.84 153.4 45.26 66.2 99.98 146.5 161.59 239.2 30.2 46.7 63.68 95.4 96.75 148.2 16.53 26.3 34.39 52.8 51.57 80.5 17.24 27.6 34.89 55.9 52.91 84.8 35.05 58.2 72.48 118.2 108.04 181.8 9.09 15.8 18.26 31.7 27.5 47.8 8.82 16.1 17.71 32.5 26.67 48.9 8.95 16.4 17.96 33 27.05 49.6 9.13 16.7 16.81 33.4 25.38 50.2 8.41 16.7 16.87 33.5 25.39 50.5l6.48 12.7 6.24 13.6c4.17 9.1 8.34 18.3 12.54 27.5 8.38 18.4 16.81 36.8 25.29 55.4 4.24 9.2 8.48 18.4 12.74 27.7 4.84 10.3 9.69 20.6 14.55 31 40.13 82.6 95.97 160.6 162.07 230.4 32.76 35.4 69.22 67.4 107.25 97.8 9.75 7.2 19.52 14.4 29.31 21.7l14.75 10.8 15.18 10.1 30.53 20.2 31.39 18.8c84.02 49.9 174.71 88 267.62 117.2 93 29 188.32 50.2 284.51 62.5 48.07 6.4 96.32 11 144.59 14 24.14 1.6 48.28 2.5 72.39 3.3l36.15.8 35.23.3c192-.1 387.6-22.1 573.5-81.1 92.9-29.1 183.5-67.4 267.6-117.2l31.4-18.8 30.5-20.2 15.2-10.1 14.7-10.8c9.8-7.3 19.6-14.5 29.3-21.7 38-30.5 74.4-62.5 107.2-97.8 33.6-34.4 63.1-72.2 90.7-110.4 13.4-19.4 25.9-39.1 38.4-59l17.7-32.1 8.7-15.9 4.3-8 3.2-7c9.1-19.6 18.1-39 27.1-58.4 8.1-17.8 16.2-35.6 24.2-53.2 15.4-35.5 33.5-69.8 50.5-104.1 8.7-17 16.7-34.2 25.8-50.8 9.1-16.7 18.1-33.2 27.1-49.7 8.9-16.4 17.8-32.7 26.6-48.9 9.3-16.1 18.4-32 27.5-47.8 35.6-63.6 73.1-123.5 108.1-181.8 71.4-115.8 140-220.6 201.3-313.5 61.6-92.6 116.4-172.9 161.7-239.1 45.6-65.9 80.9-118.3 105.9-153.4 24.6-35.3 37.8-54.2 37.8-54.2"
          ></path>
          <path
            fill="#fff"
            fillOpacity="1"
            fillRule="nonzero"
            stroke="none"
            d="M12164.5 9638.3s-68.9-692.6-727.5-598.9c-658.5 93.7-669.7 715-1437.12 715h.05c-767.38 0-778.63-621.3-1437.16-715-658.54-93.7-727.44 598.9-727.44 598.9"
          ></path>
          <path
            fill="#100f0d"
            fillOpacity="1"
            fillRule="nonzero"
            stroke="none"
            d="M12164.5 9638.3c-.2-57-8.6-114.2-21.4-170.6-6.3-28.3-15-56.1-24.1-83.9-9.7-27.6-20.6-55-33.7-81.6-25.5-53.5-58.1-104.9-99-150.7-40.8-45.9-90-85.7-144.8-116.8-55-31.1-115.5-52.3-177.1-65.3-61.8-12.8-124.4-15.2-186.2-13.5l-46.2 2.8-5.7.3-7.7 1-10.6 1.2-21 2.7-21.1 2.6c-7.1 1-15.5 2.8-23.2 4.2-15.6 3-31.6 5.8-47 9.2-60.3 13.9-120.1 33.1-177.2 58.6-57.4 25.1-111.7 56.3-162.6 90.6-51 34.3-98.2 72.1-143 109.9-44.9 38-87.6 76-128.9 112.8-41.4 36.6-82.3 71.2-123.9 102.2-41.6 30.8-83.6 58.7-127.1 82.1-43.4 23.7-88.6 42.2-135.5 56.6-23.2 7.9-47.4 13.1-71.3 19.3-24.5 4.4-48.6 10.1-73.8 12.7-49.6 7.5-101 8.9-152.52 9.7v239.9h.05c66.27.3 120.17-53.2 120.47-119.4.2-65.6-52.2-119.1-117.5-120.4l-2.97-.1c-51.5-1-102.97-2.3-152.54-9.8-25.17-2.6-49.27-8.2-73.78-12.6-23.85-6.2-48.1-11.4-71.21-19.5-46.88-14.3-92.15-32.8-135.53-56.5-43.58-23.4-85.35-51.4-127.03-82.2-41.57-31-82.41-65.6-123.85-102.2-41.33-36.8-83.95-74.9-128.82-112.8-44.89-37.9-92.11-75.6-143.01-110-50.94-34.3-105.33-65.5-162.7-90.6-57.16-25.5-116.93-44.8-177.23-58.7-15.11-3.2-30.3-5.9-45.41-8.8-7.57-1.4-15.1-3-22.69-4.1l-22.76-3-22.72-2.9-11.36-1.4-8.36-.9-5.3-.3-42.41-2.4-10.6-.5c-3.61-.2-8-.1-11.95-.1l-24.31.1c-16.19.1-32.42 0-47.83 1.7-15.6 1.5-31.12 2.3-46.67 4.4l-46.5 7.8c-61.67 12.9-122.17 34.3-177.15 65.3-54.88 31.1-104.08 71.1-144.87 116.9-40.9 45.9-73.47 97.3-99.03 150.8-13.09 26.6-23.88 54.1-33.69 81.6-9.07 27.9-17.67 55.7-24 84-12.77 56.4-21.14 113.5-21.29 170.6 13.84-55.1 32.92-108.3 55.75-159.1 22.65-50.9 49.64-99.2 81.01-143.4 31.57-43.9 66.65-84.5 107.04-117.3 40.08-33.2 84.02-59.8 130.83-78.1 46.64-18.6 95.76-29.6 145.84-33.7 12.66-.5 25.25-1.1 37.77-1.8 12.59-.4 25.41.5 38.03.6 12.85-.1 24.86 1.5 36.93 2.7l18.06 1.7c3.1.4 5.8.4 9.22 1l10.48 1.7 41.91 6.8 35.94 8.1 19.03 4.2c6.32 1.5 12.45 3.5 18.68 5.2 12.37 3.7 24.83 7 37.09 10.8 48.77 16.1 95.28 36.5 139.97 60.2 44.7 23.6 86.81 52.3 127.44 84.3 40.78 31.7 80.33 66.8 119.7 104.3 39.41 37.4 78.71 77.3 120.46 117.2 41.67 40.1 85.49 80.7 133.02 119.3 47.36 38.9 99.21 74.8 154.44 106.5 55.11 31.9 114.37 58.1 175.04 78.4 15.15 5.3 30.38 10.3 45.84 14.1 15.42 4 30.82 8.3 46.28 12 31.02 6.2 62.08 13.3 93.18 16.9 62.29 9.7 124.13 12.2 185.61 13.4v-239.9h-3.18c-66.26.3-119.75 54.2-119.47 120.5.28 66.3 54.22 119.7 120.47 119.5.51 0 1.64 0 2.14-.1 61.52-1.3 123.32-3.7 185.62-13.4 31.1-3.7 62.1-10.8 93.2-16.9 15.4-3.7 30.8-8 46.2-12.1 15.5-3.7 30.7-9 45.8-14.2 60.7-20.3 119.9-46.5 175-78.4 55.3-31.5 107-67.7 154.4-106.5 47.5-38.6 91.4-79.2 133-119.2 41.8-39.9 81-80 120.4-117.3 39.4-37.6 79-72.5 119.7-104.4 40.7-32 82.8-60.7 127.6-84.3 44.7-23.6 91.2-44.2 140-60.2 11.9-3.7 23.6-6.9 35.4-10.4 6.1-1.7 11.4-3.6 18.2-5.2l20.7-4.5 20.8-4.6 10.3-2.4 2.6-.5 1.3-.3.6-.2c-4.4.7-.9.2-1.7.3l4.7-.8 38.2-6.4c50.8-7.1 102-10.1 152.2-6.1 50.1 4.2 99.2 15.2 145.9 33.8 46.8 18.4 90.7 45.1 130.9 78.2 40.3 32.9 75.4 73.5 107 117.4 16 21.9 29.8 45.5 43.8 69.2 13.2 24.1 26 48.7 37.1 74.3 22.8 50.8 41.9 103.9 55.7 159.1"
          ></path>
          <path
            fill="#100f0d"
            fillOpacity="1"
            fillRule="nonzero"
            stroke="none"
            d="M10890.5 11198.1c0-330.9-402.1-970.4-897.98-970.4-495.93 0-897.96 639.5-897.96 970.4s402.03 450.6 897.96 450.6c495.88 0 897.98-119.7 897.98-450.6"
          ></path>
          <path
            fill="#100f0d"
            fillOpacity="1"
            fillRule="nonzero"
            stroke="none"
            d="M9874.48 9667.7l120 816.7 120.02-816.7c9.7-66.3-36.1-127.9-102.4-137.6-66.26-9.8-127.88 36.1-137.62 102.3-1.74 11.9-1.6 24.1 0 35.3"
          ></path>
          <path
            fill="#100f0d"
            fillOpacity="1"
            fillRule="nonzero"
            stroke="none"
            d="M12164.1 11520.7c0-248.5-201.5-450-450-450s-450 201.5-450 450 201.5 450 450 450 450-201.5 450-450"
          ></path>
          <path
            fill="#fff"
            fillOpacity="1"
            fillRule="nonzero"
            stroke="none"
            d="M11963.6 11720.2c0-66-53.5-119.5-119.5-119.5s-119.5 53.5-119.5 119.5 53.5 119.5 119.5 119.5 119.5-53.5 119.5-119.5"
          ></path>
          <path
            fill="#100f0d"
            fillOpacity="1"
            fillRule="nonzero"
            stroke="none"
            d="M8735.74 11520.7c0-248.5-201.47-450-450-450s-450 201.5-450 450 201.47 450 450 450 450-201.5 450-450"
          ></path>
          <path
            fill="#fff"
            fillOpacity="1"
            fillRule="nonzero"
            stroke="none"
            d="M8535.21 11720.2c0-66-53.49-119.5-119.47-119.5-65.98 0-119.47 53.5-119.47 119.5s53.49 119.5 119.47 119.5c65.98 0 119.47-53.5 119.47-119.5"
          ></path>
          <path
            fill="#c2955c"
            fillOpacity="1"
            fillRule="nonzero"
            stroke="none"
            d="M12248.9 12975.9s-407.4 775.4 496.3 624.9c903.7-150.4 2048 385.1 1958.8-511.4-89.1-896.6-509.7-1267.1-415.4-2102.2 96-849.6-1594.2 595.8-2039.7 1988.7"
          ></path>
          <path
            fill="#100f0d"
            fillOpacity="1"
            fillRule="nonzero"
            stroke="none"
            d="M12535 13500.2c-84.5 0-193.8-14.1-234.5-81.2-64.6-106.3 20-320.8 54.8-387.6 3.1-6 5.8-12.5 7.9-19 153.3-479.2 482.4-1022.9 903-1491.6 393-437.9 739.7-667 879.2-667 8.8 0 13.8 1.2 15.6 1.9 5.4 6.9 17.1 41 8.4 118.1-56.7 501.5 62.4 844.6 188.5 1207.8 93.2 268.7 189.6 546.5 226.7 919.6 14.1 141.4-5.3 239.1-59.3 298.7-64.9 71.7-195.2 105.1-410.1 105.1-129.3 0-276-11.7-431.4-24.1-178.2-14.1-362.4-28.7-549.4-28.7-152.7 0-286.5 9.9-408.9 30.2-70.7 11.8-134.8 17.8-190.5 17.8zm1610.4-2886.4c-359.8 0-900.6 571.5-1057.8 746.7-439.7 490-785.5 1061.4-950 1569.4-34.3 68.6-179.5 386.6-42.7 613 79.1 130.9 227.2 197.3 440.1 197.3 68.8 0 146.2-7.1 229.9-21 109.2-18.2 230.1-27 369.5-27 177.5 0 356.9 14.2 530.4 28 160.2 12.7 311.6 24.8 450.4 24.8 196.2 0 440.4-20.9 588-184 102.1-112.7 141.4-270.9 120.3-483.5-39.9-401.4-145.7-705.9-238.9-974.6-122-351.4-227.3-654.8-176.8-1102.2 15.5-136.8-6.8-236.7-68.2-305.4-33.2-37.2-93.8-81.5-194.2-81.5"
          ></path>
          <g transform="scale(1.13854)">
            <path
              fill="#fff"
              fillOpacity="1"
              fillRule="nonzero"
              stroke="none"
              d="M1266.38 6330.65H16300"
            ></path>
          </g>
          <path
            fill="#c2955c"
            fillOpacity="1"
            fillRule="nonzero"
            stroke="none"
            d="M7756.13 12975.9s407.41 775.4-496.27 624.9c-903.69-150.4-2048.01 385.1-1958.87-511.4 89.13-896.6 509.79-1267.1 415.44-2102.2-95.99-849.6 1594.21 595.8 2039.7 1988.7"
          ></path>
          <path
            fill="#100f0d"
            fillOpacity="1"
            fillRule="nonzero"
            stroke="none"
            d="M5843.99 10855.7c1.83-.7 7.15-1.8 15.69-1.9 139.48 0 486.21 229 879.1 666.9 420.63 468.8 749.78 1012.5 903.05 1491.7 2.13 6.7 4.83 13.1 8.07 19.3 34.6 66.5 119.19 281 54.67 387.3-40.75 67.1-150.04 81.2-234.54 81.2-55.68 0-119.76-6-190.47-17.8-122.42-20.3-256.18-30.2-408.91-30.2-187.01 0-371.26 14.6-549.45 28.7-155.34 12.4-302.06 24.1-431.38 24.1-214.89 0-345.21-33.4-410.11-105.1-53.97-59.6-73.37-157.3-59.32-298.7 37.1-373.1 133.52-650.9 226.78-919.6 126.07-363.2 245.16-706.3 188.5-1207.8-8.71-77.1 2.97-111.2 8.32-118.1zm15.68-241.9h-.14c-100.31 0-160.93 44.4-194.13 81.5-61.35 68.7-83.67 168.6-68.21 305.4 50.54 447.4-54.79 750.8-176.76 1102.2-93.25 268.7-198.96 573.2-238.86 974.6-21.14 212.6 18.19 370.8 120.24 483.5 147.65 163.1 391.8 184 588.01 184 138.84 0 290.17-12.1 450.39-24.8 173.52-13.8 352.95-28 530.43-28 139.39 0 260.26 8.8 369.51 27 83.69 13.9 161.03 21 229.88 21 212.91 0 360.97-66.4 440.09-197.3 136.77-226.4-8.39-544.4-42.72-613-164.48-508-510.29-1079.5-949.99-1569.5-157.17-175.1-697.89-746.6-1057.74-746.6"
          ></path>
          <path
            fill="#f57385"
            fillOpacity="1"
            fillRule="nonzero"
            stroke="none"
            d="M10962.2 8503.9c-398.6 327.1-927.9 22.9-964.46 1.3-36.52 21.6-565.9 325.8-964.44-1.3-412.6-338.5-561.92-2014.8 962.37-2017.8v-.1c.69 0 1.37.1 2.07.1.7 0 1.38-.1 2.07-.1v.1c1524.29 3 1374.99 1679.3 962.39 2017.8"
          ></path>
          <path
            fill="#100f0d"
            fillOpacity="1"
            fillRule="nonzero"
            stroke="none"
            d="M9467.43 8534.6c-137.78 0-258.23-41.5-358.01-123.4-92.17-75.7-173.09-251.3-211.18-458.5-44.28-240.8-27.33-489.4 47.73-699.9 104.96-294.3 372.32-645.4 1049.94-646.7.69 0 1.41-.1 2.08 0h1.59c677.62 1.3 944.92 352.4 1049.92 646.7 75.1 210.5 92 459.1 47.7 699.9-38.1 207.2-119 382.8-211.1 458.5-99.8 81.9-220.3 123.4-358 123.4-242.8 0-460-127.2-469.1-132.6-37.8-22.4-84.73-22.4-122.47 0-9.13 5.4-226.38 132.6-469.1 132.6zM9999.82 6366l-2.11.1-2.04-.1c-1 0-2 .1-3 .1-858.22 2.8-1165.75 506.1-1272.75 806.1-194.2 544.5-34.91 1201.2 237.26 1424.5 143.82 118 315.49 177.9 510.25 177.9 227.51 0 431.11-84.4 530.31-133.4 99.26 49 302.76 133.4 530.36 133.4 194.7 0 366.4-59.9 510.2-177.9 272.2-223.3 431.5-880 237.3-1424.5-107-300-414.6-803.3-1272.8-806.1-1 0-2-.1-2.98-.1"
          ></path>
          <path
            fill="#fff"
            fillOpacity="1"
            fillRule="nonzero"
            stroke="none"
            d="M6206.21 6975s215.6-524.9 638.8-129.8c423.2 395 78.95 2173.2-1578.93 1890C3608.21 8452 4080.15 6511.7 4432.5 6406.8c352.34-104.9 539.14 51.8 637.42 443.5 0 0 3.43-544.4 595.86-461.4 592.43 83.1 540.43 586.1 540.43 586.1"
          ></path>
          <path
            fill="#100f0d"
            fillOpacity="1"
            fillRule="nonzero"
            stroke="none"
            d="M5609.1 8645.6c-102.74 0-211.35-9.7-322.81-28.7-875.87-149.6-1048.4-784.4-1073.29-1149.5-15.09-221.3 15.66-462.5 84.38-661.9 66.59-193.3 144.2-275.7 169.38-283.7 59.69-17.7 113.58-26.8 160.19-26.8 113.79 0 241.59 45.7 326.58 384.5 14.71 58.6 70.71 97.1 130.73 89.9 60.01-7.2 105.28-57.9 105.66-118.4.01-.3 2.31-96.4 50.96-187.1 59.02-110.1 159.65-163.6 307.64-163.6h.01c31.46 0 65.3 2.5 100.59 7.5 198.23 27.8 331.42 110.7 395.87 246.4 50.18 105.8 41.85 208.3 41.76 209.3-6.13 59.3 32.29 113.7 90.14 128.3 57.83 14.5 117.65-16.1 140.31-71.2.66-1.6 89.2-202.7 227.38-202.7 62.39 0 137.96 39.7 218.54 115 137.6 128.4 187.82 516.4 29.01 919.2-94.05 238.6-397.6 793.5-1183.03 793.5zM4626.95 6255c-69.81 0-146.76 12.4-228.7 36.8-255.26 76-458.15 637-425.66 1177 19.89 330.5 125.57 625.9 305.61 854.2 220.86 280 546.43 458.5 967.68 530.5 124.77 21.3 246.97 32.1 363.22 32.1 353.93 0 662.43-97.3 916.92-289.1 214.7-161.9 383.92-388.8 489.38-656.3 180.74-458.5 142.68-966.9-88.5-1182.8-127.63-119.1-256.26-179.5-382.32-179.5-110.95 0-200.29 45.6-269.2 104-2.47-5.9-5.04-11.9-7.74-17.9-68.08-151.8-224.88-343.4-585.21-393.9-46.29-6.5-91.34-9.8-133.9-9.8h-.02c-262.73 0-408.96 120.1-489.53 240.7-20.02-31.8-41.57-60.4-64.73-86-96.08-106.1-219.65-160-367.3-160"
          ></path>
          <g transform="scale(1.00471)">
            <path
              fill="#fff"
              fillOpacity="1"
              fillRule="nonzero"
              stroke="none"
              d="M13714.2 6942.29s-214.6-522.44-635.8-129.19c-421.2 393.15-78.6 2163.01 1571.5 1881.13 1650.1-281.87 1180.4-2213.07 829.7-2317.47-350.7-104.42-536.6 51.55-634.4 441.42 0 0-3.4-541.85-593.1-459.24-589.7 82.71-537.9 583.35-537.9 583.35"
            ></path>
          </g>
          <path
            fill="#100f0d"
            fillOpacity="1"
            fillRule="nonzero"
            stroke="none"
            d="M14915.1 6970.6c54.4 0 102.9-37.2 116.4-91.1 85-338.8 212.8-384.5 326.6-384.5 46.6 0 100.5 9.1 160.2 26.8 25.2 8 102.8 90.4 169.4 283.7 68.7 199.4 99.4 440.6 84.3 661.9-24.9 365.1-197.4 999.9-1073.3 1149.5-111.4 19-220 28.7-322.8 28.7-785.4 0-1088.9-554.9-1183-793.5-158.8-402.8-108.6-790.8 29-919.2 80.6-75.3 156.2-115 218.5-115 138 0 226.6 200.6 227.4 202.7 22.7 55.1 82.5 85.3 140.3 70.7 57.8-14.5 96.2-69.3 90.1-128.7 0-.1-8.3-102.6 41.8-208.4 64.5-135.7 197.7-218.6 395.9-246.4 35.3-5 69.2-7.5 100.6-7.5 148 0 248.6 53.5 307.6 163.6 48.7 90.7 51 186.8 51 187.8.4 60.4 45.7 110.8 105.7 118 4.8.6 9.6.9 14.3.9zm443-715.6c-147.7 0-271.2 53.9-367.3 160-23.2 25.6-44.7 54.2-64.7 86-80.6-120.6-226.9-240.7-489.6-240.7-42.5 0-87.6 3.3-133.9 9.8-360.3 50.5-517.1 242.1-585.2 393.9-2.7 6-5.3 12-7.7 17.9-69-58.4-158.3-104-269.3-104-126 0-254.6 60.4-382.3 179.5-231.2 215.9-269.2 724.3-88.5 1182.8 105.5 267.5 274.7 494.4 489.4 656.3 254.5 191.8 563 289.1 916.9 289.1 116.3 0 238.5-10.8 363.3-32.1 421.2-72 746.8-250.5 967.6-530.5 180.1-228.3 285.7-523.7 305.6-854.2 32.5-540-170.4-1101-425.6-1177-82-24.4-158.9-36.7-228.7-36.8"
          ></path>
          <path
            fill="#100f0d"
            fillOpacity="1"
            fillRule="nonzero"
            stroke="none"
            d="M10117.7 8505.2L9997.74 6770l-120 1735.2c-4.58 66.3 45.43 123.7 111.7 128.3 66.26 4.6 123.76-45.4 128.26-111.7.4-5.4.4-11.4 0-16.6"
          ></path>
        </g>
      </g>
    </svg>