    <svg
      xmlns="http://www.w3.org/2000/svg"
      width="2666.667"
      height="2666.667"
      version="1.1"
      viewBox="0 0 2666.667 2666.667"
      xmlSpace="preserve"
    >
      <g transform="matrix(1.33333 0 0 -1.33333 0 2666.667)">
        <g transform="scale(.1)">
          <g transform="scale(1.22699)">
            <path
              fill="#82bc0000"
              fillOpacity="1"
              fillRule="nonzero"
              stroke="none"
              d="M16300 0H0v16300h16300V0"
            ></path>
          </g>
          <path
            fill="#a17445"
            fillOpacity="1"
            fillRule="nonzero"
            stroke="none"
            d="M11383.8 13663.8s1035.6 957.5 1983.1 604.1 1157-2449.4-261.5-1150.7c0 0-235-668.7-490.1-551.6-255.1 117.1-1231.5 1098.2-1231.5 1098.2"
          ></path>
          <path
            fill="#62312d"
            fillOpacity="1"
            fillRule="nonzero"
            stroke="none"
            d="M11530.5 13657.9c390.1-387.8 962.2-926.5 1126.3-1001.8 7-3.2 13.2-4.7 19.6-4.7 41 0 118.4 60.2 212.7 229.4 73.7 132.4 121.9 268.1 122.4 269.4 11.1 31.6 37.3 55.4 69.7 63.5 32.4 8.2 66.7-.5 91.4-23.1 374.2-342.6 579.3-393.7 668.2-393.7h.1c34.9 0 141.3 0 174.1 182.2 32.1 178.2-22.3 433.1-142 665.3-135.2 262.3-327.3 450.6-540.9 530.2-128.1 47.8-266.1 72-410.2 72-606 0-1185.3-421.4-1391.4-588.7zm1145.9-1205.6c-35.1 0-69.6 7.6-102.6 22.8-263.9 121.1-1159.3 1016.7-1260.5 1118.4-19.1 19.2-29.6 45.3-29 72.3.6 27.1 12.1 52.7 31.9 71.1 7.9 7.2 195.5 179.5 485.5 353.5 270.4 162.1 684.2 355.3 1120.2 355.3 167.9 0 329.3-28.4 479.8-84.5 260.1-97 490.3-319.2 648.3-625.6 140.9-273.3 201.1-569.3 161-791.8-39.7-219.9-174.5-346-370-346.1h-.2c-185.8 0-419.5 118.3-695.8 351.9-21.5-48.7-48.8-105.9-80.7-163.4-124.7-224.7-251.6-333.9-387.9-333.9"
          ></path>
          <path
            fill="#a17445"
            fillOpacity="1"
            fillRule="nonzero"
            stroke="none"
            d="M6772.81 12997.9s-1257.65 638.3-2072.64 39.7c-815-598.7-444.18-2672.3 565.81-1035.6 0 0 408.65-579.1 622.09-396.8 213.43 182.3 884.74 1392.7 884.74 1392.7"
          ></path>
          <path
            fill="#62312d"
            fillOpacity="1"
            fillRule="nonzero"
            stroke="none"
            d="M5560.73 13194.2c-317.97 0-587.67-79.7-801.63-236.9-386.51-283.9-470.13-927.1-359.92-1263.3 25.56-78 84.86-208.8 194.73-208.8 71.01 0 270.37 55.4 587.35 569.1 17.56 28.4 48.23 46.2 81.65 47.2 33.42 1.1 65.13-14.8 84.41-42.1 111.23-157.3 329.42-390.1 444.38-390.1h.02c12.82 0 22 3.3 31.69 11.6 137.31 117.3 540.49 791.7 809.86 1271.3-185.78 79.7-619.92 242-1072.54 242zm-966.82-1908.1c-171.93 0-311.87 126-383.93 345.8-146.09 445.7-4.91 1165.5 431.25 1485.9 248.86 182.8 558.22 275.5 919.5 275.5 645.61 0 1232.47-294.1 1257.13-306.6 24.12-12.2 42.21-33.7 50.13-59.6 7.93-25.8 4.99-53.8-8.12-77.4-69.6-125.5-686.41-1231.7-907.15-1420.2-45.46-38.8-101.14-59.3-161.01-59.3h-.06c-121.31 0-257.83 80.7-417.34 246.7-37.83 39.4-72.05 78.5-100.69 113.1-242.9-361.1-471.2-543.9-679.71-543.9"
          ></path>
          <path
            fill="#fff"
            fillOpacity="1"
            fillRule="nonzero"
            stroke="none"
            d="M5898.83 9068.6S4321.61 13149.9 8955.19 13867c4633.61 717 4403.61-3327.6 4403.61-3327.6s17.8-2544.4-3701.88-2749.8c-3719.68-205.4-3758.09 1279-3758.09 1279"
          ></path>
          <path
            fill="#a17445"
            fillOpacity="1"
            fillRule="nonzero"
            stroke="none"
            d="M5898.83 9068.6s32.46-1232.7 2853.83-1295.8l-98.74 3328.4s265.05 1766.3-492.79 2594.7c-3649.4-1037.7-2262.3-4627.3-2262.3-4627.3"
          ></path>
          <path
            fill="#a17445"
            fillOpacity="1"
            fillRule="nonzero"
            stroke="none"
            d="M13358.8 10539.4s202.4 3562.7-3603.73 3407.6c-534.93-1000.9 217.83-2662.2 217.83-2662.2l840.6-3334.7c2558.6 605.3 2545.3 2589.3 2545.3 2589.3"
          ></path>
          <path
            fill="#62312d"
            fillOpacity="1"
            fillRule="nonzero"
            stroke="none"
            d="M5998.35 9071.5c.94-18 21.4-300.5 379.41-590 345.21-279.1 1076.91-611.8 2602.37-611.8 212.87 0 438.73 6.5 671.3 19.3 1483.47 81.9 2577.27 566.1 3163.17 1400.2 441.7 628.8 444.7 1243.6 444.7 1249.7 0 2 0 4.2.1 6.2.2 3.5 19 366.8-76.9 845.4-87.6 437.6-292 1064.9-768.1 1568.2-561.2 593.1-1375.8 893.9-2421.36 893.9-318.26 0-662.33-28.3-1022.63-84-1390.6-215.2-2346.62-758.3-2841.52-1614.2-406.29-702.6-422.12-1494.1-363.86-2034.3 63.47-588.4 225.04-1011.4 226.66-1015.6 4.29-11.1 6.53-21.1 6.66-33zm2981.78-1400.9c-704.32 0-1307.99 69.5-1794.25 206.6-395.52 111.5-716.18 268.2-953.06 465.7-369.56 308.1-424.14 623.3-432.15 703.9-29.91 81.3-173.14 491.4-233.59 1052-38.98 361.4-35.01 710.2 11.8 1036.8 58.85 410.6 185.91 786.9 377.64 1118.5 526.56 910.6 1530.33 1486.4 2983.44 1711.2 370.35 57.4 724.65 86.4 1053.08 86.4 1103.26 0 1966.96-322.2 2567.26-957.5 225.4-238.6 412.9-522 557.3-842.4 114.9-255 202.9-533.8 261.5-828.8 96.1-483.9 81.3-846.7 79.3-886.2-.2-57-12.9-689.6-473.9-1352.1-276.8-397.8-658.5-723.2-1134.5-967.4-589.1-302.1-1325.1-479.5-2187.59-527.1-236.21-13-465.76-19.6-682.28-19.6"
          ></path>
          <path
            fill="#fff"
            fillOpacity="1"
            fillRule="nonzero"
            stroke="none"
            d="M13460.3 7401.6s-268.8-161.7-753.6-354.2H6092.31c-40.56 417.8-222.33 2705.3 634.49 2977.4 943.43 299.5 5374.1 748 5374.1 748l1136.6-865.8 222.8-2505.4"
          ></path>
          <path
            fill="#fff"
            fillOpacity="1"
            fillRule="nonzero"
            stroke="none"
            d="M9149.06 10920.5s-5009.43 84.4-4265.08-2846.6c744.34-2931 2604.05-1540.7 2185.62-684.4-418.42 856.3-648.52 2760.5 388.48 2215.1 1037-545.3 3579.52-168.5 4014.92 673.8 435.4 842.2 1337-1147.3 1267.7-2030.5-69.3-883.3 2026.6-1858 1738.1 1322.3-242.8 2677.1-2906.5 1548-5329.74 1350.3"
          ></path>
          <path
            fill="#62312d"
            fillOpacity="1"
            fillRule="nonzero"
            stroke="none"
            d="M9106.24 10821.2c-204.21 0-933.13-12.5-1739.12-172.8-1033.14-205.5-1752.41-560.9-2137.82-1056.4-314.21-404-397.93-906.5-248.83-1493.6 389.48-1533.7 1035.68-1699.3 1295.42-1699.3 255.26 0 503.4 143.5 647.59 374.4 119.9 192.1 140.56 400.7 56.68 572.3-290.45 594.4-522.38 1762.1-224.72 2238.8 88.28 141.4 218.94 216.1 377.87 216.1 109.96 0 234.82-36.3 371.11-108 298.9-157.2 760.33-243.7 1299.29-243.7 545.29 0 1131.44 89.3 1608.19 245.1 502 164.1 847.4 387.8 972.6 630 109.9 212.6 246.3 257.2 341.3 257.2 120.4 0 245.9-69.7 373.1-207.2 193.9-209.8 390.7-575.2 540.1-1002.6 150.3-430.4 223.6-842.8 201-1131.4-12.2-155.7 58.6-329.2 194.3-476 163.4-176.7 385.7-282.2 594.6-282.2h.1c168.1 0 314.4 66.9 434.9 198.8 201.8 221 420.5 726.6 315.8 1880.5-105.8 1166.6-664.6 1664.3-1868.6 1664.3-549.7 0-1174-98.6-1834.9-202.9-498.4-78.7-1013.82-160.1-1519.04-201.3-3.25-.3-6.55-.4-9.76-.4-.5 0-14.75.3-41.16.3zM6275.89 6200c-205.93 0-516.01 72.8-823.7 419.6-280.38 316-504.01 797-664.71 1429.8-165 649.7-69.22 1209.8 284.66 1664.8 228.58 293.9 566.85 544.2 1005.39 744.1 353.09 160.9 773.9 290.6 1250.75 385.4 823.83 163.9 1569.15 176.6 1777.96 176.6 19.37 0 32.68-.1 39.41-.2 496.3 40.7 1006.25 121.3 1499.55 199.1 668.8 105.6 1300.6 205.4 1865.9 205.4 291.9 0 540.9-26.7 761.3-81.4 249.6-62.1 456.9-158.6 633.8-294.9 389.6-300.2 609.4-780.8 671.8-1469.1 46.3-510.7 34.3-946.9-35.8-1296.5-63.7-317.6-175.1-565.3-331.3-736.3-157.5-172.4-358.8-263.6-581.9-263.6h-.1c-263.5 0-540.4 129.4-740.8 346.2-173.3 187.4-263.2 415.8-246.6 626.6 42.6 544.1-317.9 1582.1-688.8 1983.3-85.5 92.4-166.1 143.3-226.9 143.3-57.8 0-113.1-50.3-164.4-149.5-191.4-370.3-697.1-600.2-1087.7-727.8-495.85-162.1-1104.54-255-1669.99-255-403.7 0-972.9 46.2-1391.97 266.6-107.41 56.5-201.09 85.1-278.43 85.1-90.41 0-156.81-38.9-208.98-122.4-231.12-370.2-64.11-1434.4 234.72-2046 113-231.2 88.07-517.2-66.68-765.1-180.26-288.7-493.12-468.1-816.48-468.1"
          ></path>
          <path
            fill="#fff"
            fillOpacity="1"
            fillRule="nonzero"
            stroke="none"
            d="M6204.39 9807.9s-.25 865 979.88 1073.5c980.12 208.5 1231.65 1228.6 2006.36 1240.3 774.72 11.7 1183.47-508 1880.07-507.2 696.7.9 1592.8-376.3 1686.3-894.5"
          ></path>
          <path
            fill="#62312d"
            fillOpacity="1"
            fillRule="nonzero"
            stroke="none"
            d="M6204.4 9708.5h-.29c-54.86.2-99.25 44.5-99.27 99.4 0 9.8 1.44 243 133.09 503.5 121.53 240.4 380.78 551.4 925.62 667.3 462.61 98.5 752.55 388.7 1032.93 669.4 291.08 291.4 566.02 566.7 992.65 573.2 422.82 6.5 736.97-134.9 1040.87-271.4 269.8-121.3 524.7-235.8 839-235.8h4.1c361.5 0 776.6-98.2 1111-262.9 383.7-189 622-442.4 670.9-713.6 9.8-54.1-26.2-105.8-80.3-115.6-54.2-9.8-105.9 26.2-115.6 80.3-36.9 204.4-242.1 412.3-563 570.3-309 152.2-692 242.9-1025.2 242.4h-1.9c-357 0-643.5 128.7-920.6 253.3-284.06 127.6-577.92 259.7-956.26 253.9-345.86-5.3-581.7-241.4-854.79-514.8-286.88-287.2-612.03-612.7-1132.37-723.4-372.2-79.2-636.5-265.9-785.55-555-112.95-219.1-115.47-419.4-115.48-421.4-.34-54.7-44.83-99.1-99.55-99.1"
          ></path>
          <path
            fill="#fff"
            fillOpacity="1"
            fillRule="nonzero"
            stroke="none"
            d="M7898.14 9453.4s-154.31 761.4-436.08 713.4c-281.76-48.1-236.49-455.8-236.49-455.8l672.57-257.6"
          ></path>
          <path
            fill="#62312d"
            fillOpacity="1"
            fillRule="nonzero"
            stroke="none"
            d="M7322.65 9780.4l431.2-165.1c-14.94 50.2-33.34 106.3-55.03 161.9-84.05 215.7-166.33 292.2-211.25 292.2-2.87 0-5.74-.3-8.76-.8-134.39-22.9-154.98-195.5-156.16-288.2zm575.48-426.6c-11.98 0-24.04 2.2-35.59 6.6L7189.96 9618c-34.79 13.3-59.23 45-63.34 82-19.24 173.3 22.61 514.4 318.7 564.9 14.01 2.4 28.22 3.6 42.25 3.6 157.53 0 287.61-137.8 397.67-421.3 71.7-184.7 108.93-366.4 110.47-374 7.22-35.6-5.52-72.3-33.24-95.8a99.443 99.443 0 00-64.34-23.6"
          ></path>
          <path
            fill="#62312d"
            fillOpacity="1"
            fillRule="nonzero"
            stroke="none"
            d="M10285.4 11215.2c36.1-259.4-312.25-1026.9-863.04-1103.6-550.8-76.6-1095.48 566.5-1131.59 826-36.11 259.4 377.84 555.5 928.64 632.1 550.79 76.7 1029.89-95 1065.99-354.5"
          ></path>
          <path
            fill="#62312d"
            fillOpacity="1"
            fillRule="nonzero"
            stroke="none"
            d="M9822.61 8280c-386.31-53.8-864.12-34.4-1432.09 141.8-60.37 18.8-94.11 82.9-75.39 143.2 18.68 60.4 82.78 94.3 143.17 75.4 1565-485.5 2371.6 300.3 2405.2 334.1 44.6 44.6 116.9 44.9 161.7.6 44.8-44.4 45.4-116.5 1.2-161.4-24.8-25.3-430.9-426.2-1203.79-533.7"
          ></path>
          <path
            fill="#62312d"
            fillOpacity="1"
            fillRule="nonzero"
            stroke="none"
            d="M9577.63 9307.9c-60.34-8.4-117.13 32.2-128.25 92.7l-180.47 984.1c-11.41 62.1 29.76 121.7 91.94 133.2 62.06 10.9 121.74-29.8 133.19-91.9l180.47-984.1c11.4-62.1-29.76-121.7-91.94-133.2-1.63-.2-3.3-.5-4.94-.8"
          ></path>
          <path
            fill="#62312d"
            fillOpacity="1"
            fillRule="nonzero"
            stroke="none"
            d="M7986.99 11747.4c32.97-236.9-132.31-455.6-369.15-488.6-236.85-32.9-455.57 132.3-488.54 369.2-32.97 236.8 132.31 455.6 369.16 488.5 236.84 33 455.56-132.3 488.53-369.1"
          ></path>
          <path
            fill="#62312d"
            fillOpacity="1"
            fillRule="nonzero"
            stroke="none"
            d="M11403.6 12251.1c33-236.8-132.3-455.5-369.1-488.5-236.9-33-455.6 132.3-488.5 369.2-33 236.8 132.3 455.5 369.1 488.5 236.9 33 455.6-132.3 488.5-369.2"
          ></path>
          <path
            fill="#fff"
            fillOpacity="1"
            fillRule="nonzero"
            stroke="none"
            d="M7780.41 11907.3c7.12-51.1-28.56-98.4-79.69-105.5-51.12-7.1-98.34 28.6-105.45 79.7-7.12 51.2 28.56 98.4 79.68 105.5 51.13 7.1 98.34-28.6 105.46-79.7"
          ></path>
          <path
            fill="#fff"
            fillOpacity="1"
            fillRule="nonzero"
            stroke="none"
            d="M11198.2 12411.2c7.1-51.1-28.6-98.3-79.7-105.4-51.1-7.1-98.3 28.5-105.5 79.6-7.1 51.2 28.6 98.4 79.7 105.5 51.2 7.1 98.4-28.5 105.5-79.7"
          ></path>
          <path
            fill="#62312d"
            fillOpacity="1"
            fillRule="nonzero"
            stroke="none"
            d="M5276.27 11888.3c-9.22 0-18.58 1.3-27.88 4-52.79 15.4-83.12 70.6-67.74 123.4 4.29 14.7 109.61 362.3 503.79 489.3 52.33 16.9 108.43-11.9 125.29-64.2 16.87-52.3-11.88-108.4-64.21-125.3-294.76-95-372.95-352.9-373.71-355.5-12.67-43.4-52.41-71.7-95.54-71.7"
          ></path>
          <path
            fill="#62312d"
            fillOpacity="1"
            fillRule="nonzero"
            stroke="none"
            d="M13092.6 12983.9c-1 1.4-105.6 140.1-548.2 250.7-55.6 13.9-89.4 70.2-75.5 125.8 13.9 55.6 70.3 89.4 125.8 75.5 521.9-130.5 651.9-306.4 672.7-340.3l-177-108.3s.7-1.2 2.2-3.4"
          ></path>
          <path
            fill="#fff"
            fillOpacity="1"
            fillRule="nonzero"
            stroke="none"
            d="M6728.2 7932.5c901.32-1416-169.19-1732.6-169.19-1732.6C6320.65 5358.5 5497.2 5741 5497.2 5741c-693.43-283.6-1040.14 461.4-1040.14 461.4-823.45-29-733.09 1165.8-436.53 1655.1 322.59 532.3 2046.96 1113 2707.67 75"
          ></path>
          <path
            fill="#62312d"
            fillOpacity="1"
            fillRule="nonzero"
            stroke="none"
            d="M5497.2 5841c14.41 0 28.8-3.1 42.14-9.3 1.49-.7 170.85-77.4 365.98-77.4 281.03 0 468.59 159.1 557.48 472.9 9.35 33 34.96 58.9 67.85 68.7 2.66.8 305.05 96 416.2 396.6 110.22 298.2 8.27 697.3-303.01 1186.3-278.35 437.3-740.15 529.1-1078.54 529.1-626.3 0-1286.96-317.9-1459.25-602.2-95.15-157-165.92-391.5-189.32-627.3-25.79-260.1 8.16-488.8 95.6-644 92-163.4 235.8-239.4 441.21-232.1 40.06 1.2 77.24-21.3 94.18-57.7 2.11-4.5 225.04-468 643.34-468h.08c85.59 0 175.83 19.2 268.21 57 12.14 5 25.01 7.4 37.85 7.4zm408.13-286.7c-179.84 0-337.57 51.4-409.37 79.1-103.27-37.7-205.62-56.8-304.79-56.8h-.11c-449.24 0-709.41 377.7-794.14 525.8-247.74 8.8-440.54 123.8-558.84 333.8-225.94 401.1-130.25 1098.3 96.93 1473.2 105.85 174.6 339.18 350.9 640.18 483.6 314.48 138.6 666.11 214.9 990.11 214.9 256.73 0 489.66-46.7 692.33-138.9 231.3-105.2 418.01-267.7 554.93-482.8 347.69-546.2 455.59-1005.9 320.69-1366.2-116.62-311.5-379.85-449.9-493.04-496.6-64.68-198.4-167.68-347.5-306.6-443.8-120.07-83.1-264.16-125.3-428.28-125.3"
          ></path>
          <path
            fill="#fff"
            fillOpacity="1"
            fillRule="nonzero"
            stroke="none"
            d="M4457.06 6202.4s196.23 250.7 168.03 363.5"
          ></path>
          <path
            fill="#62312d"
            fillOpacity="1"
            fillRule="nonzero"
            stroke="none"
            d="M4456.99 6102.4c-21.57 0-43.28 6.9-61.57 21.3-43.5 34-51.15 96.9-17.1 140.3 82.58 105.8 153.62 238.2 149.53 278.5-12.8 53.3 19.72 107.1 72.99 120.4 53.61 13.4 107.88-19.2 121.27-72.8 18.82-75.3-8.01-170.4-84.45-299.3-48.28-81.4-99.7-147.3-101.86-150-19.73-25.2-49.12-38.4-78.81-38.4"
          ></path>
          <path
            fill="#fff"
            fillOpacity="1"
            fillRule="nonzero"
            stroke="none"
            d="M5497.2 5741s12.1 365.8 0 461.4"
          ></path>
          <path
            fill="#62312d"
            fillOpacity="1"
            fillRule="nonzero"
            stroke="none"
            d="M5497.26 5641c-1.12 0-2.24 0-3.36.1-55.2 1.8-98.47 48-96.64 103.2 4.57 138.4 8.81 381.7.73 445.5-6.93 54.8 31.86 104.9 86.65 111.8 54.87 6.9 104.84-31.9 111.77-86.6 12.73-100.6 2-439 .74-477.3-1.79-54-46.19-96.7-99.89-96.7"
          ></path>
          <path
            fill="#fff"
            fillOpacity="1"
            fillRule="nonzero"
            stroke="none"
            d="M6559.01 6199.9s-123.53 281.4-211.01 366"
          ></path>
          <path
            fill="#62312d"
            fillOpacity="1"
            fillRule="nonzero"
            stroke="none"
            d="M6559.07 6099.9c-38.47 0-75.14 22.4-91.61 59.8-48.08 109.4-138.5 285.5-188.97 334.3-39.71 38.4-40.77 101.7-2.38 141.4s101.69 40.7 141.4 2.4c96.73-93.6 211.12-347.7 233.07-397.6 22.2-50.6-.79-109.6-51.35-131.8-13.08-5.7-26.73-8.5-40.16-8.5"
          ></path>
          <g transform="scale(1.00434)">
            <path
              fill="#fff"
              fillOpacity="1"
              fillRule="nonzero"
              stroke="none"
              d="M13218.8 7898.19c-897.4-1409.87 168.5-1725.1 168.5-1725.1 237.2-837.76 1057.2-456.92 1057.2-456.92 690.4-282.37 1035.6 459.41 1035.6 459.41 819.9-28.88 729.9 1160.75 434.6 1647.94-321.2 530-2038.1 1108.18-2695.9 74.67"
            ></path>
          </g>
          <g transform="scale(1.00566)">
            <path
              fill="#62312d"
              fillOpacity="1"
              fillRule="nonzero"
              stroke="none"
              d="M14357.9 8360.61c-336.5 0-795.7-91.28-1072.5-526.12-309.6-486.25-410.9-883.11-301.3-1179.63 110.5-298.91 411.2-393.58 414.2-394.57 32.3-9.84 57.9-35.6 67.1-68.12 88.4-312.03 274.9-470.23 554.3-470.23 194.1 0 362.4 76.26 364.1 77.06 25.1 11.53 53.9 12.23 79.4 1.79 91.9-37.59 181.7-56.68 266.7-56.68 418.4 0 637.7 460.7 639.9 465.37 16.8 36.19 53.7 58.76 93.5 57.37 204.4-7.26 347.4 68.32 438.8 230.7 87 154.43 120.7 381.84 95 640.47-23.3 234.48-93.6 467.66-188.2 623.78-171.4 282.7-828.2 598.81-1451 598.81zm-338.2-2837.55c-163.2 0-306.5 41.96-425.8 124.6-138.2 95.75-240.6 244.01-304.9 441.3-112.5 46.44-374.4 184.06-490.3 493.81-134.1 358.27-26.8 815.38 318.9 1358.51 136.1 213.89 321.8 375.48 551.8 480.09 201.5 91.68 433.1 138.12 688.5 138.12 322.2 0 671.8-75.87 984.5-213.7 299.3-131.95 531.3-307.26 636.6-480.88 225.8-372.79 321-1066.07 96.4-1464.91-117.7-208.82-309.4-323.17-555.7-331.92-84.3-147.27-343-522.84-789.8-522.84-98.6 0-200.4 18.99-303.1 56.47-71.4-27.54-228.2-78.65-407.1-78.65"
            ></path>
          </g>
          <path
            fill="#fff"
            fillOpacity="1"
            fillRule="nonzero"
            stroke="none"
            d="M15547.3 6202.4s-196.2 250.7-168 363.5"
          ></path>
          <path
            fill="#62312d"
            fillOpacity="1"
            fillRule="nonzero"
            stroke="none"
            d="M15547.4 6102.4c-29.7 0-59.1 13.2-78.8 38.4-2.2 2.7-53.6 68.6-101.9 150-76.4 128.9-103.3 224-84.4 299.3 13.4 53.6 67.7 86.2 121.2 72.8 53.3-13.3 85.8-67.1 73-120.4-4-39.9 68.4-174.8 149.6-278.5 34-43.4 26.3-106.3-17.1-140.3-18.3-14.4-40.1-21.3-61.6-21.3"
          ></path>
          <path
            fill="#fff"
            fillOpacity="1"
            fillRule="nonzero"
            stroke="none"
            d="M14507.2 5741s-12.1 365.8 0 461.4"
          ></path>
          <path
            fill="#62312d"
            fillOpacity="1"
            fillRule="nonzero"
            stroke="none"
            d="M14507.1 5641c-53.7 0-98.1 42.6-99.9 96.7-1.2 38.3-12 376.7.8 477.3 6.9 54.8 56.9 93.5 111.7 86.6 54.8-6.9 93.6-57 86.7-111.8-8.1-63.8-3.9-307.1.7-445.5 1.8-55.2-41.4-101.4-96.6-103.2-1.2-.1-2.3-.1-3.4-.1"
          ></path>
          <path
            fill="#fff"
            fillOpacity="1"
            fillRule="nonzero"
            stroke="none"
            d="M13445.4 6199.9s123.5 281.4 211 366"
          ></path>
          <path
            fill="#62312d"
            fillOpacity="1"
            fillRule="nonzero"
            stroke="none"
            d="M13445.3 6099.9c-13.4 0-27.1 2.7-40.2 8.5-50.5 22.2-73.5 81.2-51.3 131.8 21.9 49.9 136.3 304 233.1 397.5 39.7 38.5 103 37.4 141.4-2.3 38.4-39.7 37.3-103-2.4-141.4-50.6-48.9-141-224.9-189-334.3-16.5-37.4-53.1-59.8-91.6-59.8"
          ></path>
        </g>
      </g>
    </svg>