<svg
      xmlns="http://www.w3.org/2000/svg"
      width="2666.667"
      height="2666.667"
      version="1.1"
      viewBox="0 0 2666.667 2666.667"
      xmlSpace="preserve"
    >
      <g transform="matrix(1.33333 0 0 -1.33333 0 2666.667)">
        <g transform="scale(.1)">
          <g transform="scale(1.22699)">
            <path
              fill="#82bc0000"
              fillOpacity="1"
              fillRule="nonzero"
              stroke="none"
              d="M16300 0H0v16300h16300V0"
            ></path>
          </g>
          <path
            fill="#fff"
            fillOpacity="1"
            fillRule="nonzero"
            stroke="none"
            d="M12687.1 6175.4c1820.3 720.6 1867.6 2398.5 1867.6 2398.5 143.5 2655.6-2466.1 4160.1-2466.1 4160.1S7824 14971.4 5580.71 11273c0 0-1464.67-1284.7-664.02-3769.6 397.28-1429.3 1561.46-1466.9 1561.46-1466.9"
          ></path>
          <path
            fill="#f7a447"
            fillOpacity="1"
            fillRule="nonzero"
            stroke="none"
            d="M12088.6 12734s-4264.59 2237.4-6507.89-1461c0 0-1277.24-1120.7-793.88-3292.9 138.37 203.9 376.61 425.8 644.29 481.4 669.37 139.1 1706.93-909.7 2840.63 82.6 979.08 857 2689.35 843.6 3360.05 429.6 542.2-334.6 2088.9-689.6 2923.8-3.7-116.4 2408.4-2467 3764-2467 3764"
          ></path>
          <path
            fill="#62312d"
            fillOpacity="1"
            fillRule="nonzero"
            stroke="none"
            d="M6508.33 5811.4c-4.76 0-9.56.3-14.39.7-13.51 1.4-335.12 35.2-706.91 257.4-340 203.1-790.89 609.6-1009.25 1392.2-187.42 582.7-268.14 1150.1-239.91 1686.6 22.75 432.5 115.93 845.7 276.95 1228 245.74 583.5 572.87 914.4 652.68 989.6 526.07 860.5 1205.17 1475.7 2018.74 1828.7 654.48 283.9 1394.71 398.4 2200.05 340.4 1361.11-98.1 2425.01-649.2 2469.61-672.6 1.7-.9 3.4-1.8 5.1-2.8 27.4-15.8 679.9-395.9 1322.4-1113 378.8-422.7 674.6-875 879.4-1344.4 257.2-589.4 370.5-1206.8 336.7-1834.8-1.4-37.5-22.1-447.9-265.7-946.2-146.4-299.5-343.7-569.9-586.3-803.9-301.7-291-674.1-525.4-1107-696.8-74.4-29.4-158.7 7-188.2 81.5-29.5 74.4 7 158.7 81.4 188.2 715.3 283.2 1231.3 736.1 1533.6 1346.3 226.8 457.7 242.3 838.3 242.5 842.1 0 .9 0 2.2.1 3.2 57.4 1061.5-327 2061.2-1142.4 2971.2-592.4 661.1-1204.6 1027.8-1248.9 1053.9-58.5 30-1090.9 550-2362.07 639.5-1724.07 121.4-3053.65-567.8-3951.85-2048.6-7.67-12.7-17.24-24.1-28.36-33.8-3.23-2.9-351.34-315.6-600.14-914.4-333.37-802.3-340.59-1711.3-21.48-2701.7.6-1.9 1.17-3.8 1.69-5.7 154.45-555.7 450.33-967.4 879.39-1223.8 316.68-189.2 583.93-217.4 586.59-217.6 79.7-7.9 137.94-78.9 130.09-158.6-7.38-74.8-70.45-130.8-144.13-130.8"
          ></path>
          <path
            fill="#f7a447"
            fillOpacity="1"
            fillRule="nonzero"
            stroke="none"
            d="M10702.7 13092.9s1356.8 1901.9 2154.8 1942.2c798.1 40.3 1277.7-2477.5 696.1-3889.6"
          ></path>
          <path
            fill="#62312d"
            fillOpacity="1"
            fillRule="nonzero"
            stroke="none"
            d="M13583 11044.2c-16.7 1.7-33.5 5.8-49.9 12.5-89.9 37.1-132.8 140-95.8 230 420.9 1021.9 221.4 2689.9-237.1 3338.6-78.1 110.4-199.1 240.6-333.8 233.9-519.4-26.3-1514.9-1160.1-2020.3-1868.6-56.6-79.3-166.5-97.7-245.8-41.1-79.2 56.5-97.6 166.5-41.1 245.7 144 201.8 1431.1 1972.5 2289.4 2015.8 162.6 8.2 405.5-51.4 639.3-382.3 522.8-739.6 756.9-2506.6 275.2-3676.2-30.3-73.6-104.7-115.7-180.1-108.3"
          ></path>
          <path
            fill="#fff"
            fillOpacity="1"
            fillRule="nonzero"
            stroke="none"
            d="M13210.4 11692s-1046.7 1012.6-1762.6 1158.8c0 0 601.3 1232 1262 1280.1 660.8 48.1 500.6-2438.9 500.6-2438.9"
          ></path>
          <path
            fill="#f7a447"
            fillOpacity="1"
            fillRule="nonzero"
            stroke="none"
            d="M7137.61 12692.6s-1891.29 1371.6-2660.72 1156c-769.43-215.7-491.04-2699.8 509.46-3853.6"
          ></path>
          <path
            fill="#62312d"
            fillOpacity="1"
            fillRule="nonzero"
            stroke="none"
            d="M4969.03 9819.7c-43.28 4.2-85.05 24.4-115.78 59.9-828.68 955.6-1168.76 2705.3-908.37 3572.8 116.49 388.1 327.75 521.9 484.47 565.8 827.59 231.8 2611.05-1037.4 2811.69-1183 78.76-57.1 96.3-167.2 39.19-246-57.1-78.8-167.28-96.2-246.03-39.2-704.84 510.9-2009.57 1269.3-2509.77 1128.9-129.64-36.3-203.19-198.3-242.05-327.8-228.39-760.9 113.02-2405.7 837.06-3240.7 63.75-73.5 55.83-184.8-17.68-248.5-38.06-33-86.25-46.8-132.73-42.2"
          ></path>
          <path
            fill="#f57385"
            fillOpacity="1"
            fillRule="nonzero"
            stroke="none"
            d="M9093.23 7598.9s1.82-17.5 6.39-48.1c33.9-227.5 218.98-1179 930.28-1058.3 807.1 136.8 974.4 726.8 862.7 1432.4l-962.16-75.2-837.21-250.8"
          ></path>
          <path
            fill="#62312d"
            fillOpacity="1"
            fillRule="nonzero"
            stroke="none"
            d="M9291.98 7474.6c50.33-248.8 200.55-777.7 572.55-814.3h.04c42.42-4.2 88.15-2.2 135.93 5.9 359.5 60.9 814.9 240.2 738.4 1070l-775.94-60.7zm538.09-1165h-.12c-681.41 67.2-864.66 947.2-904.56 1215.3-5.33 35.5-7.4 55.9-7.4 55.9-8.47 84.1 43.8 162.7 124.71 186.9l837.2 250.7c12 3.6 24.33 5.9 36.8 6.9l962.1 75.3c91.5 7 173.3-57.4 187.8-148.1 186.5-1177.5-444.8-1538.4-1007.2-1633.8-78.61-13.3-155.78-16.3-229.33-9.1"
          ></path>
          <path
            fill="#fff"
            fillOpacity="1"
            fillRule="nonzero"
            stroke="none"
            d="M5205.73 10566.8s670.22 1293 1302.43 1659.3c0 0-961.93 976.8-1603.65 812.2-641.73-164.6 301.22-2471.5 301.22-2471.5"
          ></path>
          <path
            fill="#fff"
            fillOpacity="1"
            fillRule="nonzero"
            stroke="none"
            d="M8306.35 7934.6s590.01-1097 1672.23-164.7c0 0 1309.02-555.2 1411.92 786.8"
          ></path>
          <path
            fill="#62312d"
            fillOpacity="1"
            fillRule="nonzero"
            stroke="none"
            d="M9048.14 7222.7c-28.11 2.7-56.08 6.7-83.96 11.9-528.56 97.9-801.63 595.4-813 616.5-46.09 85.7-14 192.5 71.7 238.6 85.48 46 192.06 14.1 238.3-71.1 2.35-4.2 208.18-372.5 569.59-438 251.67-45.6 531.42 63.1 832.85 322.7 50.79 43.8 122.18 54.8 183.78 28.7 4.8-2 527.4-216.9 863.3-11.5 177.1 108.3 279.4 326.8 304.1 649.7 7.5 97 92.2 169.6 189.2 162.2 95.7-7 169.6-92.1 162.2-189.2-34-442.9-193.2-753.9-473.3-924.3-382.3-232.6-869.3-117.1-1079.6-48.9-329.75-261.4-653.73-378-965.16-347.3"
          ></path>
          <path
            fill="#62312d"
            fillOpacity="1"
            fillRule="nonzero"
            stroke="none"
            d="M10939.1 9747c-51.8 5.1-100.7 32.9-131 80-52.6 81.8-29 190.9 52.8 243.5 22.2 14.3 548.6 349.7 1046.3 390.3 97.4 7.8 182-64.3 189.9-161.2 8-97-64.2-182.1-161.2-190-410.8-33.5-879.7-332.4-884.3-335.5-34.8-22.3-74.4-30.9-112.5-27.1"
          ></path>
          <path
            fill="#62312d"
            fillOpacity="1"
            fillRule="nonzero"
            stroke="none"
            d="M10674.7 9013.7c33.6-279.1-258.1-819.8-691.96-872.1-433.88-52.2-845.63 403.7-879.24 682.8-33.61 279.1 309.6 392.2 743.47 444.5 433.83 52.2 794.13 23.8 827.73-255.2"
          ></path>
          <path
            fill="#62312d"
            fillOpacity="1"
            fillRule="nonzero"
            stroke="none"
            d="M7432.55 9518.8c-74.29 7.3-138.57 61.7-154.99 138.6-20.3 95.2 40.38 188.8 135.53 209.1 481.3 102.7 1154.22-32.5 1182.69-38.4 95.28-19.5 156.73-112.5 137.31-207.8-19.45-95.3-112.32-156.6-207.81-137.4-6.26 1.3-629.83 126.2-1038.64 39-18.27-3.9-36.47-4.8-54.09-3.1"
          ></path>
          <path
            fill="#62312d"
            fillOpacity="1"
            fillRule="nonzero"
            stroke="none"
            d="M10092.8 6899.3c-4.9.5-9.8 1.2-14.7 2.1-95.73 17.5-159.07 109.4-141.53 205.1 59.62 325.2-95.05 551.9-101.64 561.4-55.31 79.4-36.74 189.1 42.15 245 78.93 56 187.82 38.5 244.32-39.9 10.3-14.2 249.3-352.3 161.7-830.1-16.6-90.8-100.1-152.5-190.3-143.6"
          ></path>
          <path
            fill="#62312d"
            fillOpacity="1"
            fillRule="nonzero"
            stroke="none"
            d="M9970.53 7580c-83.37 8.2-151.42 75.2-158.2 161.6-24 307-24.18 446.4-24.19 452.1.06 97.3 78.98 176.2 176.28 176.1 97.88-.2 176.08-78.9 176.08-176.1 0-1.3.4-134 23.2-424.6 7.5-97.1-65-181.8-162-189.4-10.54-.8-20.98-.7-31.17.3"
          ></path>
          <path
            fill="#fff"
            fillOpacity="1"
            fillRule="nonzero"
            stroke="none"
            d="M11036.3 10713.9c-184.9-119.2-408.7-101.2-500 40.4-91.2 141.5-15.3 352.9 169.6 472.1 184.9 119.2 408.8 101.1 500-40.4 91.3-141.6 15.3-352.9-169.6-472.1"
          ></path>
          <path
            fill="#fff"
            fillOpacity="1"
            fillRule="nonzero"
            stroke="none"
            d="M8392.75 10328.2c-215.05 46.4-360.57 217.5-325.01 382.1 35.55 164.6 238.71 260.3 453.76 213.9 215.04-46.5 360.55-217.6 325-382.1-35.55-164.6-238.71-260.4-453.75-213.9"
          ></path>
          <path
            fill="#fff"
            fillOpacity="1"
            fillRule="nonzero"
            stroke="none"
            d="M6608.01 6956.3c800.33-1257.4-150.22-1538.5-150.22-1538.5-211.66-747.2-942.84-407.5-942.84-407.5-615.73-251.8-923.59 409.7-923.59 409.7-731.18-25.8-650.95 1035.2-387.61 1469.7 286.44 472.6 1817.59 988.2 2404.26 66.6"
          ></path>
          <path
            fill="#62312d"
            fillOpacity="1"
            fillRule="nonzero"
            stroke="none"
            d="M5518.65 5168.5l57.4-26.7c.94-.4 141.24-63.5 301.29-63.5 224.46 0 368.69 124 440.94 379l22.13 78.1 76.26 21.4c9.07 2.9 245.15 78.7 333.28 319.2 89.33 243.8-2.04 590.4-264.26 1002.4-233.46 366.8-623.87 443.8-910.27 443.8-582.39 0-1119.19-295.7-1247.67-507.7-164.48-271.4-236.26-798.9-82.31-1072.2 70.51-125.2 181.83-183.2 340.81-177.4l96.04 3.4 40.54-87.2c1.59-3.3 185.49-383 520.29-383h.05c68.68 0 141.65 15.6 216.89 46.4zm358.71-380.2c-153.07 0-289.4 39.8-363.93 66.6-91.25-31-181.91-46.8-270.22-46.8h-.1c-402.12 0-643.84 314.7-738.03 468.6-225.72 16.6-402.02 127.5-512.31 323.3-101.02 179.3-141.45 431.4-113.84 709.7 24.05 242.4 99.12 487.3 200.81 655.1 212.67 350.9 897.6 647.4 1495.68 647.4 236.04 0 450.71-43.2 638.03-128.5 215.46-98 389.36-249.2 516.89-449.6 318.72-500.7 416.28-925.7 289.98-1263-103.16-275.6-326.94-409.2-445.17-462.8-118.28-336.1-363.78-520-697.79-520"
          ></path>
          <path
            fill="#62312d"
            fillOpacity="1"
            fillRule="nonzero"
            stroke="none"
            d="M4591.26 5275c-31.27 0-62.77 10-89.3 30.8-63.05 49.4-74.14 140.5-24.77 203.6 46 59.1 91.14 141.5 95.38 173.4-14.4 75 32.22 149.1 107.26 167.9 77.72 19.4 156.42-27.8 175.84-105.5 38.11-152.5-92.31-340.7-150.15-414.6-28.6-36.5-71.21-55.6-114.26-55.6"
          ></path>
          <path
            fill="#62312d"
            fillOpacity="1"
            fillRule="nonzero"
            stroke="none"
            d="M5515.08 4935.3c-2.69 0-5.38.1-8.1.2-79.96 4.4-141.2 72.8-136.81 152.8 3.87 70.3 7.54 201.3.93 253.5-10.06 79.4 46.19 152 125.64 162 79.46 10.2 152-46.2 162.06-125.6 12.05-95.2 2.1-284.6.93-305.9-4.26-77.2-68.23-137-144.65-137"
          ></path>
          <path
            fill="#62312d"
            fillOpacity="1"
            fillRule="nonzero"
            stroke="none"
            d="M6427.9 5332.8c-53.39 0-104.76 29.6-130.05 80.7-33.53 67.5-99.11 180.3-140 219.9-57.57 55.6-59.11 147.4-3.45 205 55.66 57.6 147.47 59.1 205.03 3.4 91.09-88 181.17-265.1 198.3-299.7 35.54-71.7 6.17-158.7-65.59-194.2-20.68-10.3-42.63-15.1-64.24-15.1"
          ></path>
          <path
            fill="#fff"
            fillOpacity="1"
            fillRule="nonzero"
            stroke="none"
            d="M12957.7 6956.3c-800.4-1257.4 150.2-1538.5 150.2-1538.5 211.7-747.2 942.8-407.5 942.8-407.5 615.8-251.8 923.6 409.7 923.6 409.7 731.2-25.8 651 1035.2 387.6 1469.7-286.4 472.6-1817.6 988.2-2404.2 66.6"
          ></path>
          <path
            fill="#62312d"
            fillOpacity="1"
            fillRule="nonzero"
            stroke="none"
            d="M14105.6 5144.5c75.3-30.8 148.2-46.4 216.9-46.4h.1c334.8 0 518.7 379.7 520.3 383l40.5 87.2 96-3.4c159-5.8 270.3 52.2 340.8 177.4 154 273.3 82.2 800.8-82.3 1072.2-128.4 212-665.2 507.7-1247.6 507.7-286.4 0-676.8-77-910.3-443.8-262.2-412-353.6-758.6-264.3-1002.4 88.2-240.5 324.3-316.3 333.3-319.2l76.3-21.4 22.1-78.1c72.3-255 216.5-379 440.9-379 160.1 0 300.4 63.1 301.3 63.5l57.4 26.7zm-1115.1 163.8c-118.2 53.6-342 187.2-445.1 462.8-126.3 337.3-28.8 762.3 290 1263 127.5 200.4 301.4 351.6 516.8 449.6 187.4 85.3 402 128.5 638.1 128.5 598 0 1283-296.5 1495.6-647.4 101.7-167.8 176.8-412.7 200.9-655.1 27.6-278.3-12.9-530.4-113.9-709.7-110.3-195.8-286.6-306.7-512.3-323.3-94.2-153.9-335.9-468.6-738-468.6h-.1c-88.3 0-179 15.8-270.2 46.8-74.6-26.8-210.9-66.6-364-66.6-334 0-579.5 183.9-697.8 520"
          ></path>
          <path
            fill="#62312d"
            fillOpacity="1"
            fillRule="nonzero"
            stroke="none"
            d="M14974.4 5275c31.3 0 62.8 10 89.3 30.8 63.1 49.4 74.2 140.5 24.8 203.6-46 59.1-91.1 141.5-95.4 173.4 14.4 75-32.2 149.1-107.2 167.9-77.8 19.4-156.5-27.8-175.9-105.5-38.1-152.5 92.3-340.7 150.2-414.6 28.6-36.5 71.2-55.6 114.2-55.6"
          ></path>
          <path
            fill="#62312d"
            fillOpacity="1"
            fillRule="nonzero"
            stroke="none"
            d="M14050.6 4935.3c2.7 0 5.4.1 8.1.2 80 4.4 141.2 72.8 136.8 152.8-3.8 70.3-7.5 201.3-.9 253.5 10 79.4-46.2 152-125.6 162-79.5 10.2-152.1-46.2-162.1-125.6-12.1-95.2-2.1-284.6-.9-305.9 4.2-77.2 68.2-137 144.6-137"
          ></path>
          <path
            fill="#62312d"
            fillOpacity="1"
            fillRule="nonzero"
            stroke="none"
            d="M13137.8 5332.8c53.4 0 104.7 29.6 130 80.7 33.6 67.5 99.2 180.3 140 219.9 57.6 55.6 59.2 147.4 3.5 205-55.7 57.6-147.5 59.1-205 3.4-91.1-88-181.2-265.1-198.3-299.7-35.6-71.7-6.2-158.7 65.5-194.2 20.7-10.3 42.7-15.1 64.3-15.1"
          ></path>
        </g>
      </g>
    </svg>