 <svg
      xmlns="http://www.w3.org/2000/svg"
      width="2666.667"
      height="2666.667"
      version="1.1"
      viewBox="0 0 2666.667 2666.667"
      xmlSpace="preserve"
    >
      <g transform="matrix(1.33333 0 0 -1.33333 0 2666.667)">
        <g transform="scale(.1)">
          <g transform="scale(1.22699)">
            <path
              fill="#82bc0000"
              fillOpacity="1"
              fillRule="nonzero"
              stroke="none"
              d="M16300 0H0v16300h16300V0"
            ></path>
          </g>
          <path
            fill="#f7a447"
            fillOpacity="1"
            fillRule="nonzero"
            stroke="none"
            d="M14411.1 14242.7c-996.9 414.4-2561.2-1275.7-2917-1680.9-438.6 83.8-935.7 93.9-1498.98 10.3-559.7 83-1053.99 73.6-1490.58-8.7-358.42 408-1919.98 2093.2-2915.57 1679.3-1054.93-438.6-520.63-4082.5 53.45-4607.7-486.96-1528.9-426.9-3070.6-426.9-3070.6h9559.18s59.9 1537-424.7 3063.6c577 499.8 1120.7 4174.1 61.1 4614.7"
          ></path>
          <path
            fill="#fff"
            fillOpacity="1"
            fillRule="nonzero"
            stroke="none"
            d="M12165.2 9389.9l-795.7 563.8s-1413.69 387.1-931.2 2608.7c-143-9.2-290.7-24.8-443.18-47.2-149.01 21.9-293.36 37.2-433.24 46.5 482.02-2221-931.43-2608-931.43-2608l-795.62-563.8C5031.42 8836.4 5290.04 6568 5290.45 6564.4h9419.15c.4 3.6 259 2272-2544.4 2825.5"
          ></path>
          <path
            fill="#100f0d"
            fillOpacity="1"
            fillRule="nonzero"
            stroke="none"
            d="M5333.53 6684.4h9323.17c2.1 382.7-24 1656.4-421 2907.3-14.5 45.7-.5 95.6 35.8 127 348.4 301.8 776.8 2223.4 569.4 3509.7-55.6 345-183.4 781.8-475.9 903.5-88.9 36.9-187.8 55.7-293.9 55.7-942.1 0-2236.8-1420.3-2486.8-1705-28.1-32-71-46.7-112.7-38.7-229.3 43.8-473.5 66-725.9 66-233.5 0-480.1-19-733-56.5-11.7-1.7-23.53-1.7-35.2 0-252.86 37.5-499.48 56.5-732.98 56.5-249.36 0-490.84-21.7-717.74-64.5-41.67-7.8-84.39 6.9-112.39 38.8-249.89 284.4-1544.14 1703.4-2485.37 1703.4-106.15 0-205.05-18.8-293.98-55.7-283.34-117.8-411.21-532.8-468.59-860.2-223.04-1272.6 201.69-3223.1 556.98-3548.2 34.52-31.6 47.53-80.4 33.33-125-399.14-1253.1-425.33-2530.7-423.23-2914.1zm9441.17-240H5215.52c-64.46 0-117.4 50.9-119.91 115.3-.63 16.1-14.77 399.2 31.13 976.2 41.15 517.4 140.53 1290 380.24 2068.1-202.8 243.6-393.53 797.5-518.32 1513.9-140.44 806.3-161.81 1606.4-58.61 2195.2 98.54 562.2 304.73 912.3 612.85 1040.4 118.28 49.1 248.19 74.1 386.12 74.1 980.34 0 2202.57-1266.1 2620.68-1734.3 221.63 37.6 455.02 56.6 694.82 56.6 239.81 0 492.25-19 750.59-56.5 258.39 37.5 510.79 56.5 750.59 56.5 242.9 0 479.2-19.5 703.4-58 418.4 468.7 1640.9 1735.7 2622 1735.7 137.9 0 267.8-25 386.1-74.1 316.8-131.7 525.6-497.4 620.6-1086.9 96-594.9 69.3-1392.3-73.2-2187.7-48.8-272.3-224.1-1143.7-518.6-1483.7 238.1-776.2 336.8-1546.3 377.7-2062 45.6-575.5 31.5-957.5 30.9-973.5-2.5-64.4-55.4-115.3-119.9-115.3"
          ></path>
          <path
            fill="#100f0d"
            fillOpacity="1"
            fillRule="nonzero"
            stroke="none"
            d="M12245.3 8571.4s-1608.1 449.7-2255.03 503.8v.9c-1.77-.2-3.59-.3-5.38-.5-1.78.2-3.6.3-5.37.5v-.9c-646.94-54.1-2255-503.8-2255-503.8s54.45-1429.7 2255.75-1539.1v-.4c1.55 0 3.07.1 4.62.2 1.55-.1 3.07-.2 4.63-.2v.4c2201.28 109.4 2255.78 1539.1 2255.78 1539.1"
          ></path>
          <path
            fill="#f9d883"
            fillOpacity="1"
            fillRule="nonzero"
            stroke="none"
            d="M12421.6 12147.2c896.7-164.4 1929.3-2512.1 1931.3-2516.6 516 456.4 1003.3 3444.6 338 4377.4-1200.4 464.9-2269.3-1860.8-2269.3-1860.8"
          ></path>
          <path
            fill="#100f0d"
            fillOpacity="1"
            fillRule="nonzero"
            stroke="none"
            d="M12592 12221.7c370.4-147.3 784.4-593.7 1233.3-1330.3 249.2-409 448.4-809.2 554.2-1032.1 75.1 127.7 152.4 318 222.5 551.2 107.2 356.7 193.7 798.4 243.6 1243.5 114.1 1018.4 27.3 1855.6-232 2254.4-80.7 27.3-163.3 41.1-246 41.1-498.7 0-968.5-496.1-1274.8-912.3-236.3-321-413.1-644.3-500.8-815.5zm1760.9-2711.1c-8.6 0-17.3.9-25.8 2.8-37.5 8.3-68.7 33.9-84.1 69-2.6 5.8-260.5 590.2-624.4 1187-465.6 763.3-887 1198.9-1218.7 1259.7-36.4 6.7-67.7 29.8-84.8 62.7-17.1 32.9-18.1 71.8-2.6 105.5 9.2 20 230.1 497.3 587 982.1 493.2 670.3 987.2 1010.1 1468.1 1010.1 124.1 0 247.5-23.4 366.6-69.6 21.9-8.4 40.8-23.1 54.4-42.2 444.7-623.5 354.8-1921.4 295.5-2450.4-93.5-834.4-331.2-1803.1-651.7-2086.6-22.2-19.6-50.5-30.1-79.5-30.1"
          ></path>
          <path
            fill="#100f0d"
            fillOpacity="1"
            fillRule="nonzero"
            stroke="none"
            d="M12323.2 11081s-19.2 3-52.7 6c-33.5 2.9-81.4 5.5-138.4 4.9-28.5-.7-59.2-1.6-91.3-4.4-32.2-2.3-65.8-6.7-100-11.9-34.2-6-69-12.5-103.3-22.1-34.5-8.8-68.2-20.5-100.8-33-32.3-13.6-63.7-27.6-92.1-44.6-7.1-4.2-14.3-8-21.2-12.4-6.7-4.5-13.3-8.9-20-13.4-13.5-8.3-25.3-18.5-37.3-27.5-6.1-4.4-11.6-9.4-17-14.4-5.4-4.8-10.8-9.6-16.1-14.4-5.4-4.5-10.1-9.9-14.8-14.8-4.8-5-9.4-9.9-14-14.7-17.6-20-33.1-39.2-45.5-58.3-3.2-4.6-6.3-9.1-9.3-13.5-2.7-4.8-5.4-9.4-7.9-13.9-5.1-9-10.1-17.1-14.4-25.2-7.6-16.9-15-30.6-19.8-42.9-9.4-24.5-14.8-38.5-14.8-38.5l-.4-1.2c-36-94-141.4-141-235.4-105-93.9 36-141 141.4-105 235.3 6.8 17.6 16.5 34.2 27.5 48.2 0 0 14.8 18.6 40.6 51.1 13.2 15.9 31.1 34.2 50.6 55.2 10.2 10.2 21.9 20.5 33.7 31.4 6 5.4 12.1 11 18.4 16.7 6.7 5.2 13.5 10.6 20.5 16.1 27.4 22.4 59.2 43.8 93.4 64.3 8.7 4.9 17.5 9.8 26.5 14.7 8.9 4.9 17.8 10.1 27.3 14.2 9.4 4.3 18.9 8.7 28.4 13.1 9.6 4.5 19.2 8.7 29.2 12.3 19.9 7.3 39.7 15.5 60.5 21.2 10.3 3 20.6 6.1 31 9.2 10.3 2.8 20.9 5 31.4 7.5 41.9 10.1 84.8 15.7 126.9 19.9 42.3 3.1 84.1 4.6 124.7 2.9 40.6-.9 80-5.1 117.5-9.6 37.6-5.3 73.4-11.2 106.8-18.7 33.5-7 64.6-15.3 93.1-23.2 113.7-32.7 183.5-66.6 183.5-66.6"
          ></path>
          <path
            fill="#100f0d"
            fillOpacity="1"
            fillRule="nonzero"
            stroke="none"
            d="M12318.3 10662.2s-16.1 6.8-45 16.1c-28.9 9.4-70.6 21.1-121 31.3-25.2 5-52.5 9.9-81.4 13.7-28.9 3.9-59.3 7.1-90.7 8.9-31.4 2.3-63.8 2.6-96.3 2.5-32.6-.7-65.5-2.3-98-5.5-16.2-1.6-32.4-3.2-48.4-5.7-8-1.1-15.9-2.2-23.8-3.3-7.9-1.4-15.8-2.8-23.6-4.2-15.6-2.5-30.9-5.9-46-9.2-15-3-29.7-7-44.1-10.7-14.4-3.5-28.4-7.8-42-12-6.8-2.1-13.5-4.1-20.1-6.1-6.6-2.3-13-4.6-19.4-6.8-25.5-8.4-49-18.3-70.5-26.8-10.7-4.7-20.8-9.3-30.5-13.6-9.6-4.3-18.7-8.4-27.1-12.8-16.7-8.7-31.4-15.3-43-22.2-23.4-13-36.7-20.5-36.7-20.5l-.2-.1c-87.9-49.2-199.1-17.8-248.3 70.1-49.2 88-17.8 199.1 70.1 248.4 17.7 9.8 37.1 16.6 55.9 20.1 0 0 19.4 3.6 53.4 9.9 16.8 3.4 37.7 5.7 61.3 9.1 11.8 1.9 24.4 3.1 37.8 4.3 13.3 1.3 27.2 2.6 41.8 3.9 29.3 1.6 60.7 3.7 94 3.5 8.3.1 16.7.1 25.2.2 8.5-.3 17.1-.5 25.8-.8 17.3-.4 35-1 52.9-2.5 17.9-1.3 36-2.5 54.3-4.8 18.2-1.9 36.6-4 55-7 9.2-1.4 18.4-2.8 27.7-4.2 9.2-1.7 18.4-3.5 27.6-5.2 18.4-3.2 36.7-7.4 54.9-11.6 36.4-8.3 72.2-18.4 106.8-29.3 34.5-11.4 68-23 99.6-36.2 31.7-12.7 61.6-26.4 89.4-40 27.8-13.7 53.5-27.6 76.7-40.9 46.5-26.9 83.1-51.7 107.9-70.1 24.9-18.3 38-29.9 38-29.9"
          ></path>
          <path
            fill="#100f0d"
            fillOpacity="1"
            fillRule="nonzero"
            stroke="none"
            d="M7666.52 11081s69.75 33.9 183.46 66.6c28.46 7.9 59.58 16.2 93.07 23.2 33.44 7.5 69.24 13.4 106.78 18.7 37.59 4.5 76.95 8.7 117.56 9.6 40.61 1.7 82.39.2 124.67-2.9 42.16-4.2 84.98-9.8 126.91-19.9 10.49-2.5 21.06-4.7 31.45-7.5 10.37-3.1 20.69-6.2 30.95-9.2 20.77-5.7 40.56-13.9 60.49-21.2 10.03-3.6 19.67-7.8 29.17-12.3 9.58-4.4 19.06-8.8 28.45-13.1 9.54-4.1 18.37-9.3 27.33-14.2 8.94-4.9 17.78-9.8 26.49-14.7 34.18-20.5 65.99-41.9 93.39-64.3 6.98-5.5 13.81-10.9 20.49-16.1 6.27-5.7 12.4-11.3 18.37-16.7 11.86-10.9 23.49-21.2 33.75-31.4 19.52-21 37.4-39.3 50.59-55.2 25.82-32.5 40.57-51.1 40.57-51.1 62.6-78.8 49.46-193.4-29.34-256-78.8-62.6-193.43-49.5-256.02 29.3-11.71 14.8-20.76 30.8-27.24 47.4l-.71 2s-5.35 14-14.73 38.5c-4.89 12.3-12.23 26-19.87 42.9-4.23 8.1-9.31 16.2-14.35 25.2-2.56 4.5-5.19 9.1-7.88 13.9l-9.39 13.5c-12.35 19.1-27.84 38.3-45.41 58.3-4.6 4.8-9.27 9.7-14 14.7-4.78 4.9-9.39 10.3-14.84 14.8-5.31 4.8-10.68 9.6-16.09 14.4-5.38 5-10.94 10-17.04 14.4-12.01 9-23.81 19.2-37.29 27.5-6.63 4.5-13.3 8.9-20 13.4-6.83 4.4-14.06 8.2-21.18 12.4-28.43 17-59.81 31-92.06 44.6-32.63 12.5-66.37 24.2-100.82 33-34.28 9.6-69.15 16.1-103.29 22.1-34.22 5.2-67.83 9.6-99.99 11.9-32.19 2.8-62.87 3.7-91.36 4.4-56.94.6-104.87-2-138.38-4.9-33.52-3-52.66-6-52.66-6"
          ></path>
          <path
            fill="#100f0d"
            fillOpacity="1"
            fillRule="nonzero"
            stroke="none"
            d="M7671.34 10662.2s13.12 11.6 38 29.9c24.81 18.4 61.49 43.2 107.92 70.1 23.27 13.3 48.91 27.2 76.74 40.9 27.82 13.6 57.72 27.3 89.41 40 31.6 13.2 65.07 24.8 99.6 36.2 34.61 10.9 70.37 21 106.76 29.3 18.2 4.2 36.51 8.4 54.92 11.6 9.22 1.7 18.43 3.5 27.61 5.2 9.25 1.4 18.46 2.8 27.65 4.2 18.41 3 36.79 5.1 55.05 7 18.27 2.3 36.37 3.5 54.28 4.8 17.93 1.5 35.57 2.1 52.92 2.5 8.7.3 17.31.5 25.81.8 8.51-.1 16.9-.1 25.19-.2 33.31.2 64.71-1.9 94-3.5 14.57-1.3 28.53-2.6 41.8-3.9 13.34-1.2 26.02-2.4 37.78-4.3 23.55-3.4 44.54-5.7 61.34-9.1l53.35-9.9c99.08-18.3 164.53-113.5 146.19-212.6-18.34-99.1-113.54-164.5-212.62-146.2-19.9 3.7-38.44 10.5-55.22 19.8l-.84.5s-13.33 7.5-36.65 20.5c-11.66 6.9-26.34 13.5-43.09 22.2-8.36 4.4-17.44 8.5-27.07 12.8-9.67 4.3-19.84 8.9-30.45 13.6-21.54 8.5-45 18.4-70.52 26.8-6.38 2.2-12.84 4.5-19.39 6.8-6.63 2-13.34 4-20.12 6.1-13.59 4.2-27.58 8.5-41.99 12-14.38 3.7-29.1 7.7-44.16 10.7-15.04 3.3-30.38 6.7-45.97 9.2-7.83 1.4-15.68 2.8-23.55 4.2-7.93 1.1-15.89 2.2-23.85 3.3-16.01 2.5-32.15 4.1-48.4 5.7-32.51 3.2-65.35 4.8-97.97 5.5-32.55.1-64.96-.2-96.3-2.5-31.42-1.8-61.84-5-90.75-8.9-28.92-3.8-56.2-8.7-81.41-13.7-50.32-10.2-92.08-21.9-120.93-31.3-28.93-9.3-45.07-16.1-45.07-16.1"
          ></path>
          <path
            fill="#f9d883"
            fillOpacity="1"
            fillRule="nonzero"
            stroke="none"
            d="M7578.53 12147.2c-896.8-164.4-1929.36-2512.1-1931.33-2516.6-516.01 456.4-1003.31 3444.6-338.01 4377.4 1200.36 464.9 2269.34-1860.8 2269.34-1860.8"
          ></path>
          <path
            fill="#100f0d"
            fillOpacity="1"
            fillRule="nonzero"
            stroke="none"
            d="M5386.53 13908.4c-259.35-398.8-346.19-1236-232.07-2254.4 49.87-445.1 136.39-886.8 243.59-1243.5 70.06-233.2 147.37-423.5 222.48-551.1 105.78 223 304.85 622.9 555.54 1034 448.38 735.4 861.95 1181.1 1231.93 1328.3-88.06 171.9-265.95 497.1-502.92 818.5-305.78 414.8-774.77 909.3-1272.63 909.3-82.69 0-165.25-13.8-245.92-41.1zm260.66-4397.8c-28.99 0-57.34 10.5-79.49 30.1-320.48 283.5-558.26 1252.2-651.75 2086.6-59.28 529-149.15 1826.9 295.54 2450.4 13.61 19.1 32.5 33.8 54.36 42.2 119.15 46.2 242.49 69.6 366.6 69.6 480.96 0 974.92-339.8 1468.17-1010.1 356.86-484.8 577.72-962.1 586.95-982.1a120.12 120.12 0 00-2.57-105.5c-17.09-32.9-48.4-56-84.84-62.7-683.55-125.2-1562.23-1808.7-1843.13-2446.8-15.43-35.1-46.69-60.7-84.11-68.9-8.54-1.9-17.17-2.8-25.73-2.8"
          ></path>
          <path
            fill="#fff"
            fillOpacity="1"
            fillRule="nonzero"
            stroke="none"
            d="M12259.1 9350s-235.8 199.4-362.4 412.8c-126.7 213.3-556.7 1486.6-1896.71 1484.6h-.03c-1339.99 2-1769.99-1271.3-1896.66-1484.6-126.66-213.4-362.44-412.8-362.44-412.8"
          ></path>
          <path
            fill="#100f0d"
            fillOpacity="1"
            fillRule="nonzero"
            stroke="none"
            d="M12259.1 9350s-5 3.5-14.7 10.4c-9.6 7-24 17.2-42.1 31.4-36.2 28.3-89.3 70.3-152.3 129.6-62.3 59.9-137.3 135-205.4 240.1-7.9 13.1-16.9 28-24.3 41.2-7.5 13.5-15.2 27.2-23 41.2-15.4 27.4-31.2 55.7-47.5 84.7-32.7 57.5-67 117.4-105 178.3-75.9 121.7-164.3 248.7-269.6 370.9-52.5 61.3-109.7 120.8-170.8 178.1-61.2 57.3-127.5 110.8-197.4 161-17.8 12.1-35.6 24.3-53.5 36.5-18.1 11.9-37 22.5-55.3 34.2l-27.8 17.1-28.9 15.6c-19.3 10.2-38.2 21.3-57.9 30.9-19.9 9.3-39.8 18.7-59.8 28.1l-15 7-15.4 6.2-30.8 12.3c-40.7 17.6-83.3 30.7-125.5 45.3-85.8 25-173.5 46.4-263.7 58.1-44.7 7.9-90.4 10.4-135.8 14.5-22.7 2.7-45.8 2.2-68.7 3l-68.92 1.7-69.64-1.8c-23.99-.8-49.89-.5-70.82-3.1-44.07-4.2-87.63-6.4-132.95-14.4-90.17-11.7-177.85-33.2-263.64-58.2-42.18-14.6-84.89-27.5-125.45-45.4l-30.84-12.3-15.39-6.1-14.96-7.1c-19.98-9.4-39.91-18.7-59.77-28-19.77-9.6-38.66-20.7-57.99-30.9l-28.8-15.6-27.81-17.1c-18.39-11.6-37.19-22.5-55.29-34.3-17.89-12.2-35.72-24.4-53.48-36.5-140.36-99.7-262.97-216.7-368.08-339-105.38-122.2-193.73-249.2-269.6-370.9-38.07-60.8-72.44-120.7-105.08-178.2-16.25-29-32.09-57.3-47.49-84.8-15.36-27.6-30.59-54.8-46.86-81.5-4.36-6.8-8.68-13.5-12.97-20.3l-2.15-3.3-1.61-2.2-3.2-4.4-6.36-8.8c-8.5-11.7-16.44-23-25.89-34.7-9.13-11.4-17.81-23.2-26.81-33.5-8.98-10.4-17.8-20.6-26.44-30.6-35.31-39.2-69.11-73.4-100.59-103.1-63.03-59.3-116.1-101.2-152.35-129.6-18.09-14.1-32.5-24.4-42.11-31.3-9.7-6.9-14.7-10.4-14.7-10.4s16.9 17.8 47.42 51.9c30.71 33.8 74.01 85.1 126 151.8 25.49 33.8 53.25 71.3 81.07 113.3 13.48 21.2 27.66 43.3 40.59 65.9 6.72 10.9 13.38 23.7 20.19 36.4l5.13 9.5 2.58 4.8 1.3 2.4c.35.6-.64-.9.02.3l.53 1.2c2.8 6 5.63 12.1 8.47 18.3 22.51 52.1 46.01 111.8 71.91 173.7 25.97 62.2 55.18 127.2 87.61 194.4 32.78 67.1 69.87 135.8 110.79 205.9 41.05 70 88.11 140 139.22 210.3 13.11 17.4 26.32 34.9 39.62 52.5 14.01 17.1 28.11 34.3 42.3 51.7 13.98 17.5 29.13 34.3 44.3 51.2 15.32 16.8 29.93 34.5 46.32 50.8 16.09 16.5 32.27 33.2 48.52 49.9 16.85 16.2 34.27 32 51.55 48.1 8.76 8 17.16 16.3 26.3 24 9.09 7.6 18.22 15.3 27.36 23 9.15 7.8 18.33 15.5 27.53 23.2l13.83 11.6 14.4 11c19.29 14.7 38.66 29.4 58.11 44.1 19.66 14.5 40.44 27.7 60.85 41.5 10.27 6.9 20.57 13.7 30.88 20.6 10.66 6.3 21.34 12.6 32.04 18.9 21.54 12.5 42.68 25.8 64.81 37.6 88.17 47.9 181.72 88.6 278.86 121.6 24.21 8.4 49.07 14.9 73.68 22.4l37.07 10.9c12.31 3.8 25.01 6 37.52 9.1 25.15 5.7 50.33 11.4 75.54 17.1 25.3 5.2 50.93 8.3 76.44 12.5 50.35 9.2 104.01 12.9 156.88 17.8 27.48 3.1 50.39 2.8 75.08 3.9l76.5 2.3c205.52-1.2 414.12-30.9 608.62-96.2 97.2-32.9 190.6-73.8 278.8-121.6 87.4-49 171.1-102.2 246.6-162.7l14.4-11 13.9-11.6c9.2-7.8 18.3-15.5 27.5-23.2 9.1-7.7 18.3-15.4 27.4-23.1 9.1-7.6 17.5-16 26.3-23.9 17.2-16.2 34.7-31.9 51.4-48.2 16.3-16.7 32.5-33.3 48.6-49.9 16.4-16.2 31-33.9 46.3-50.7 15.2-17 30.3-33.7 44.3-51.2 14.2-17.4 28.3-34.6 42.3-51.7 13.3-17.6 26.5-35.1 39.6-52.5 51.1-70.3 98.2-140.2 139.2-210.3 40.9-70 78.1-138.7 110.8-205.8 32.4-67.3 61.7-132.2 87.6-194.4 12.8-31 25.2-61.2 37.3-90.5 5.9-14.5 11.8-28.8 17.6-42.8 5.6-13.4 11.2-26.6 16.6-39.5 48.4-102.5 109.7-185.7 160.5-253 52-66.6 95.3-118 126-151.8 30.6-34 47.5-51.8 47.5-51.8"
          ></path>
          <path
            fill="#100f0d"
            fillOpacity="1"
            fillRule="nonzero"
            stroke="none"
            d="M10999.5 10526.1c0-303-447.5-1068.7-999.53-1068.7-552.04 0-999.55 765.7-999.55 1068.7s447.51 528.7 999.55 528.7c552.03 0 999.53-225.7 999.53-528.7"
          ></path>
          <path
            fill="#fff"
            fillOpacity="1"
            fillRule="nonzero"
            stroke="none"
            d="M12420.6 8995s-40-786.3-920-652.6c-880 133.7-720.6 733.7-1510.33 733.7-789.7 0-630.3-600-1510.31-733.7-880-133.7-919.97 652.6-919.97 652.6"
          ></path>
          <path
            fill="#100f0d"
            fillOpacity="1"
            fillRule="nonzero"
            stroke="none"
            d="M12420.6 8995s.3-5.9.2-17.4c-.1-11.5-.1-28.7-2.2-50.9-4.1-44.4-12-110.4-38.8-191.4-13.1-40.5-31.2-84.6-56.8-130.3-25.3-45.7-58.6-92.7-101.3-137.5-42.6-44.9-95.7-86.2-157.2-120.2-61.6-34.2-131.9-59.5-206.8-76.2-18.8-3.5-37.9-7.1-57.1-10.7-19.3-2.1-38.8-4.3-58.5-6.6-9.8-1.3-19.7-1.8-29.6-2.2-10-.4-19.9-.8-30-1.3-10-.4-20.1-.8-30.2-1.2-10.1.2-20.2.3-30.3.5l-30.6.6c-10.3.1-20.6.3-30.8 1.4-20.5 1.8-41.1 3.5-61.9 5.3l-7.8.6-2 .2c1.1-.2-3.6.5-3.8.5l-3.6.5-14.8 2c-9.8 1.3-19.7 2.6-29.6 3.9-9.9 1.3-19.8 2.6-29.8 3.9-10.7 1.9-21.4 3.9-32.1 5.8-10.8 1.9-21.7 3.9-32.5 5.9-11 1.9-21.8 4-32.3 6.7-21.3 5.2-42.8 10-64.2 15.8-21.5 6.3-43 12.7-64.7 19.1-21.4 7.7-43 15.3-64.7 23-86.4 32.9-171.2 79-250.3 134.3-79.4 55-150.7 121-216.8 184-33.3 31.6-65.4 62.4-97.6 90.6-32.2 28.3-63.9 55.3-97 77.7-8.1 6.1-16.6 11.1-25 16.4-8.4 5.4-16.7 10.9-25.4 15.4-8.6 4.6-17.1 9.6-25.8 14.2l-26.5 12.5c-36 15.5-72.9 29.3-112.3 38.7-38.8 10.5-80 16.4-121.5 21.5-21.1 1.8-42.4 3.1-63.6 4.7l-32.3.6-16.2.4-8.13.1-4.05.1-2.03.1c.66 0-4.32 0 .96.1-181.47 1-336.91-33-467.69-125-33.1-22.4-64.91-49.3-96.95-77.7-32.19-28.2-64.33-59-97.62-90.6-66.09-62.9-137.34-129.1-216.74-184-79.15-55.3-163.96-101.6-250.38-134.4-86.33-33.2-172.95-55.7-257.21-70.3-10.53-1.9-21.02-3.8-31.48-5.7-10.47-1.4-20.9-2.8-31.3-4.2-10.38-1.4-20.72-2.8-31.03-4.1l-15.42-2.1-3.84-.5c-.13 0-5.86-.8-4.3-.5l-1.85-.2-7.36-.6c-19.63-1.6-39.11-3.2-58.44-4.8-4.95-.3-9.36-.9-14.75-1.1l-15.88-.4c-10.55-.2-21.06-.5-31.52-.7l-31.17-.6c-10.15.4-20.25.9-30.31 1.3-10.02.4-20.01.9-29.94 1.3-9.92.4-19.79.9-29.69 2.2-19.69 2.2-39.19 4.4-58.51 6.6-19.29 3.5-38.32 7.1-57.08 10.7-74.89 16.7-145.22 42.1-206.83 76.2-61.59 34.1-114.64 75.5-157.26 120.3-42.68 44.8-76.04 91.8-101.33 137.6-25.52 45.7-43.7 89.8-56.8 130.3-26.74 81-34.56 147-38.66 191.5-2.05 22.2-2.07 39.4-2.23 50.9-.01 11.5.31 17.4.31 17.4s3.76-23.5 15.51-65.9c5.96-21.2 13.91-47.1 25.17-76.7 11.5-29.5 25.77-62.8 44.35-98.4 36.96-71 92.87-152 176.52-218.5 41.81-32.9 90.07-62.2 144.73-83.8 54.52-21.8 114.81-36.8 179.32-43.7 16.26-1.2 32.61-2.4 49.06-3.9 16.68-.3 33.52-.5 50.53-.8 4.24 0 8.46-.2 12.75-.1l12.93.7c8.62.5 17.29 1 25.99 1.4 8.67.5 17.38 1 26.12 1.4 8.51 1 17.06 2.1 25.65 3.1 8.55 1 17.14 2 25.77 3l12.94 1.4c4.25.3 9.39 1.4 14.06 2.1 19.13 3.2 38.41 6.4 57.84 9.6l7.3 1.2 1.82.3c2.78.4-1.72-.2-.64 0l3.45.8 13.83 3c9.22 2 18.48 4.1 27.77 6.1 9.28 2 18.6 4.1 27.94 6.1 9.19 2.4 18.41 4.9 27.66 7.4 74.05 19.3 148.11 43.2 218.55 76.3 70.43 33.1 137.71 73.4 200.84 123 8.04 5.9 15.74 12.5 23.52 19 7.75 6.6 15.65 12.9 23.33 19.7 15.26 13.9 30.82 27.3 46.09 42 30.74 28.6 61.17 59.6 92.81 92 62.7 64.4 131.36 136 216.94 198 10.3 8.1 21.64 15.2 32.67 22.7 11.08 7.4 22.08 14.9 33.89 21.5 11.65 6.8 23.19 13.7 35.03 20.3l36.33 18.2c49 23.1 100.25 42.5 152.16 55.3 51.84 14.3 103.97 22.3 155.82 28.8 26.49 2.7 53.66 4.5 80.27 6.5l70.68 1.9 79.51-2.1c25.8-2 51.6-3.8 77.4-6.3 51.8-6.6 104-14.6 155.8-28.9 103.9-25.9 205.1-75.8 290-138 85.6-62 154.1-133.8 216.9-198.1 31.6-32.4 62-63.4 92.8-92 15.3-14.7 30.7-28.2 46-42 7.7-6.9 15.6-13.2 23.4-19.7 7.7-6.6 15.5-13.2 23.5-19.1 63.2-49.5 130.4-89.9 200.9-123 17.9-7.8 35.7-15.5 53.5-23.2 18.2-6.7 36.4-13.5 54.5-20.2 36.8-12 73.7-23.6 109.4-32.7 9-2.5 18-4.9 27-7.3 9.8-2.1 19.6-4.3 29.4-6.4 9.8-2.1 19.5-4.2 29.2-6.3l14.5-3.2 3.6-.7c1.1-.2-2.4.3-.1-.1l1.7-.2 6.9-1.2c18.2-3 36.4-6.1 54.3-9.1 9.1-1.8 18-2.6 26.9-3.6 9-1.1 17.9-2.1 26.7-3.1 70.8-7.5 139.6-9.3 204-1.8 64.5 6.9 124.8 22 179.4 43.7 54.7 21.6 102.9 51 144.8 83.9 83.6 66.6 139.5 147.6 176.4 218.6 18.6 35.6 32.9 69 44.4 98.5 11.2 29.6 19.1 55.5 25.1 76.7 11.7 42.4 15.5 65.9 15.5 65.9"
          ></path>
          <path
            fill="#fff"
            fillOpacity="1"
            fillRule="nonzero"
            stroke="none"
            d="M5846.13 6299.1s169.71-477.9 595.85-166.3c426.15 311.6 287.64 2049.1-1398.1 1921.2-1685.75-127.9-1363.51-1952.5-1142.39-2203.2 221.11-250.7 790.07-186.4 808.36 323.6 0 0 63.4-599.4 595.85-461.3 532.45 138 538.43 440.7 540.43 586"
          ></path>
          <path
            fill="#100f0d"
            fillOpacity="1"
            fillRule="nonzero"
            stroke="none"
            d="M4709.91 6294.4c61.12 0 112.79-46.2 119.27-107.4 1.69-14.9 45.61-374.6 326.13-374.6h.01c36.79 0 77.26 5.7 120.27 16.8 445.65 115.6 448.72 338.4 450.55 471.6.8 58.1 43.11 107.2 100.42 116.7 57.35 9.4 113.2-23.5 132.65-78.2.49-1.4 72.18-192 213.67-192 56.82 0 123.53 27.7 198.27 82.4 144.46 105.6 216.99 494.1 90.09 882.6-81.35 249.1-365.43 828.4-1244.19 828.4-53.17 0-108.38-2.2-164.1-6.4-557.47-42.3-928.9-282.1-1103.95-712.7-219.47-539.8-51.18-1185.2 42.48-1291.4 56.15-63.7 150.51-101.7 252.39-101.7 153.85 0 336.79 91.7 346.05 350.2 2.26 62.9 52.8 113.4 115.75 115.6 1.42.1 2.83.1 4.24.1zm445.41-722h-.01c-183.36 0-337.72 86-441.14 243.8-114.9-154.8-298.06-227.7-470.3-227.7-169.71 0-331.35 68.4-432.38 182.9-167.14 189.5-330.24 936.9-84.82 1540.6 145.88 358.9 491.25 799.7 1308.13 861.6 61.74 4.7 123.05 7.1 182.25 7.1 394.55 0 728.64-102.7 992.98-305.2 221.97-170 387.73-408.2 479.35-688.7 151.05-462.5 73.5-968-176.57-1150.8-116.73-85.4-231.09-128.7-339.93-128.7-106.32 0-193.65 40.4-262.43 96.9-68.74-152.2-223.66-316.3-574.64-407.3-62.66-16.2-123.39-24.5-180.49-24.5"
          ></path>
          <g transform="scale(1.01912)">
            <path
              fill="#fff"
              fillOpacity="1"
              fillRule="nonzero"
              stroke="none"
              d="M13858.7 6180.91s-166.6-468.94-584.7-163.19c-418.1 305.76-282.2 2010.65 1371.8 1885.15 1654.2-125.49 1337.9-1915.86 1121-2161.85-217-246-775.3-182.91-793.2 317.52 0 0-62.2-588.15-584.7-452.64-522.5 135.41-528.3 432.43-530.2 575.01"
            ></path>
          </g>
          <g transform="scale(1.01156)">
            <path
              fill="#100f0d"
              fillOpacity="1"
              fillRule="nonzero"
              stroke="none"
              d="M13962.1 6345.72c6.5 0 12.9-.5 19.4-1.59 56.7-9.39 98.5-57.92 99.3-115.36 1.8-131.68 4.9-351.93 445.4-466.21 42.5-10.97 82.6-16.61 118.9-16.61 277.3 0 320.7 355.59 322.5 370.72 6.9 61.78 60.7 107.85 122.4 105.48 62.1-2.38 111.8-52 114.1-114.09 9.1-255.54 190-346.19 342-346.19 100.8 0 194 37.56 249.5 100.53 92.7 104.99 259 743.01 42 1276.64-173.1 425.68-540.2 662.74-1091.3 704.55-55.1 4.16-109.7 6.33-162.3 6.33-868.6 0-1149.5-572.67-1229.9-818.93-125.5-384.06-53.7-768.12 89-872.51 74-54.07 139.9-81.46 196.1-81.46 139.9 0 210.5 187.93 211.2 189.81 17 47.84 62.3 78.89 111.7 78.89zm683-837.02c-56.4 0-116.5 8.2-178.4 24.21-347 89.97-500.1 252.19-568.1 402.65-67.9-55.76-154.3-95.79-259.4-95.79-107.6 0-220.7 42.8-336 127.23-247.3 180.71-323.9 680.43-174.6 1137.64 90.5 277.29 254.4 512.77 473.9 680.83 261.3 200.18 591.6 301.71 981.5 301.71 58.6 0 119.2-2.37 180.3-7.02 807.5-61.2 1148.9-496.96 1293.1-851.75 242.6-596.8 81.4-1335.66-83.8-1522.99-99.9-113.19-259.7-180.81-427.5-180.81-170.2 0-351.3 72.07-464.9 225.1-102.2-156-254.9-241.01-436.1-241.01"
            ></path>
          </g>
          <path
            fill="#100f0d"
            fillOpacity="1"
            fillRule="nonzero"
            stroke="none"
            d="M9880.49 8892.4l120.01 1093.7 120-1093.7c7.3-66.3-40.6-125.9-106.8-133.2-66.32-7.3-125.94 40.5-133.21 106.8-.96 8.7-.87 18 0 26.4"
          ></path>
          <path
            fill="#f57385"
            fillOpacity="1"
            fillRule="nonzero"
            stroke="none"
            d="M10976.7 7842.3c-417.1 355.3-901.8 56.9-976.7 6.9-74.89 50-559.63 348.4-976.7-6.9-453.28-386.2-649.35-2144 976.43-2144.4H10000.3c1625.7.4 1429.7 1758.2 976.4 2144.4"
          ></path>
          <path
            fill="#100f0d"
            fillOpacity="1"
            fillRule="nonzero"
            stroke="none"
            d="M10000 5817.9h1.5c561.9.5 942 226.3 1099.2 653.2 186.6 507.1 2.1 1106.1-201.8 1279.9-111.4 94.9-239.1 143-379.5 143-224.9 0-416.6-120.5-452.7-144.6-40.4-27-93-27-133.35 0-36.15 24.1-227.87 144.6-452.76 144.6-140.42 0-268.09-48.1-379.46-143-203.93-173.8-388.42-772.9-201.78-1279.9 157.25-427.2 537.76-653 1100.41-653.2h.24zm.3-240h-.57c-352.94.1-649.35 79.2-881.03 235-205.32 138.1-354.89 331.7-444.57 575.3-210.78 572.6-30.59 1288.2 271.35 1545.5 156.02 132.9 336.05 200.3 535.11 200.3 223.38 0 414.93-86 519.41-144.5 104.5 58.5 296 144.5 519.4 144.5 199.1 0 379.1-67.4 535.1-200.3 302-257.3 482.2-972.9 271.4-1545.5-89.7-243.6-239.3-437.2-444.6-575.3-231.5-155.7-527.5-234.7-880-235h-1"
          ></path>
          <path
            fill="#100f0d"
            fillOpacity="1"
            fillRule="nonzero"
            stroke="none"
            d="M10120 7849.2l-120-1836.8-120 1836.8c-4.33 66.2 45.89 123.5 112.16 127.8 66.24 4.3 123.54-45.9 127.84-112.2.3-5 .3-10.7 0-15.6"
          ></path>
        </g>
      </g>
    </svg>