 <svg
      xmlns="http://www.w3.org/2000/svg"
      width="2666.667"
      height="2666.667"
      version="1.1"
      viewBox="0 0 2666.667 2666.667"
      xmlSpace="preserve"
    >
      <g transform="matrix(1.33333 0 0 -1.33333 0 2666.667)">
        <g transform="scale(.1)">
          <g transform="scale(1.22699)">
            <path
              fill="#82bc0000"
              fillOpacity="1"
              fillRule="nonzero"
              stroke="none"
              d="M16300 0H0v16300h16300V0"
            ></path>
          </g>
          <path
            fill="#865930"
            fillOpacity="1"
            fillRule="nonzero"
            stroke="none"
            d="M6741.59 12472.8s-2377.73-1158.2-2377.73-3139.3l279.03 105.4s-93.01-729.4 186.03-1098.6l186.02 193.4s-93.01-105.5 725.49-377.9"
          ></path>
          <path
            fill="#100f0d"
            fillOpacity="1"
            fillRule="nonzero"
            stroke="none"
            d="M5740.45 8035.7c-12.57 0-25.34 2-37.92 6.2-394.95 131.5-595.97 229.1-699.39 306.4l-87.74-91.2c-24.35-25.3-58.56-38.7-93.61-36.6-35.04 2.1-67.42 19.5-88.6 47.5-213.56 282.5-232.67 735.2-223.55 992.3l-103.35-39.1c-36.87-13.9-78.23-8.9-110.65 13.6-32.42 22.4-51.78 59.3-51.78 98.7 0 473.1 130.38 939.5 387.52 1386.2 203.51 353.4 486.42 695.1 840.89 1015.4 600.14 542.4 1191.87 833.5 1216.77 845.6 59.58 29 131.4 4.3 160.43-55.3 29.02-59.6 4.25-131.4-55.33-160.5-8.36-4-591.54-292-1165.42-811.9-490.47-444.3-1069.39-1149.7-1138.1-2043.3l109.85 41.5c39.39 14.9 83.7 8 116.76-18.1 33.06-26 50.03-67.6 44.7-109.3-.76-6-65.32-538.4 90.21-886.3l76.32 79.4c45.25 47 119.77 49.3 167.78 5 21.44-19.7 34.07-45.5 37.64-72.3 37.33-32.3 174.32-123.5 644.45-280 62.88-20.9 96.89-88.9 75.96-151.7-16.74-50.3-63.58-82.2-113.84-82.2"
          ></path>
          <path
            fill="#865930"
            fillOpacity="1"
            fillRule="nonzero"
            stroke="none"
            d="M13258.4 12472.8s2377.7-1158.2 2377.7-3139.3l-279 105.4s93-729.4-186-1098.6l-186 193.4s93-105.5-725.5-377.9"
          ></path>
          <path
            fill="#100f0d"
            fillOpacity="1"
            fillRule="nonzero"
            stroke="none"
            d="M14259.6 8035.7c-50.3 0-97.1 31.8-113.9 82.2-20.9 62.8 13.1 130.8 76 151.7 470.1 156.5 607.1 247.7 644.4 280 3.6 26.8 16.2 52.6 37.7 72.3 47.9 44.3 122.5 42 167.7-5l76-78.9c127.6 289.5 111.4 722.3 90.6 885.8-5.4 41.7 11.6 83.3 44.7 109.3 33 26.1 77.4 33 116.7 18.1l109.9-41.5c-68.7 893.6-647.6 1599-1138.1 2043.3-575.2 521-1159.6 809.1-1165.5 812-59.5 29-84.3 100.9-55.2 160.4 29 59.6 100.8 84.3 160.4 55.3 24.9-12.1 616.6-303.2 1216.7-845.6 354.5-320.3 637.4-662 840.9-1015.4 257.2-446.7 387.5-913.1 387.5-1386.2 0-39.4-19.3-76.3-51.7-98.7-32.5-22.5-73.8-27.5-110.7-13.6l-103.3 39.1c9.1-257.1-10-709.8-223.6-992.3-21.2-28-53.5-45.4-88.6-47.5-34.9-2.1-69.2 11.3-93.6 36.6l-87.7 91.2c-103.5-77.3-304.5-174.9-699.4-306.4-12.6-4.2-25.4-6.2-37.9-6.2"
          ></path>
          <path
            fill="#fff"
            fillOpacity="1"
            fillRule="nonzero"
            stroke="none"
            d="M14324.9 8629c-63-22.6-180 143.3-180 143.3l216.1 203.6c-315.2 339.3-171.1 1376.4-171.1 1376.4-77.9 2405.1-2056 2939.6-3273.7 2931.1-187.9 566.3-718.1 636.6-718.1 636.6 89.4-54.6 77.5-327.3 77.5-327.3-411.46 545.5-1082.31 421.5-1082.31 421.5 253.43-109.1 223.62-510.8 223.62-510.8-35.78 84.4-381.43 148.8-381.43 148.8 46.61-69.8 12.2-302.8-49.21-368.7-1222.82-8-3100.23-589.4-3176.04-2931.2 0 0 144.06-1037.1-171.07-1376.4l216.09-203.6s-117.05-165.9-180.07-143.3c-63.03 22.6-968.86-1809.8 993.93-1809.8H13340.8c1962.8 0 1047.2 1832.4 984.1 1809.8"
          ></path>
          <path
            fill="#865930"
            fillOpacity="1"
            fillRule="nonzero"
            stroke="none"
            d="M6788.69 12479c-106.21-53.2-204.69-124.6-295.94-212-386.57-443.1-652.92-1062.3-680.52-1914.7 0 0 144.06-1037.1-171.07-1376.4l216.09-203.6s-117.05-165.9-180.07-143.3c-21.93 7.8-145.87-208.9-215.53-494.8-1.97-251.4 2.39-495.4 11.98-726.2 111.22-297.2-231 438.4 383.42 397.8 1008.67 1319 3588.71 1713.4 3663.85 2994 93.84 1599.3-2732.21 1679.2-2732.21 1679.2"
          ></path>
          <path
            fill="#865930"
            fillOpacity="1"
            fillRule="nonzero"
            stroke="none"
            d="M13211.3 12479c106.2-53.2 204.7-124.6 295.9-212 386.6-443.1 653-1062.3 680.6-1914.7 0 0-144.1-1037.1 171-1376.4l-216.1-203.6s117.1-165.9 180.1-143.3c22 7.8 145.9-208.9 215.6-494.8 1.9-251.4-2.4-495.4-12-726.2-111.2-297.2 231 438.4-383.5 397.8-1008.6 1319-3588.7 1713.4-3663.8 2994-93.8 1599.3 2732.2 1679.2 2732.2 1679.2"
          ></path>
          <path
            fill="#100f0d"
            fillOpacity="1"
            fillRule="nonzero"
            stroke="none"
            d="M5731.41 8512.8c-83.92-139.7-314.55-702.3-128.6-1108.2 141.44-308.8 500.19-465.4 1066.3-465.4h6671.69c565 0 922.5 156 1062.6 463.6 185.2 406.8-49.4 970.4-134.2 1109.9-88.2 23.4-168 113.2-222.4 190.4-34.4 48.8-27.7 115.5 15.8 156.5l138.8 130.8c-105 174.3-160.1 442.4-164.1 799.6-3.1 276.4 25.5 515.2 32.3 568.2-92.6 2669.9-2618.9 2805.3-3124.9 2805.3-9.3 0-18.4 0-27.7-.1h-.8c-51.7 0-97.6 33.1-113.9 82.2-89.7 270.4-268.2 411.4-410.7 483.5 6.7-74.9 4-138.7 3.9-141.6-2.2-50.6-35.9-94.4-84.3-109.4-48.3-15-100.9 1.9-131.4 42.3-214.07 283.9-510.27 363.6-715.73 381.5 87.51-182.1 73.49-394.1 72.51-407.3-4.1-55.3-45.47-100.5-100.12-109.5-48.87-8.1-96.95 14.6-122.06 56-20.92 15-74.45 35.4-139.61 54.5-8.39-115.8-47.3-236.6-100.71-293.9-22.51-24.2-54-38-87.04-38.2-494.74-3.2-2964.69-153.6-3056.54-2805.3 6.86-53 35.45-291.8 32.36-568.2-4-357.2-59.13-625.3-164.13-799.6l138.81-130.8c43.49-41 50.21-107.7 15.76-156.5-54.31-77-133.9-166.7-221.89-190.3zm7609.39-1813.6H6669.11c-488.59 0-854.3 111-1086.95 330.1-192.47 181.2-290.07 428-290.07 733.5 0 254.7 68.2 488.8 125.4 640.3 29.61 78.4 63.65 153.4 95.86 211 38.18 68.4 82.03 135.1 160.57 135.1h.52c4.6 3.6 9.9 8.3 15.64 13.8l-133.21 125.5c-47.99 45.2-50.51 120.7-5.64 169 226.31 243.7 177.89 1005.4 140.14 1278.3-.93 6.7-1.29 13.5-1.07 20.3 18.43 569.6 143.07 1073.4 370.44 1497.7 201.03 375.1 483.28 690.6 838.89 937.8 718.44 499.4 1544.71 599.5 2015.11 610.8 18.14 57.7 29.33 153.8 18.18 187.5-24.02 39.5-23.24 89.5 2.39 128.4 26.58 40.3 74.73 60.7 122.17 51.9 3.77-.7 93.46-17.6 189.07-45.6 10.66-3.1 20.98-6.3 30.97-9.4-19.64 78.5-57.87 157-131.68 188.8-48.54 20.9-77.7 71.1-71.8 123.6 5.9 52.5 45.46 95 97.43 104.6 7.81 1.5 79.49 14.1 189.97 14.1 173.57 0 455.98-32.2 718.36-205.7 1.2 6.5 2.9 13 5.1 19.4 18.9 53.5 72.7 86.4 129 79 23.5-3.2 555.7-80.1 785.7-635.8 474.3-6.2 1324.1-96.2 2062.9-590.7 366.4-245.2 657.2-560.7 864.4-937.7 235.3-428 364.2-939 382.9-1518.7.3-6.8-.1-13.6-1-20.4-37.8-272.8-86.2-1034.5 140.1-1278.2 44.9-48.3 42.3-123.8-5.6-169l-133.2-125.5c5.7-5.5 11-10.2 15.6-13.8h.5c78.4 0 122.7-66.9 161.2-135.5 32.8-58.1 67.4-133.7 97.6-212.7 58.3-152.9 127.7-388.9 127.7-644.9 0-304.1-97.4-549.5-289.5-729.6-231.8-217.2-596-327.3-1082.4-327.3"
          ></path>
          <path
            fill="#100f0d"
            fillOpacity="1"
            fillRule="nonzero"
            stroke="none"
            d="M8547.89 11167.1c0-236.4-191.67-428.1-428.11-428.1-236.44 0-428.12 191.7-428.12 428.1 0 236.4 191.68 428.1 428.12 428.1s428.11-191.7 428.11-428.1"
          ></path>
          <path
            fill="#100f0d"
            fillOpacity="1"
            fillRule="nonzero"
            stroke="none"
            d="M11382.2 11167.1c0-236.4 191.7-428.1 428.1-428.1 236.5 0 428.1 191.7 428.1 428.1 0 236.4-191.6 428.1-428.1 428.1-236.4 0-428.1-191.7-428.1-428.1"
          ></path>
          <path
            fill="#fff"
            fillOpacity="1"
            fillRule="nonzero"
            stroke="none"
            d="M10002.4 11436.4s1174 85.6 1825.7-524.4l-269.5-100s1199.5-461.1 1327.7-1392.1l-269.1-49.6s515.1-439.1 344.1-1038.3l-270 37.5s296.3-884.5-90-1550.4H7401.08c-386.26 665.9-89.99 1550.4-89.99 1550.4L7041.1 8332c-170.95 599.2 344.12 1038.3 344.12 1038.3l-269.12 49.6c128.22 931 1327.76 1392.1 1327.76 1392.1l-269.58 100c651.77 610 1825.72 524.4 1825.72 524.4"
          ></path>
          <path
            fill="#100f0d"
            fillOpacity="1"
            fillRule="nonzero"
            stroke="none"
            d="M7472.52 6939.1h5057.38c305.3 604.9 50.4 1384.2 47.7 1392.3-13.2 39.3-5.1 82.8 21.4 114.7 26.5 32 67.8 48 108.9 42.2l160-22.2c26.9 180.7-11.4 362.9-114.6 543-95.4 166.7-213 269-214.2 270-35 30.2-49.7 77.8-37.6 122.4 12.1 44.6 48.5 78.4 93.9 86.8l150.3 27.7c-194.4 777.3-1219.4 1179.8-1230.2 1184-46.6 17.9-77.2 62.8-76.9 112.7.3 49.9 31.4 94.4 78.2 111.8l71.3 26.4c-622.7 428.2-1566.7 366.5-1577 365.8-3.2-.3-6.3-.4-9.6-.3-3.36-.1-6.77 0-10.23.3-10.25.7-954.3 62.4-1576.99-365.8l71.32-26.4c46.8-17.4 77.97-61.9 78.26-111.8.3-49.9-30.35-94.8-76.94-112.7-10.75-4.2-1035.93-408.5-1230.16-1184l150.23-27.7c45.54-8.4 82.17-42.3 94.15-87 11.97-44.7-2.84-92.3-38.08-122.4-.93-.8-118.5-103.1-213.98-269.8-103.12-180.1-141.47-362.3-114.54-543l160.03 22.2c41.14 5.8 82.32-10.2 108.85-42.2 26.53-31.9 34.65-75.4 21.45-114.7-2.65-8-256.52-789.2 47.65-1392.3zm5128.88-240H7401.08c-42.78 0-82.33 22.8-103.8 59.8-304.16 524.4-218.12 1160-148.89 1466.8l-90.77-12.6c-59.22-8.2-115.51 28.4-131.91 85.9-79.07 277.2-37.71 566.7 119.61 837.2 34.34 59 70.73 111.1 105.11 155.4l-56.11 10.3c-63.08 11.6-105.86 70.8-97.1 134.4 56.96 413.6 319.73 802.8 759.88 1125.6 135.97 99.7 268.56 178.4 377.74 236.7l-2.29.9c-38.99 14.4-67.71 48.1-75.91 88.8-8.2 40.8 5.28 82.9 35.64 111.3 661.82 619.4 1795.86 564.1 1908.92 556.9 113.1 7.2 1247.1 62.5 1908.9-556.9 30.4-28.4 43.9-70.5 35.7-111.3-8.2-40.7-36.9-74.4-75.9-88.8l-2.3-.9c109.2-58.3 241.8-137 377.7-236.7 440.2-322.8 702.9-712 759.9-1125.6 8.8-63.6-34-122.8-97.1-134.4l-56.1-10.3c34.4-44.3 70.8-96.4 105.1-155.4 157.3-270.5 198.7-560 119.6-837.2-16.4-57.5-72.6-94.1-131.9-85.9l-90.8 12.6c69.3-306.8 155.3-942.4-148.9-1466.8-21.4-37-61-59.8-103.7-59.8"
          ></path>
          <path
            fill="#100f0d"
            fillOpacity="1"
            fillRule="nonzero"
            stroke="none"
            d="M10990.2 10898.6c0-336-443.3-883.8-990.2-883.8-546.85 0-990.16 547.8-990.16 883.8 0 335.9 443.31 487.7 990.16 487.7 546.9 0 990.2-151.8 990.2-487.7"
          ></path>
          <path
            fill="#100f0d"
            fillOpacity="1"
            fillRule="nonzero"
            stroke="none"
            d="M11809.2 8838.2s-1103.4 504.2-1808.2 504.2h-.1c-704.86 0-1808.21-504.2-1808.21-504.2s52.49-1507.5 1800.35-1516.6v-.1c2.65 0 5.25.1 7.86.1 2.7 0 5.3-.1 7.9-.1v.1c1747.9 9.1 1800.4 1516.6 1800.4 1516.6"
          ></path>
          <path
            fill="#fff"
            fillOpacity="1"
            fillRule="nonzero"
            stroke="none"
            d="M5799.76 6578s179.71-399.5 595.85-166.3c416.15 233.3 287.25 2229.7-1368.3 1926.5C3371.76 8035 3675.61 6515 3678.68 6435c3.08-80 62.2-501.8 533.08-458.2 470.88 43.7 451.72 476.5 451.72 476.5s41.7-605.6 644.99-437c603.29 168.7 491.29 561.7 491.29 561.7"
          ></path>
          <path
            fill="#100f0d"
            fillOpacity="1"
            fillRule="nonzero"
            stroke="none"
            d="M5354.12 8249.5c-96.35 0-199.03-9.9-305.19-29.3-1255.43-230-1324.93-1188.8-1254.61-1740 2.5-19.6 3.89-30.4 4.28-40.6 1.39-36.3 16.35-125.1 62.97-200.9 59.98-97.6 152.85-145 283.92-145 17.67 0 36.24.9 55.19 2.6 152.3 14.1 252.12 75.2 305.15 186.7 39.46 82.9 37.8 164.2 37.76 165-2.9 65.6 47.51 121.4 113.1 125.1 65.68 3.9 121.98-46 126.5-111.5.04-.5 8.21-98.9 57.94-192.2 58.33-109.5 146.76-162.7 270.34-162.7h.03c49.37 0 104.77 8.4 164.65 25.2 188.3 52.6 318.48 135.2 376.48 238.9 51.63 92.2 31.95 173.5 31.72 174.3-17.23 60.5 15.15 124.1 74.24 145.6 59.06 21.6 124.79-6.1 150.6-63.4 2.88-6.2 80.79-168.7 239.89-168.7 56.25 0 119.46 19.5 187.86 57.8 109.01 61.1 200.06 436 88.87 861.7-68.42 262-309.82 871.4-1071.69 871.4zM4145.49 5853.7c-445.38 0-578.35 375.2-586.65 575.1-.43 4.6-1.39 11.7-2.59 21.1-45.83 359.2-16.13 686.4 88.27 972.6 90.93 249.2 236.94 460.1 433.98 626.9 237.07 200.7 549.02 337.6 927.19 406.9 120.38 22 237.61 33.2 348.43 33.2 355.52 0 655.49-111.3 891.6-330.7 193.73-180 336.3-429 412.3-720 59.19-226.7 74.09-466.1 41.92-674.3-34.88-225.7-122.12-388.2-245.65-457.4-104.68-58.7-207.36-88.5-305.21-88.5-108.28 0-195.6 35.1-263.82 81.6-6.72-15.4-14.41-30.9-23.2-46.7-91.16-162.8-266.55-281.5-521.28-352.7-80.92-22.7-158.07-34.1-229.29-34.1h-.03c-185.28 0-339.31 78.8-441.7 224-77.83-107.4-212.99-211.7-446.92-233.4-26.28-2.4-52.31-3.6-77.35-3.6"
          ></path>
          <g transform="scale(1.02026)">
            <path
              fill="#fff"
              fillOpacity="1"
              fillRule="nonzero"
              stroke="none"
              d="M13920.2 6447.39s-176.1-391.57-584-163c-407.9 228.67-281.6 2185.43 1341.2 1888.25 1622.6-297.18 1324.8-1787 1321.8-1865.41-3-78.41-61-491.84-522.5-449.1-461.6 42.83-442.8 467.04-442.8 467.04s-40.8-593.58-632.1-428.33c-591.4 165.35-481.6 550.55-481.6 550.55"
            ></path>
          </g>
          <g transform="scale(1.01175)">
            <path
              fill="#100f0d"
              fillOpacity="1"
              fillRule="nonzero"
              stroke="none"
              d="M15278.8 6373.09s-2-85.3 40.6-169.91c53.3-105.95 150.9-164.07 298.3-177.71 18.8-1.68 37.1-2.57 54.6-2.57 129.6 0 221.3 46.85 280.6 143.32 46 74.92 60.9 162.69 62.2 198.57.4 10.08 1.7 20.75 4.3 40.12 69.5 544.8.8 1492.46-1240.1 1719.79-104.9 19.17-206.4 28.96-301.7 28.96-752.9 0-991.5-602.32-1059.1-861.28-109.9-420.75-20-791.3 87.7-851.69 67.6-37.85 130.1-57.13 185.7-57.13h.1c157.2 0 234.2 160.62 237.4 167.54 25.9 57.32 92.4 86.08 151.1 63.45 58.5-22.44 89.7-85 71.1-144.7-8-33.31-50.4-282.38 403.1-409.19 59.2-16.6 114-24.91 162.8-24.91 124.1 0 212.5 54.36 270 166.25 46.9 91.03 54.4 183.54 54.5 184.53 4.4 64.74 60.3 113.96 125 110.2 64.9-3.66 114.7-58.8 111.8-123.64zm393.5-587.4c-24.7 0-50.5 1.19-76.5 3.66-231.2 21.35-364.7 124.44-441.7 230.59-101.2-143.52-253.5-221.4-436.6-221.4-70.4 0-146.7 11.27-226.6 33.7-251.8 70.38-425.1 187.7-515.3 348.61-8.7 15.61-16.3 30.93-22.9 46.15-67.4-45.96-153.7-80.65-260.7-80.65h-.1c-96.7 0-198.1 29.45-301.6 87.47-122.1 68.4-208.4 229.01-242.8 452.09-31.8 205.78-17 442.4 41.5 666.47 75.1 287.61 215.9 533.72 407.5 711.63 233.3 216.85 529.8 326.86 881.1 326.86 109.6 0 225.5-11.07 344.5-32.82 373.8-68.49 682.1-203.8 916.4-402.17 194.7-164.86 339-373.31 429-619.62 103.1-282.87 132.5-606.27 87.1-961.29-1.2-9.3-2-16.32-2.5-20.86-8.2-197.58-139.6-568.42-579.8-568.42"
            ></path>
          </g>
          <path
            fill="#fff"
            fillOpacity="1"
            fillRule="nonzero"
            stroke="none"
            d="M12058.4 9284.7c250-154.9 150-378.9 150-378.9L11989 8939c-39.1-354.9-197.3-466.6-197.3-466.6l-161 183.4c-93.6-41-135.7-323.8-135.7-323.8-180-3.4-382 382.5-382 382.5l-144.6-215.4c-20 183.3-246 535.9-246 535.9l-184-149.2c43.3 526.6-536 456.6-536 456.6h-1.4s-579.28 70-535.95-456.6L9281.02 9035s-225.97-352.6-245.97-535.9l-144.68 215.4s-201.99-385.9-381.99-382.5c0 0-42.1 282.8-135.67 323.8l-160.99-183.4s-158.16 111.7-197.34 466.6l-219.33-33.2s-100 224 150 378.9"
          ></path>
          <path
            fill="#100f0d"
            fillOpacity="1"
            fillRule="nonzero"
            stroke="none"
            d="M11492.5 8212c-115.1-.1-230.1 77.7-351.5 237.4-11.2 14.7-21.9 29.4-32 43.8l-41-61c-28.1-41.9-79.4-61.7-128.3-49.7-49 12.1-85.2 53.4-90.6 103.5-9.2 84.5-86.1 241.6-158.4 368.9l-76.7-62.3c-37.4-30.3-89.2-35.4-131.7-12.9-42.5 22.4-67.5 68-63.5 115.9 9 109.9-13.1 189.1-67.7 241.9-93.6 90.9-273.3 92.7-334.7 85.7-4.5-.5-9.5-.8-14-.8h-1.4c-4.83 0-9.63.3-14.42.9-60.91 6.9-240.62 5.1-334.32-85.8-54.54-52.8-76.66-132-67.61-241.9 3.94-47.9-21.08-93.5-63.58-115.9-42.51-22.5-94.29-17.4-131.61 12.9l-76.75 62.2c-72.3-127.3-149.18-284.5-158.37-368.8-5.47-50.1-41.66-91.4-90.6-103.5-48.94-12-100.2 7.8-128.3 49.7l-41.02 61c-10.12-14.4-20.81-29.1-32.01-43.8-123.04-161.9-239.66-239.4-356.25-237.4-58.59 1.1-107.84 44.3-116.47 102.3-7.12 47.4-19.3 98.6-32.69 141.7l-55.12-62.7c-40.5-46.1-109.25-54.2-159.37-18.9-18.4 13-164.84 124.7-228 428.1l-101.49-15.4c-53.39-8-105.55 20.5-127.55 69.8-49.36 110.5-71.85 363.6 196.37 529.8 56.33 34.9 130.29 17.6 165.21-38.8 34.92-56.3 17.55-130.3-38.79-165.2-64.54-40-100.72-85.9-110.36-140l98.51 14.9c32.34 4.9 65.2-3.6 91.1-23.5 25.89-19.9 42.56-49.5 46.14-82 15.28-138.3 50.39-232.2 82.79-292.4l66.12 75.2c34.47 39.3 90.39 51.7 138.26 30.8 74.9-32.8 128.91-113.3 169.97-253.4.71-2.5 1.41-4.9 2.1-7.3 22.25 21.2 48.53 50.2 78.45 89.6 66.13 87 112.26 174.7 112.72 175.5 19.61 37.5 57.52 61.9 99.76 64.2 42.32 2.3 82.58-17.8 106.16-52.9l8.44-12.6c71.86 157.8 165.83 306.4 181.56 331 18.43 28.7 48.24 48.3 81.95 53.7 33.73 5.4 68.16-3.8 94.68-25.3l11.49-9.3c23.38 74.5 62.87 138.7 118.28 192.1 175.38 168.8 450.25 157.3 515.32 151.9 65.1 5.4 340 16.9 515.3-151.9 55.4-53.3 94.9-117.6 118.3-192.1l11.5 9.3c26.5 21.5 61 30.7 94.7 25.3 33.7-5.4 63.5-25 81.9-53.7 15.8-24.6 109.7-173.2 181.6-331l8.4 12.6c23.6 35.1 64.2 55.2 106.2 52.9 42.2-2.3 80.1-26.7 99.7-64.2.5-.8 48-90.8 114.5-177.8 29.2-38.2 54.9-66.5 76.7-87.3.7 2.4 1.4 4.8 2.1 7.3 41.1 140.1 95.1 220.6 170 253.4 47.9 20.9 103.8 8.5 138.3-30.8l66.1-75.2c32.4 60.2 67.5 154.1 82.8 292.4 3.5 32.5 20.2 62.1 46.1 82a120 120 0 0091.1 23.5l98.5-14.9c-9.6 54.1-45.8 100-110.4 140-56.3 34.9-73.7 108.9-38.7 165.2 34.9 56.4 108.8 73.7 165.2 38.8 268.2-166.2 245.7-419.3 196.3-529.8-22-49.3-74.1-77.8-127.5-69.8l-101.5 15.4c-63.2-303.4-209.6-415.1-228-428.1-50.1-35.4-118.9-27.2-159.4 18.9l-55.1 62.7c-13.4-43.1-25.6-94.4-32.7-141.8-8.7-57.9-57.9-101.1-116.5-102.2h-4.7"
          ></path>
          <path
            fill="#f57385"
            fillOpacity="1"
            fillRule="nonzero"
            stroke="none"
            d="M11020 8132c-397.5 384.8-940.4 58.1-1020 6.6-79.6 51.5-622.46 378.2-1020.04-6.6-428.24-414.5-608.44-2130.2 1010.08-2144.2v-.2c3.35 0 6.63.1 9.96.1 3.3 0 6.6-.1 10-.1v.2c1618.5 14 1438.3 1729.7 1010 2144.2"
          ></path>
          <path
            fill="#100f0d"
            fillOpacity="1"
            fillRule="nonzero"
            stroke="none"
            d="M9438.11 8197c-147 0-269.57-49.5-374.69-151.2-105.39-102-195.81-309.6-235.97-541.6-46.51-268.8-23.46-538.5 64.88-759.5 164.62-411.9 544.56-632.1 1098.74-636.9 1.45-.1 2.9-.1 4.33-.2l3.91.1h1.39l3.9-.1c1.4.1 2.9.1 4.3.2 554.2 4.8 934.1 225 1098.8 636.9 88.3 221 111.4 490.7 64.9 759.5-40.2 232-130.6 439.6-236 541.6-105.1 101.7-227.7 151.2-374.7 151.2-238.5 0-455.6-132.6-496.7-159.2-39.7-25.6-90.7-25.6-130.35 0-41.11 26.6-258.29 159.2-496.74 159.2zM10010 5867.6l-10 .1-9.97-.1c-2.55 0-5.08.1-7.6.2-343.66 4-633.81 81.7-862.51 231.1-204.71 133.8-356.27 321.1-450.44 556.7-104.6 261.7-132.49 577.6-78.52 889.5 49.13 283.8 163.34 535.5 305.54 673.1 149.97 145.2 332.19 218.8 541.61 218.8 237.82 0 449.53-96.2 561.89-158.7 112.4 62.5 324.1 158.7 561.9 158.7 209.4 0 391.6-73.6 541.6-218.8 142.2-137.6 256.4-389.3 305.5-673.1 54-311.9 26.1-627.8-78.5-889.5-94.2-235.6-245.7-422.9-450.4-556.7-228.7-149.4-518.9-227.1-862.6-231.1-2.5-.1-5-.2-7.5-.2"
          ></path>
          <path
            fill="#fff"
            fillOpacity="1"
            fillRule="nonzero"
            stroke="none"
            d="M12042.3 11386.3c0-51.8-42.1-93.9-93.9-93.9-51.9 0-93.9 42.1-93.9 93.9 0 51.9 42 93.9 93.9 93.9 51.8 0 93.9-42 93.9-93.9"
          ></path>
          <path
            fill="#fff"
            fillOpacity="1"
            fillRule="nonzero"
            stroke="none"
            d="M8360.45 11386.3c0-51.8-42.03-93.9-93.88-93.9-51.85 0-93.88 42.1-93.88 93.9 0 51.9 42.03 93.9 93.88 93.9 51.85 0 93.88-42 93.88-93.9"
          ></path>
          <path
            fill="#100f0d"
            fillOpacity="1"
            fillRule="nonzero"
            stroke="none"
            d="M10000 8138.6V6500.8"
          ></path>
          <path
            fill="#100f0d"
            fillOpacity="1"
            fillRule="nonzero"
            stroke="none"
            d="M10120 8138.6l-120-1637.8-120 1637.8c-4.85 66.3 44.93 123.9 111.21 128.8 66.29 4.8 123.89-44.9 128.79-111.2.4-5.7.4-12.1 0-17.6"
          ></path>
        </g>
      </g>
    </svg>